<?xml version="1.0" encoding="utf-8"?>
<!-- Generator: Adobe Illustrator 18.1.0, SVG Export Plug-In . SVG Version: 6.00 Build 0)  -->
<svg version="1.1" id="Layer_1" xmlns="http://www.w3.org/2000/svg" xmlns:xlink="http://www.w3.org/1999/xlink" x="0px" y="0px"
	 viewBox="0 0 103.8 21.6" enable-background="new 0 0 103.8 21.6" xml:space="preserve">
<g>
	<g>
		<g>
			<path d="M28.8,14.3c0,0-0.1,0.1-0.5,0.1c-0.4,0-0.8-0.2-1-0.4c-0.2-0.2-0.6-0.4-1-0.5c-0.8,0-1.3-0.2-1.7-0.7
				c-0.4-0.5-0.6-1.2-0.6-1.9c0-1.1,0.4-2,1.2-2.4c0.3-0.2,0.7-0.3,1.1-0.3c1.4,0,2.2,1,2.2,2.6c0,1.1-0.4,2-1,2.4
				c0.1,0.1,0.3,0.2,0.5,0.3c0.2,0.1,0.4,0.2,0.6,0.2c0.2,0,0.5,0,0.5,0L28.8,14.3z M27.2,9.7C27.1,9.4,26.8,9,26.3,9
				c-0.3,0-0.7,0.2-0.8,0.5c-0.2,0.3-0.3,0.8-0.3,1.4c0,0.9,0.1,1.4,0.5,1.7c0.2,0.1,0.4,0.2,0.6,0.2c0.7,0,1-0.5,1-1.9
				C27.3,10.3,27.3,9.9,27.2,9.7z"/>
			<path d="M31.8,13.5c-0.1-0.1-0.2-0.2-0.3-0.4c-0.2,0.2-0.6,0.4-1,0.4c-0.5,0-1-0.3-1.1-0.6c-0.1-0.2-0.1-0.4-0.1-0.8V9.7l1-0.2
				V12c0,0.3,0,0.5,0.1,0.6c0.1,0.1,0.2,0.2,0.3,0.2c0.2,0,0.5-0.2,0.6-0.4V9.7l1-0.2v2.9c0,0.3,0.1,0.5,0.2,0.7L31.8,13.5z"/>
			<path d="M34.2,11.8L34.2,11.8c0,0.6,0.3,1,0.8,1c0.3,0,0.7-0.1,1-0.4l0.4,0.6c-0.4,0.4-0.9,0.5-1.4,0.5c-1.1,0-1.8-0.8-1.8-2
				c0-0.7,0.1-1.1,0.5-1.5c0.3-0.3,0.7-0.5,1.2-0.5c0.4,0,0.9,0.1,1.1,0.4c0.3,0.4,0.5,0.9,0.5,1.7v0.2H34.2z M35.3,11.1
				c0-0.3,0-0.4-0.1-0.6c-0.1-0.1-0.2-0.2-0.4-0.2c-0.4,0-0.6,0.3-0.6,0.8v0L35.3,11.1L35.3,11.1z"/>
			<path d="M37.9,11.8L37.9,11.8c0,0.6,0.3,1,0.8,1c0.3,0,0.7-0.1,1-0.4l0.4,0.6c-0.4,0.4-0.9,0.5-1.4,0.5c-1.1,0-1.8-0.8-1.8-2
				c0-0.7,0.1-1.1,0.5-1.5c0.3-0.3,0.7-0.5,1.2-0.5c0.4,0,0.9,0.1,1.1,0.4c0.3,0.4,0.5,0.9,0.5,1.7v0.2H37.9z M39.1,11.1
				c0-0.3,0-0.4-0.1-0.6c-0.1-0.1-0.2-0.2-0.4-0.2c-0.4,0-0.6,0.3-0.6,0.8v0L39.1,11.1L39.1,11.1z"/>
			<path d="M42.8,13.4V11c0-0.4-0.1-0.6-0.3-0.6c-0.2,0-0.5,0.1-0.7,0.3v2.7h-1v-2.8c0-0.3,0-0.6-0.1-0.9l0.9-0.3
				c0.1,0.2,0.1,0.3,0.1,0.5c0.1-0.1,0.3-0.2,0.4-0.3c0.2-0.1,0.5-0.2,0.7-0.2c0.4,0,0.8,0.2,0.9,0.5c0.1,0.1,0.1,0.3,0.1,0.5v2.8
				H42.8z"/>
			<path d="M46,13.6c-0.5,0-1-0.1-1.5-0.4l0.4-0.7c0.3,0.2,0.8,0.4,1.3,0.4c0.3,0,0.5-0.2,0.5-0.4c0-0.3-0.2-0.4-0.6-0.5l-0.4-0.1
				c-0.3,0-0.6-0.2-0.7-0.4c-0.1-0.2-0.2-0.4-0.2-0.7c0-0.7,0.6-1.2,1.5-1.2c0.6,0,1,0.2,1.4,0.4l-0.3,0.7c-0.4-0.2-0.7-0.3-0.9-0.3
				c-0.3,0-0.5,0.1-0.5,0.4c0,0.2,0.1,0.3,0.5,0.4l0.5,0.1c0.5,0.1,0.6,0.3,0.8,0.4c0.1,0.2,0.2,0.4,0.2,0.6
				C47.6,13,47,13.6,46,13.6z"/>
			<path d="M49.3,13.5c-0.4,0-0.8-0.2-0.9-0.5c-0.1-0.2-0.1-0.3-0.1-0.9V9.3c0-0.5,0-0.8-0.1-1.1l1-0.2c0,0.2,0.1,0.5,0.1,1v3
				c0,0.7,0,0.7,0.1,0.8c0,0.1,0.1,0.1,0.2,0.1c0,0,0.1,0,0.1,0l0.2,0.6C49.7,13.5,49.5,13.5,49.3,13.5z"/>
			<path d="M52.9,13.6c-0.2-0.1-0.4-0.3-0.5-0.5c-0.1,0.1-0.2,0.1-0.2,0.2c-0.2,0.1-0.5,0.2-0.8,0.2c-0.8,0-1.3-0.4-1.3-1.2
				c0-0.9,0.6-1.3,1.8-1.3c0.1,0,0.1,0,0.2,0v-0.2c0-0.4-0.1-0.6-0.4-0.6c-0.3,0-0.7,0.2-1.1,0.4l-0.4-0.7c0.2-0.1,0.3-0.2,0.6-0.3
				c0.4-0.2,0.7-0.2,1-0.2c0.6,0,1.1,0.2,1.2,0.7c0.1,0.2,0.1,0.3,0.1,0.7l0,1.3c0,0.4,0,0.6,0.4,0.8L52.9,13.6z M52.1,11.8
				c-0.7,0-0.9,0.1-0.9,0.6c0,0.3,0.2,0.5,0.4,0.5c0.2,0,0.4-0.1,0.5-0.3L52.1,11.8L52.1,11.8z"/>
			<path d="M56.2,13.4V11c0-0.4-0.1-0.6-0.3-0.6c-0.2,0-0.5,0.1-0.7,0.3v2.7h-1v-2.8c0-0.3,0-0.6-0.1-0.9l0.9-0.3
				c0.1,0.2,0.1,0.3,0.1,0.5c0.1-0.1,0.3-0.2,0.4-0.3c0.2-0.1,0.5-0.2,0.7-0.2c0.4,0,0.8,0.2,0.9,0.5c0.1,0.1,0.1,0.3,0.1,0.5v2.8
				H56.2z"/>
			<path d="M60.5,13.4c0-0.1,0-0.1-0.1-0.2c-0.2,0.2-0.5,0.3-0.9,0.3c-1,0-1.6-0.8-1.6-1.9c0-1.2,0.7-2,1.6-2c0.3,0,0.5,0.1,0.7,0.2
				c0-0.1,0-0.3,0-0.6V7.9l1,0.2v4c0,0.9,0.1,1.2,0.1,1.4H60.5z M60.3,10.6c-0.2-0.2-0.4-0.2-0.5-0.2c-0.4,0-0.6,0.4-0.6,1.2
				c0,0.8,0.2,1.1,0.7,1.1c0.2,0,0.4-0.1,0.5-0.2V10.6z"/>
			<path d="M66.4,13.7c-0.6,0-1.2-0.2-1.6-0.6c-0.4-0.5-0.6-1.1-0.6-2c0-1,0.3-1.7,0.8-2.1c0.4-0.3,0.8-0.5,1.3-0.5
				c0.5,0,1,0.2,1.4,0.5l-0.3,0.4c-0.4-0.3-0.7-0.4-1.1-0.4c-0.6,0-1.1,0.3-1.3,0.9c-0.1,0.4-0.2,0.8-0.2,1.3c0,0.7,0.1,1.2,0.4,1.5
				c0.2,0.3,0.8,0.5,1.2,0.5c0.3,0,0.6-0.1,0.8-0.2v-1.6h-1l-0.1-0.5h1.7v2.4C67.5,13.5,66.9,13.7,66.4,13.7z"/>
			<path d="M70.4,13.7c-1,0-1.6-0.8-1.6-2c0-1.2,0.6-1.9,1.6-1.9c0.6,0,1,0.3,1.3,0.6c0.2,0.3,0.3,0.8,0.3,1.4
				C72,13.1,71.4,13.7,70.4,13.7z M71.2,10.7c-0.2-0.3-0.5-0.5-0.8-0.5c-0.3,0-0.6,0.2-0.8,0.4c-0.1,0.2-0.2,0.5-0.2,1
				c0,0.5,0.1,1,0.2,1.2c0.1,0.2,0.4,0.4,0.8,0.4c0.4,0,0.7-0.2,0.8-0.6c0.1-0.2,0.1-0.4,0.1-0.8C71.4,11.3,71.3,11,71.2,10.7z"/>
			<path d="M74.3,13.6h-0.6l-1.3-3.7L73,9.8l0.9,2.5c0.1,0.3,0.2,0.6,0.2,0.6h0c0,0,0.1-0.3,0.2-0.6l0.8-2.5h0.6L74.3,13.6z"/>
			<path d="M76.9,11.9L76.9,11.9c0,0.4,0,0.7,0.2,0.9c0.2,0.3,0.5,0.5,0.9,0.5c0.4,0,0.6-0.1,0.9-0.3l0.2,0.4
				c-0.3,0.3-0.8,0.5-1.2,0.5c-1,0-1.6-0.7-1.6-2c0-0.6,0.1-1,0.4-1.4c0.3-0.3,0.7-0.5,1.1-0.5c0.4,0,0.8,0.1,1,0.4
				c0.3,0.3,0.4,0.7,0.4,1.6v0.1H76.9z M78.4,10.6c-0.1-0.2-0.4-0.3-0.7-0.3c-0.5,0-0.8,0.4-0.9,1.2h1.7
				C78.6,11,78.5,10.8,78.4,10.6z"/>
			<path d="M81.8,10.5c0,0-0.1,0-0.2,0c-0.2,0-0.4,0.1-0.6,0.3c-0.2,0.2-0.2,0.3-0.2,0.6v2.3h-0.6v-2.9c0-0.5-0.1-0.8-0.1-0.8
				l0.6-0.2c0,0,0.1,0.3,0.1,0.6c0.3-0.4,0.7-0.6,1-0.6c0.1,0,0.2,0,0.2,0L81.8,10.5z"/>
			<path d="M84.7,13.6v-2.5c0-0.4,0-0.5-0.1-0.6c-0.1-0.1-0.2-0.2-0.4-0.2c-0.3,0-0.8,0.2-1,0.5v2.8h-0.6v-2.9
				c0-0.5-0.1-0.8-0.1-0.8L83,9.8c0,0,0.1,0.3,0.1,0.6c0.4-0.4,0.8-0.6,1.2-0.6c0.4,0,0.8,0.2,0.9,0.5c0.1,0.1,0.1,0.3,0.1,0.4v2.8
				H84.7z"/>
			<path d="M90.5,13.6v-2.7c0-0.4-0.2-0.5-0.5-0.5c-0.3,0-0.6,0.2-1,0.6v2.7h-0.6V11c0-0.2,0-0.4-0.1-0.5c-0.1-0.1-0.2-0.1-0.4-0.1
				c-0.3,0-0.6,0.1-0.9,0.5v2.8h-0.6v-2.9c0-0.5-0.1-0.8-0.1-0.8l0.6-0.1c0,0,0.1,0.3,0.1,0.6c0.2-0.3,0.7-0.6,1.1-0.6
				c0.4,0,0.7,0.2,0.9,0.6c0.4-0.4,0.8-0.6,1.2-0.6c0.6,0,0.9,0.4,0.9,1v2.8H90.5z"/>
			<path d="M92.7,11.9L92.7,11.9c0,0.4,0,0.7,0.2,0.9c0.2,0.3,0.5,0.5,0.9,0.5c0.4,0,0.6-0.1,0.9-0.3l0.2,0.4
				c-0.3,0.3-0.8,0.5-1.2,0.5c-1,0-1.6-0.7-1.6-2c0-0.6,0.1-1,0.4-1.4c0.3-0.3,0.7-0.5,1.1-0.5c0.4,0,0.8,0.1,1,0.4
				c0.3,0.3,0.4,0.7,0.4,1.6v0.1H92.7z M94.2,10.6c-0.1-0.2-0.4-0.3-0.7-0.3c-0.5,0-0.8,0.4-0.9,1.2h1.7
				C94.4,11,94.3,10.8,94.2,10.6z"/>
			<path d="M98.2,13.6v-2.5c0-0.4,0-0.5-0.1-0.6c-0.1-0.1-0.2-0.2-0.4-0.2c-0.3,0-0.8,0.2-1,0.5v2.8H96v-2.9c0-0.5-0.1-0.8-0.1-0.8
				l0.6-0.2c0,0,0.1,0.3,0.1,0.6c0.4-0.4,0.8-0.6,1.2-0.6c0.4,0,0.8,0.2,0.9,0.5c0.1,0.1,0.1,0.3,0.1,0.4v2.8H98.2z"/>
			<path d="M101.2,10.3h-0.8v2.4c0,0.4,0.1,0.5,0.5,0.5c0.2,0,0.3,0,0.4-0.1l0.1,0.4c-0.2,0.1-0.4,0.1-0.7,0.1c-0.2,0-0.3,0-0.5-0.1
				c-0.3-0.1-0.4-0.4-0.4-0.7v-2.5h-0.5V9.9h0.5c0-0.4,0.1-0.9,0.1-0.9l0.6-0.1c0,0-0.1,0.6-0.1,1.1h0.9L101.2,10.3z"/>
		</g>
	</g>
</g>
<path d="M9.8,7.6C9.3,7.6,8.8,8.2,9,8.9C9,9,8.8,9,8.7,8.8c0,0.2-0.5,0.5-0.8,0.4c0.2-0.2,0.3-0.6,0.7-0.9C8.9,8.1,9,8,9.2,7.6
	c-0.2,0.1-1,0.3-1.3,0C8.5,7.5,9.1,7.2,9.5,7L9.3,6.9C9,7.1,8.5,7.2,8.3,7.3C8.2,6.6,8.9,6.6,8.9,6.8C9.2,6.5,9,6,8.8,6
	C9,5.4,8.8,5,8.6,4.8c0,0.6-0.7,0.7-0.8,1.2c0-0.4-0.1-1.4-0.1-1.8C7.7,3.3,6.6,2.9,6.4,2.9C5.6,3,5.6,2.9,5.6,2.5
	C5.2,3,5.3,3.3,5.7,3.5C5.6,3.8,5.2,4,4.9,4C5.5,4.6,6.2,4.3,6.6,4c0,0,0,0,0.1-0.1c0.1,0.2,0.2,0.6,0.2,0.8c-0.6,0-0.7,0.4-0.7,0.6
	C6.9,5,7,6.3,7.2,6.6c-0.2,0-0.5-0.4-1-0.5c-0.6,0-0.8,0.3-1,0.3C5.2,6.8,5.7,7,6,7C5.9,7.5,6,7.7,6.4,7.8c0-0.4,0.5-0.5,1-0.2
	C8,8,8.3,8,8.8,7.9C8.7,8.1,8.5,8.1,8.2,8.3C7.8,8.7,7.8,9.2,7.4,9.4c0.5,0.2,1.3-0.1,1.4-0.3C9,9.2,9.2,9.2,9.3,9
	C9,8.3,9.5,7.8,9.8,7.8C9.8,7.8,9.9,7.6,9.8,7.6L9.8,7.6z M7.1,7.3C6.9,7.2,6.5,7.1,6.3,7.4C6.2,7.2,6.3,6.9,6.4,6.8
	c-0.6,0-0.9-0.2-1-0.3c0.2-0.1,0.7-0.3,1.1,0C6.9,6.7,7.1,6.8,7.4,7c0.1-0.1,0.1-0.1,0.1-0.1c-0.3-0.2-0.4-1.7-1-1.8
	C6.7,4.9,6.9,4.9,7.2,5c0-0.3-0.1-0.9-0.3-1.2c0.3-0.2,0.5,0,0.7,0.4c0.1,0.4,0,1.5,0.3,2.5l0.2-0.2c-0.1-0.6,0.5-0.8,0.7-1
	c0.1,0.4,0,0.5-0.1,0.7c0.2,0,0.3,0.2,0.3,0.4C8.2,6.4,7.9,7,8,7.4C7.6,7.5,7.4,7.4,7.1,7.3L7.1,7.3z M5.6,3.1C6,3.3,6.2,2.9,7,3.4
	C6.4,3.6,6,4.3,5.5,4.1c0.4-0.2,0.4-0.5,0.6-0.7C5.9,3.4,5.6,3.3,5.6,3.1L5.6,3.1z"/>
<path d="M15.2,5.5c0-0.8,0-1.5,0-1.8c0,0,0.1,0,0.1,0c0.6,0.2,0.7,0.9,2,0.1c-0.7,0.1-0.7-0.5-1-0.5c0.5-0.3,0.5-0.9,0.5-0.9
	c-0.4,0.3-1.3,0.3-1.5,0.4c-0.2,0.1-0.5,0.3-0.7,0.4c-0.5,0.3-0.2,1.8-0.2,2.4c-0.3-0.8-0.8-0.7-1.1-1.2c-0.2,0.4,0,1.1,0.1,1.3
	c-0.3,0.3-0.2,0.7-0.2,0.9c0.3-0.2,0.7-0.1,0.8,0.2c-0.4,0.2-1,0.3-1.4-0.1L12.5,7c0.3,0.4,1,0.5,1.6,0.2c0,0.1,0,0.2-0.1,0.3
	c-0.3,0.1-0.6,0.2-1.1,0.1c0.1,0.4,0.5,0.7,1,0.9c-0.2,0.1-0.3,0.2-0.5,0.2c0.1,0.2,0.1,0.6,0,0.8c-0.2-0.2-0.4-0.3-0.4-0.9
	c-0.1-0.6-0.5-1.2-0.8-1.3c0,0.2,0,0.1,0,0.3c0.9,0.6,0.4,1.8,1.3,2.2c0.3-0.4,0.3-0.5,0.3-0.9c0.3-0.1,0.6-0.4,0.7-0.6
	c-0.3,0.1-0.8-0.1-0.9-0.3c0.5,0,1.1-0.4,1.6-1c0.5-0.5,1.1-0.4,1,0c0.3,0,0.4-0.5,0.3-0.8c0.5-0.1,0.8-0.5,0.9-1
	C16.6,5.4,15.8,4.9,15.2,5.5L15.2,5.5z M16,6c0.2,0.2,0.2,0.5,0.1,0.6c-0.2-0.4-0.9-0.2-1.6,0.5c0,0.1-0.1,0.1-0.2,0.2
	c0.1-0.9-0.7-0.9-0.9-0.8c0-0.3,0.2-0.4,0.3-0.5c-0.2-0.3-0.3-0.6-0.3-0.8c0.4,0.2,0.9,0.6,1,1.3l0.2-0.2C14.6,5,14.6,5,14.6,4.1
	c0-0.1,0-0.4,0.4-0.4C15,4.1,15,5,15,6.2h0.1c0.1-0.3,0.6-0.7,1.1-0.7c0.4,0,0.5,0,0.7-0.1C16.8,5.8,16.2,6,16,6L16,6z M15,3.5
	c0.3-0.2,0.4-0.3,0.5-0.3c0.2,0,0.6,0,0.8-0.1c-0.2,0.3-0.3,0.4-0.6,0.4c0.5,0,0.7,0.5,0.9,0.6C15.8,4.3,15.7,3.5,15,3.5L15,3.5z"/>
<path d="M11.9,8.4c0,0-0.1,0-0.1,0.1c0,0-0.1,0-0.1,0l0-0.3c0,0,0.1-0.1,0.1-0.1c0-0.1-0.1-0.1-0.1-0.1c-0.1,0-0.1,0.1-0.1,0.1
	c0,0.1,0,0.1,0.1,0.1l0,0.3c0,0-0.1,0-0.1,0c0,0-0.1-0.1-0.1-0.1c-0.1,0-0.1,0.1-0.1,0.1c0,0.1,0.1,0.1,0.1,0.1c0,0,0.1,0,0.1-0.1
	c0.1,0,0.1,0,0.1,0l0,0.4c0,0-0.1,0.1-0.1,0.1c0,0.1,0.1,0.1,0.1,0.1c0.1,0,0.1-0.1,0.1-0.1c0-0.1,0-0.1-0.1-0.1l0-0.4
	c0,0,0.1,0,0.1,0c0,0.1,0.1,0.1,0.1,0.1c0.1,0,0.1-0.1,0.1-0.1C12,8.5,11.9,8.4,11.9,8.4L11.9,8.4z"/>
<path d="M10.7,8.3c-0.1,0-0.1,0-0.1,0.1c0,0-0.1,0-0.1,0l0-0.3c0,0,0.1-0.1,0.1-0.1c0-0.1-0.1-0.1-0.1-0.1c-0.1,0-0.1,0.1-0.1,0.1
	c0,0.1,0,0.1,0.1,0.1l0,0.3c-0.1,0-0.1,0-0.1,0c0,0-0.1-0.1-0.1-0.1c-0.1,0-0.1,0.1-0.1,0.1c0,0.1,0.1,0.1,0.1,0.1
	c0.1,0,0.1,0,0.1-0.1c0,0,0.1,0,0.1,0l0,0.4c0,0-0.1,0.1-0.1,0.1c0,0.1,0.1,0.1,0.1,0.1c0.1,0,0.1-0.1,0.1-0.1c0-0.1,0-0.1-0.1-0.1
	l0-0.4c0,0,0.1,0,0.1,0c0,0,0.1,0.1,0.1,0.1c0.1,0,0.1-0.1,0.1-0.1C10.8,8.4,10.8,8.3,10.7,8.3L10.7,8.3z"/>
<path d="M12.5,9.5c-0.1-0.5-0.3-2.1-0.3-2.6l-0.2,0c0,0.1,0,0.2,0,0.3c-0.3-0.1-0.6-0.1-1-0.1c-0.4,0-0.7,0.1-1,0.1
	c0-0.1,0-0.2,0-0.3l-0.2,0c0,0.5-0.2,2-0.3,2.6C9.3,9.5,9.2,9.7,9.2,9.9c0,0,1.3,0,1.8,0s1.8,0,1.8,0C12.7,9.7,12.6,9.5,12.5,9.5
	L12.5,9.5z M11,9.5c-0.2,0.4-0.6,0.4-0.9,0.2C9.9,9.5,9.8,9.5,9.7,9.5c0.1-0.4,0.1-1.1,0.2-1.7C10.3,7.6,10.8,7.5,11,8
	c0.1-0.5,0.6-0.4,1.1-0.3c0.1,0.6,0.2,1.3,0.2,1.7c-0.1,0-0.3,0.1-0.4,0.2C11.5,9.8,11.2,9.9,11,9.5L11,9.5z"/>
<path d="M8.3,10.1c0.7,0.3,1.5,0.4,2.4,0c-0.1,0.4-0.3,0.6-0.5,0.8c0.1,0.3,0.3,0.7,0.4,1c0.2,0.2,0.2,0.4,0.1,0.6
	c0,0.2-0.6,0.4-0.7,0.3c-0.2,0-0.2-0.1-0.2-0.1c-0.2,0-1,0.7-1.6,0.1c0-0.6,0-1.5,0-1.5c0.3-0.1,0.5-0.3,0.6-0.5
	C8.6,10.7,8.4,10.4,8.3,10.1L8.3,10.1z M9,10.7c-0.2,0.3-0.4,0.4-0.7,0.6c0,0,0,0.8,0,1.2c0.5,0.4,1,0.1,1.3-0.1
	c-0.1-0.1-0.1-0.2-0.1-0.3c-0.6,0.1-0.8-0.2-0.9-0.7c0,0,0.1-0.1,0.2-0.1C9,12,9.4,11.9,9.6,11.9c0.2-0.2,0.4-0.2,0.7-0.2
	c-0.1-0.3-0.2-0.6-0.4-0.9c0.2-0.1,0.3-0.2,0.5-0.4c-0.8,0.3-1.1,0.2-1.8,0C8.7,10.6,8.9,10.7,9,10.7L9,10.7z M10.4,11.9
	c-0.1,0-0.5,0.1-0.6,0.2c0,0.1,0,0.3,0.2,0.4c0.1,0.1,0.5-0.1,0.5-0.1C10.6,12.3,10.5,12,10.4,11.9L10.4,11.9z"/>
<path d="M13.9,11.1c0-0.4-0.3-0.9-0.8-0.9c-0.5,0-1,0.2-1.1,0.6c-0.7,0.4-1,0.7-0.9,1.1c-0.2,0.2-0.1,0.7,0.6,0.4
	c-0.2,0.2-0.2,0.4-0.2,0.6c0.6,0,2.1,0,2.3,0C13.5,11.7,13.9,11.9,13.9,11.1L13.9,11.1z M13.2,10.9c-0.1,0-0.6-0.1-0.8,0.3
	c-0.1,0-0.2,0-0.3-0.1c-0.1,0.1-0.2,0.1-0.3,0.2c0.1,0.2,0.4,0.2,0.5,0.1c0,0,0,0.1,0,0.1c0,0.6,0.6,0.8,1,0.5c-0.1,0.2,0,0.4,0,0.6
	c0,0-1.4,0-1.6,0c0-0.2,0.2-0.4,0.4-0.5L12.1,12c-0.2,0.1-0.3,0.1-0.5,0.2c-0.4,0.1-0.4-0.2,0-0.3v-0.1l-0.3,0
	c0.1-0.3,0.7-0.7,0.9-0.8c0-0.3,0.4-0.4,0.8-0.4c0.4,0,0.5,0.5,0.5,0.6c0,0.2,0,0.6-0.3,0.7c-0.3,0.2-0.6-0.1-0.6-0.3
	c0-0.3,0.2-0.4,0.5-0.4C13.4,11.2,13.4,11,13.2,10.9L13.2,10.9z"/>
<path d="M13.1,15.3v-0.4v-0.1H13h-0.1c0-0.6-0.1-1-0.4-1.2l-0.1-0.1l-0.1,0.1c-0.3,0.3-0.4,0.7-0.4,1.2h-0.1h-0.1v0.1v0.4
	c-0.3,0.1-0.5,0.3-0.8,0.5l0,0l0.1,0.2l0,0c0.4-0.3,0.7-0.5,1.4-0.5c0.7,0,1,0.3,1.2,0.6l0.2-0.1C13.7,15.7,13.5,15.5,13.1,15.3
	L13.1,15.3z M12.4,13.8c0.2,0.2,0.3,0.6,0.3,1h-0.5C12.1,14.3,12.2,14,12.4,13.8L12.4,13.8z M11.9,15.3V15h1v0.3
	c-0.1,0-0.3-0.1-0.5-0.1C12.2,15.2,12,15.2,11.9,15.3L11.9,15.3z"/>
<path d="M13,16.3c0-0.2,0-0.4-0.1-0.5c-0.1-0.1-0.3-0.2-0.4-0.1l0.2,0.2l-0.4,0.3l-0.2-0.2c0,0,0.1-0.1,0.1-0.1
	c-0.1-0.1-0.3-0.3-0.6-0.2c-0.1,0.2,0,0.4,0.1,0.6c0.1-0.1,0.1-0.1,0.1-0.1l0.2,0.2l-0.4,0.4l0.1,0.2l0.4-0.4l0.1,0.2
	c0,0-0.1,0.1,0,0.3c0.1-0.1,0.3-0.2,0.4-0.3c-0.1-0.2-0.3-0.1-0.3-0.1l-0.1-0.2l0.4-0.3L13,16.3L13,16.3z"/>
<path d="M10.1,13.8c-0.1-0.3-0.4-0.4-0.6-0.2c-0.2-0.1-0.5-0.1-0.6,0.2c-0.6-0.1-0.5,0.5-0.4,0.6c0.1,0.1,0.2,0.5,0.3,0.7
	c0,0,0,0,0,0c0,0.1,0,0.3,0,0.4c0,0,0.1,0,0.1,0c-0.1,0.2-0.2,0.5-0.2,0.6c0.1,0,0.2,0.1,0.3,0.1c0,0,0,0.1-0.1,0.2
	c0.2,0.1,0.5,0.1,0.7,0.1c0.2,0,0.5,0,0.7-0.1c0-0.1-0.1-0.2-0.1-0.2c0.1,0,0.2-0.1,0.3-0.1c-0.1-0.1-0.2-0.4-0.2-0.6
	c0,0,0.1,0,0.1,0c0-0.1,0-0.3,0-0.4c0,0,0,0,0,0c0.1-0.2,0.3-0.6,0.3-0.7C10.6,14.2,10.7,13.7,10.1,13.8L10.1,13.8z M9.6,13.8
	c0-0.2,0.5-0.2,0.4,0.2c-0.1,0.3-0.2,0.7-0.3,1.1c0,0-0.1,0-0.1,0c0,0-0.1,0-0.1,0c-0.1-0.3-0.2-0.7-0.3-1.1
	C9.1,13.6,9.5,13.7,9.6,13.8L9.6,13.8z M10.1,15.2c0,0,0,0.1,0,0.2c-0.1,0-0.4,0.1-0.6,0.1s-0.4,0-0.6-0.1c0-0.1,0-0.1,0-0.2
	c0.1,0,0.5-0.1,0.6-0.1C9.7,15.2,10,15.2,10.1,15.2L10.1,15.2z M8.8,14.3C8.6,14,8.9,13.9,9,14.1c0.1,0.3,0.2,0.7,0.3,1
	c-0.1,0-0.2,0-0.2,0C9,15,8.9,14.6,8.8,14.3L8.8,14.3z M10.2,16c-0.1,0-0.2,0.1-0.3,0.1c0,0.1,0,0.1,0,0.2c-0.1,0-0.3,0-0.4,0
	s-0.3,0-0.4,0c0-0.1,0-0.1,0-0.2c-0.1,0-0.2,0-0.3-0.1c0-0.1,0.1-0.3,0.1-0.4c0.2,0,0.3,0.1,0.5,0.1c0.2,0,0.3,0,0.5-0.1
	C10.1,15.8,10.2,15.9,10.2,16L10.2,16z M10.4,14.3c-0.1,0.3-0.3,0.7-0.3,0.8c-0.1,0-0.2,0-0.2,0c0.1-0.3,0.2-0.7,0.3-1
	C10.2,13.9,10.5,14,10.4,14.3L10.4,14.3z"/>
<path d="M9.1,11.1c0.2,0,0.3,0,0.4,0c0.1,0,0.2,0,0.2,0.2c0,0.1,0,0.1,0,0.2c-0.1,0-0.3,0-0.4,0C9.2,11.4,9.2,11.2,9.1,11.1
	L9.1,11.1z"/>
<path d="M21.7,8.6c-0.1,0-0.2,0.1-0.3,0.1c0.2-0.2,0.3-0.4,0.3-0.6c-0.1,0-0.3,0.1-0.4,0.1c0.3-0.3,0.5-0.6,0.4-1
	c-0.1,0-0.2,0.1-0.4,0.2c0.3-0.4,0.3-0.8,0.2-1c-0.1,0.1-0.3,0.2-0.4,0.3c0.1-0.5,0.1-0.8-0.1-1c-0.2,0.4-0.4,0.7-0.7,1
	c0-0.3,0-0.7-0.2-0.9c0,0-0.1,0.4-0.2,0.6c0-0.4-0.2-0.7-0.4-0.9c0,0,0,0.5-0.1,0.7c-0.1-0.4-0.3-0.7-0.6-1c0,0.8-0.2,2.4-0.9,3.5
	c-0.1,0.6-0.1,1.6-1.2,2.2c-0.1-0.1-0.4-0.2-0.8-0.2c-0.1-0.5,0.5-0.9,1.1-1.3c0.5-0.4,0.8-0.7,0.8-1.1c0-0.5-0.4-0.7-0.7-0.7
	c-0.5,0-0.9,0.4-1,0.6c-0.1,0.1-0.6,0.2-0.8,0.3c-0.2,0.1-0.4,0.1-0.6,0.3C14.7,8.8,15,8.8,15,8.8c0.2,0,0.7-0.1,1.3-0.2
	c0.2,0.1,0.5,0.3,0.2,0.5c-0.4,0.3-0.6,0.4-1.3,0.7c-1,0.5-0.7,1.8-0.4,1.9c0,0.4,0.4,1.2,0.7,1.5c0.1,0.6,0,1.4-0.2,1.7
	c-0.1-0.3-0.4-1.1-0.5-1.6c0.2-0.9-0.1-1.2-0.3-1.4c-0.2-0.1-0.5-0.1-0.7,0.2c0.3,0,0.4,0.3,0.4,0.7c0,0.5-0.1,0.8-0.4,0.8
	c0,0.4,0.4,0.5,0.7,0.3c0,0.1,0.2,0.6,0.4,1.1c0.1,0.3,0.2,0.5,0.2,0.7c0.1,0.1,0.6,0.2,0.6,0c0.1-0.2,0.1-0.4,0.3-0.7l0,0
	c0.1-0.2,0.2-0.5,0.4-0.8c0.1,0.2,0.3,0.6,0.4,0.8c0,0.1,0.1,0.2,0.1,0.2c0,0.4,0,1.7-0.1,2.5c-1.1-0.3-1.4,0.2-1.3,0.6
	c0.2-0.2,0.4-0.2,0.5-0.1c0,0.3,0,0.5,0.3,0.6c0.3-0.8,1.4-0.6,1.5-0.6c0-0.2,0.2-0.6-0.4-0.6c0-0.7,0.1-1.6,0.1-1.8
	c0-0.2,0-0.3,0-0.6c0-0.1-0.1-0.2-0.1-0.3l0,0c-0.1-0.3-0.2-0.7-0.2-1.1c0.1,0.1,0.3,0.2,0.5,0.1c0.1,0.5,0.3,0.4,0.4,0.6
	c0,0.1,0.1,0.2,0.1,0.3c0,0.1,0,0.2,0.1,0.2c0.4,0,0.7-0.1,1-0.2c0.1,0,0.1-0.1,0.2-0.2c-0.1-0.6-0.3-0.9-0.6-1.2
	c-0.1-0.5-0.3-0.9-0.6-1.3c0.4-0.1,0.8-0.4,1-0.6c0.2,0,0.4-0.2,0.4-0.5c0.1,0,0.2,0,0.3,0c0-0.1,0-0.2,0-0.3c0.1,0,0.3,0,0.4,0
	c0-0.1-0.1-0.2-0.1-0.3c0.1,0,0.3,0,0.5,0c-0.1-0.1-0.1-0.3-0.2-0.4c0.2,0,0.4-0.1,0.6-0.1c-0.1-0.1-0.1-0.1-0.3-0.2
	c0.5-0.2,0.8-0.5,0.8-0.7c-0.1,0-0.2,0-0.3,0C21.5,9.1,21.7,8.9,21.7,8.6z M18.9,6.2c0.1,0.2,0.2,0.6,0.2,0.9
	c0.2-0.2,0.3-0.4,0.3-0.6c0.1,0.1,0.1,0.5,0,0.7c0.2-0.2,0.3-0.4,0.4-0.6c0,0.2,0,0.3,0,0.5c-0.4,0.4-1.1,1-1.8,1.6
	C18.6,7.9,18.8,7.2,18.9,6.2z M15.6,15.1L15.6,15.1c-0.1,0.1-0.1,0.3-0.1,0.4c0,0.1-0.3,0.1-0.4,0c0-0.1-0.1-0.2-0.2-0.4l0,0
	c-0.2-0.5-0.4-1.2-0.5-1.4c-0.1,0.2-0.3,0.3-0.4,0.2c0.5-0.2,0.3-1.6,0.1-1.7c0.2-0.2,0.5,0.6,0.4,1.3c0.2,0.4,0.5,1.3,0.6,1.7l0,0
	c0,0.1,0,0.1,0,0.2c0,0.1,0.2,0.1,0.2,0c0,0,0-0.1,0-0.2l0,0c0.1-0.4,0.4-1.2,0.3-1.7c0.2,0,0.3,0.3,0.4,0.6
	C15.9,14.4,15.7,14.8,15.6,15.1z M21,9.5c-0.1,0.1-0.5,0.3-1,0.3c0.1,0.1,0.3,0.2,0.4,0.2c-0.1,0-0.3,0-0.5,0
	c0.1,0.1,0.2,0.3,0.2,0.4c-0.1,0-0.3,0-0.4,0c0.1,0.1,0.1,0.2,0.2,0.3c-0.1,0-0.3,0-0.4,0c0,0.1,0.1,0.2,0.1,0.3c-0.1,0-0.2,0-0.2,0
	c-0.5,0.6-1.1,1.3-2.3,1.3c0,0.1,0.1,0.2,0.1,0.2c0.2,0,0.5,0,0.8-0.1c0.2,0.2,0.5,0.7,0.7,1.5c0.1,0.1,0.3,0.5,0.5,0.9
	c-0.2,0.1-0.4,0.2-0.7,0.2c-0.1-0.6-0.4-0.6-0.6-1.1c-0.2,0-0.5-0.1-0.6-0.4h-0.3c-0.1,0.6,0.1,1.1,0.2,1.6c0,0.2,0.1,0.4,0.1,0.6
	c0,0.3-0.1,1.7-0.1,2.3c0.3,0,0.5,0.1,0.4,0.3c-0.4-0.1-1.1,0-1.4,0.5c-0.1,0-0.1-0.3,0-0.3c-0.2-0.2-0.3-0.3-0.6-0.2
	c0.1-0.2,0.4-0.3,1.3-0.1c0.1-0.3,0.2-2.2,0.1-2.6c0-0.1,0-0.2-0.1-0.4l0,0c-0.2-0.5-0.7-1.4-0.8-2c-0.1,0-0.4,0-0.4,0
	c-0.2-0.2-0.6-0.8-0.7-1.4c-0.1-0.2-0.4-1.1,0.3-1.6c0.5-0.3,1.6-0.8,1.6-1.2c0-0.2-0.4-0.4-0.6-0.5c-0.1-0.1-0.1-0.1,0-0.3
	c0.7-0.6,1.4,0,1,0.8c-0.3,0.6-2,1.1-1.6,2.1c0.4,0,0.5,0.2,0.7,0.3c0.3-0.1,1.6-0.7,1.8-2.4c0.3-0.2,0.7-0.4,1-0.7
	c0.1,0.4,0,3.1-2.4,3.7c0.1,0.2,0.6,0.3,0.9-0.1c0.3,0.1,0.7-0.2,0.7-0.4c0.3,0,0.6-0.3,0.5-0.6c0.3-0.1,0.5-0.5,0.3-0.9
	c0.3-0.1,0.4-0.5,0.3-0.8c0.2-0.2,0.3-0.5,0.1-0.8c0.1-0.2,0.1-0.4,0-0.5c0.4-0.4,1-0.9,1.3-1.5c0,0.4-0.2,0.8-0.5,1.2
	c0.5-0.3,0.6-0.4,0.9-0.6c-0.1,0.5-0.6,0.9-0.8,1.2c0.3-0.1,0.7-0.3,1-0.5c-0.3,0.5-0.7,0.9-1,1c0.4-0.1,0.7-0.1,0.9-0.2
	C21,8.7,20.6,9,20.1,9.1c0.4,0,0.7-0.1,1-0.1c-0.2,0.3-0.6,0.5-1,0.5C20.5,9.5,20.6,9.6,21,9.5z"/>
<path d="M18.3,9.3c0,0.5-0.4,1.3-0.9,1.7l0.3,0c0.3-0.3,0.9-0.9,0.9-1.9C18.7,9.1,18.5,9.2,18.3,9.3L18.3,9.3z"/>
<path d="M16.6,8.2c0-0.1,0-0.2,0.2-0.2c0.1,0,0.1,0.1,0.2,0.1c0.1,0,0.1,0,0,0.1c0,0.1,0,0.2-0.2,0.2C16.7,8.3,16.7,8.3,16.6,8.2
	C16.5,8.3,16.5,8.2,16.6,8.2L16.6,8.2z"/>
<path d="M18.2,14.2c0.1,0,0.3,0,0.4,0c0.1,0.1,0.2,0.2,0.2,0.3c-0.2,0-0.3,0.1-0.5,0C18.3,14.5,18.3,14.4,18.2,14.2L18.2,14.2z"/>
<path d="M18,19.1c-0.1,0-0.3,0.1-0.6,0.1h-0.3c-1.1,0-2.3-0.4-3-1.1c1-1-0.2-1.8-0.8-1c-0.2,0.3-0.4,0.5-0.5,0.7
	c-0.1,0.2,0,0.4,0.2,0.7c0.1,0.2,0.5,0.4,0.7,0.6H8.1c0.3-0.2,0.6-0.4,0.7-0.6c0.2-0.3,0.3-0.5,0.2-0.7c-0.1-0.3-0.3-0.4-0.5-0.7
	c-0.6-0.8-1.8,0-0.8,1c-0.7,0.7-1.9,1.1-3,1.1H4.5c-0.3,0-0.4,0-0.6-0.1c-0.2-0.1-0.3,0-0.2,0.4c0.1,0.3,0.2,0.7,0.2,1H18
	c0-0.3,0.1-0.7,0.2-1C18.3,19.1,18.3,19,18,19.1L18,19.1z M13.6,17.1c0.2-0.2,0.5-0.2,0.6,0c0.1,0.2-0.1,0.5-0.3,0.7
	C13.6,17.5,13.5,17.2,13.6,17.1L13.6,17.1z M13.2,18.3C13,18.1,13,18,13.1,17.9c0.1-0.1,0.2-0.3,0.3-0.5c0.2,0.8,1.4,1.5,2.2,1.7
	h-1.4C13.9,19,13.4,18.7,13.2,18.3L13.2,18.3z M7.7,17.2c0.1-0.2,0.4-0.3,0.6,0c0.1,0.1,0,0.4-0.3,0.7C7.8,17.7,7.6,17.4,7.7,17.2
	L7.7,17.2z M8.5,17.4c0.1,0.2,0.2,0.3,0.3,0.5c0.1,0.2,0,0.2-0.1,0.4C8.5,18.7,8,19,7.7,19.2H6.3C7.2,18.9,8.3,18.2,8.5,17.4
	L8.5,17.4z M17.8,20.3H4.1c-0.1-0.4-0.1-0.7-0.2-0.9H18C17.9,19.6,17.8,19.9,17.8,20.3L17.8,20.3z"/>
<path d="M6,20C6,20,6,20,6,20l0,0.1c0,0,0,0,0,0c0,0,0,0,0,0c0,0,0,0,0,0c0.1,0,0.1,0,0.2,0c0,0,0,0,0,0s0,0,0,0c0,0,0,0,0,0
	c0,0,0,0-0.1-0.1c-0.1-0.1-0.2-0.5-0.2-0.5c0,0,0,0,0,0c0,0,0,0,0,0l-0.2,0.5c0,0,0,0.1-0.1,0.1c0,0,0,0,0,0c0,0,0,0,0,0
	c0,0,0,0,0,0c0,0,0.1,0,0.1,0c0,0,0.1,0,0.1,0c0,0,0,0,0,0c0,0,0,0,0,0h0c0,0,0,0,0,0c0,0,0,0,0,0l0,0c0,0,0,0,0,0H6L6,20z M5.8,20
	C5.8,20,5.8,20,5.8,20l0.1-0.3c0,0,0,0,0,0c0,0,0,0,0,0L6,20c0,0,0,0,0,0H5.8L5.8,20z"/>
<path d="M6.4,19.9c0,0.1,0,0.2,0.1,0.2c0.1,0.1,0.1,0.1,0.2,0.1c0.1,0,0.1,0,0.2-0.1c0.1-0.1,0.1-0.2,0.1-0.2v-0.1
	c0-0.1,0-0.1,0-0.2c0,0,0,0,0,0c0,0,0,0,0,0c0,0,0,0,0,0c0,0,0,0,0,0c0,0-0.1,0-0.1,0c0,0-0.1,0-0.1,0c0,0,0,0,0,0c0,0,0,0,0,0
	c0,0,0,0,0,0c0,0,0,0,0,0c0,0,0,0,0,0.2v0.1c0,0.1,0,0.2,0,0.2c0,0-0.1,0-0.1,0c0,0-0.1,0-0.1,0c0,0-0.1-0.1-0.1-0.2v-0.1
	c0-0.1,0-0.1,0-0.2c0,0,0,0,0,0c0,0,0,0,0,0c0,0,0,0,0,0c0,0,0,0,0,0c0,0-0.1,0-0.1,0c0,0-0.1,0-0.1,0c0,0,0,0,0,0c0,0,0,0,0,0
	c0,0,0,0,0,0c0,0,0,0,0,0c0,0,0,0,0,0.2V19.9L6.4,19.9z"/>
<path d="M7.2,19.9c0,0.1,0,0.1,0,0.2c0,0,0,0,0,0c0,0,0,0,0,0c0,0,0,0,0,0c0,0,0,0,0,0c0,0,0.1,0,0.1,0c0,0,0.1,0,0.2,0
	c0.1,0,0.2-0.1,0.3-0.1c0,0,0.1-0.1,0.1-0.2c0-0.1,0-0.2-0.1-0.2c-0.1-0.1-0.2-0.1-0.3-0.1c0,0-0.1,0-0.1,0c0,0-0.1,0-0.1,0
	c0,0,0,0,0,0c0,0,0,0,0,0c0,0,0,0,0,0c0,0,0,0,0,0c0,0,0,0,0,0.2V19.9L7.2,19.9z M7.3,19.8c0-0.1,0-0.1,0-0.2c0,0,0,0,0,0
	c0,0,0,0,0.1,0c0.1,0,0.2,0,0.2,0.1c0,0,0.1,0.1,0.1,0.2c0,0.1,0,0.2-0.1,0.2c0,0-0.1,0.1-0.2,0.1c-0.1,0-0.1,0-0.1,0c0,0,0,0,0-0.1
	c0,0,0-0.1,0-0.2V19.8L7.3,19.8z"/>
<path d="M8.3,20C8.3,20,8.3,20,8.3,20l0,0.1c0,0,0,0,0,0c0,0,0,0,0,0c0,0,0,0,0,0c0.1,0,0.1,0,0.2,0c0,0,0,0,0,0s0,0,0,0
	c0,0,0,0,0,0c0,0,0,0-0.1-0.1c-0.1-0.1-0.2-0.5-0.2-0.5c0,0,0,0,0,0c0,0,0,0,0,0L8,20.1c0,0,0,0.1-0.1,0.1c0,0,0,0,0,0c0,0,0,0,0,0
	c0,0,0,0,0,0c0,0,0.1,0,0.1,0c0,0,0.1,0,0.1,0c0,0,0,0,0,0c0,0,0,0,0,0h0c0,0,0,0,0,0c0,0,0,0,0,0l0,0c0,0,0,0,0,0H8.3L8.3,20z
	 M8.1,20C8.1,20,8.1,20,8.1,20l0.1-0.3c0,0,0,0,0,0s0,0,0,0L8.3,20c0,0,0,0,0,0H8.1L8.1,20z"/>
<path d="M9.1,19.6C9.1,19.6,9.2,19.6,9.1,19.6C9.2,19.6,9.2,19.6,9.1,19.6c0.1-0.1,0.1-0.1,0.1-0.1C9.2,19.6,9.2,19.6,9.1,19.6
	C9.2,19.6,9.1,19.6,9.1,19.6C9.1,19.6,9.1,19.6,9.1,19.6C9,19.6,9,19.6,9.1,19.6C9,19.6,9,19.6,9.1,19.6C9.1,19.6,9.1,19.6,9.1,19.6
	C9.1,19.6,9.1,19.6,9.1,19.6C9.1,19.6,9.1,19.6,9.1,19.6c-0.1,0-0.1,0.1-0.2,0.1c0-0.1-0.1-0.1-0.1-0.2c0,0,0,0,0,0c0,0,0,0,0,0
	c0,0,0,0,0,0c0,0,0,0,0,0c0,0,0,0,0,0c0,0-0.1,0-0.1,0c0,0-0.1,0-0.1,0c0,0,0,0,0,0c0,0,0,0,0,0c0,0,0,0,0,0c0,0,0,0,0.1,0.1
	l0.1,0.2l-0.2,0.2c0,0,0,0.1-0.1,0.1c0,0,0,0,0,0c0,0,0,0,0,0c0,0,0,0,0,0h0c0,0,0.1,0,0.1,0c0,0,0.1,0,0.1,0h0c0,0,0,0,0,0
	c0,0,0,0,0,0c0,0,0,0,0,0c0,0,0,0,0,0c0,0,0,0,0,0l0.1-0.2C9,20,9,20.1,9.1,20.1c0,0,0,0,0,0c0,0,0,0,0,0c0,0,0,0,0,0
	c0.1,0,0.1,0,0.1,0h0c0,0,0,0,0,0c0,0,0,0,0,0c0,0,0,0,0,0c0,0,0,0,0,0c0,0-0.2-0.2-0.2-0.3L9.1,19.6L9.1,19.6z"/>
<path d="M10.4,20C10.5,20,10.5,20,10.4,20l0,0.1c0,0,0,0,0,0c0,0,0,0,0,0c0,0,0,0,0,0c0.1,0,0.1,0,0.2,0c0,0,0,0,0,0s0,0,0,0
	c0,0,0,0,0,0c0,0,0,0-0.1-0.1c-0.1-0.1-0.2-0.5-0.2-0.5c0,0,0,0,0,0c0,0,0,0,0,0l-0.2,0.5c0,0,0,0.1-0.1,0.1c0,0,0,0,0,0
	c0,0,0,0,0,0c0,0,0,0,0,0c0,0,0.1,0,0.1,0c0,0,0.1,0,0.1,0c0,0,0,0,0,0c0,0,0,0,0,0h0c0,0,0,0,0,0c0,0,0,0,0,0l0,0c0,0,0,0,0,0H10.4
	L10.4,20z M10.2,20C10.2,20,10.2,20,10.2,20l0.1-0.3c0,0,0,0,0,0c0,0,0,0,0,0l0.1,0.3c0,0,0,0,0,0L10.2,20L10.2,20z"/>
<path d="M10.9,19.9c0,0.1,0,0.1,0,0.2c0,0,0,0,0,0c0,0,0,0,0,0c0,0,0,0,0,0c0,0,0,0,0,0c0,0,0.1,0,0.1,0c0,0,0.1,0,0.1,0
	c0,0,0,0,0,0c0,0,0,0,0,0c0,0,0,0,0,0c0,0,0,0,0,0c0,0,0-0.1,0-0.2v-0.3l0.1,0c0.1,0,0.1,0,0.1,0l0,0c0,0,0,0,0,0c0,0,0,0,0,0
	c0,0,0-0.1,0-0.1c0,0,0,0,0,0c0,0,0,0-0.1,0h-0.3c0,0-0.1,0-0.1,0c0,0,0,0,0,0c0,0,0,0,0,0c0,0,0,0.1,0,0.1c0,0,0,0,0,0c0,0,0,0,0,0
	c0,0,0,0,0,0c0,0,0,0,0.1,0l0.1,0V19.9L10.9,19.9z"/>
<path d="M12.3,19.9C12.3,19.9,12.4,19.9,12.3,19.9c0,0,0.1,0,0.1,0c0,0,0,0,0,0c0,0,0,0,0,0c0,0,0,0,0,0c0,0,0,0,0,0c0,0,0,0,0-0.1
	c0,0,0,0,0,0c0,0,0,0,0,0c0,0,0,0,0,0c0,0,0,0,0,0c0,0,0,0,0,0L12.3,19.9C12.3,19.8,12.3,19.8,12.3,19.9v-0.3c0,0,0,0,0,0l0.1,0
	c0,0,0,0,0.1,0c0,0,0,0,0,0c0,0,0,0,0,0c0,0,0,0,0,0c0,0,0-0.1,0-0.1c0,0,0,0,0,0c0,0,0,0,0,0c0,0,0,0,0,0c0,0,0,0,0,0
	c0,0-0.2,0-0.2,0c0,0-0.1,0-0.1,0c0,0,0,0,0,0c0,0,0,0,0,0c0,0,0,0,0,0c0,0,0,0,0,0c0,0,0,0,0,0.2v0.1c0,0.1,0,0.1,0,0.2
	c0,0,0,0,0,0c0,0,0,0,0,0c0,0,0,0,0,0c0,0,0,0,0,0c0,0,0.1,0,0.1,0c0,0,0.1,0,0.1,0c0,0,0,0,0,0c0,0,0,0,0,0c0,0,0,0,0,0
	c0,0,0,0,0,0C12.3,20.1,12.3,20,12.3,19.9L12.3,19.9L12.3,19.9z"/>
<path d="M12.9,19.9c0,0.1,0,0.1,0,0.2c0,0,0,0,0,0c0,0,0,0,0,0c0,0,0,0,0,0c0,0,0,0,0,0c0,0,0.1,0,0.1,0c0,0,0.1,0,0.1,0
	c0,0,0,0,0,0c0,0,0,0,0,0c0,0,0,0,0,0c0,0,0,0,0,0c0,0,0-0.1,0-0.2v-0.1c0-0.1,0-0.1,0-0.2c0,0,0,0,0,0c0,0,0,0,0,0c0,0,0,0,0,0
	c0,0,0,0,0,0c0,0-0.1,0-0.1,0c0,0-0.1,0-0.1,0c0,0,0,0,0,0c0,0,0,0,0,0c0,0,0,0,0,0c0,0,0,0,0,0c0,0,0,0,0,0.2V19.9L12.9,19.9z"/>
<path d="M13.3,19.9c0,0.1,0,0.1,0,0.2c0,0,0,0,0,0c0,0,0,0,0,0c0,0,0,0,0,0c0,0,0,0,0,0c0,0,0.1,0,0.1,0c0,0,0.1,0,0.2,0
	c0.1,0,0.2-0.1,0.3-0.1c0,0,0.1-0.1,0.1-0.2c0-0.1,0-0.2-0.1-0.2c-0.1-0.1-0.2-0.1-0.3-0.1c0,0-0.1,0-0.1,0c0,0-0.1,0-0.1,0
	c0,0,0,0,0,0c0,0,0,0,0,0c0,0,0,0,0,0c0,0,0,0,0,0c0,0,0,0,0,0.2V19.9L13.3,19.9z M13.5,19.8c0-0.1,0-0.1,0-0.2c0,0,0,0,0,0
	c0,0,0,0,0.1,0c0.1,0,0.2,0,0.2,0.1c0,0,0.1,0.1,0.1,0.2c0,0.1,0,0.2-0.1,0.2c0,0-0.1,0.1-0.2,0.1c-0.1,0-0.1,0-0.1,0c0,0,0,0,0-0.1
	c0,0,0-0.1,0-0.2V19.8L13.5,19.8z"/>
<path d="M14.2,19.9c0,0.1,0,0.1,0,0.2c0,0,0,0,0,0c0,0,0,0,0,0c0,0,0,0,0,0c0,0,0,0,0,0c0,0,0.1,0,0.1,0c0,0,0.1,0,0.2,0
	c0,0,0,0,0,0c0,0,0-0.1,0-0.1c0,0,0,0,0,0c0,0,0,0,0,0c0,0,0,0.1,0,0.1c0,0-0.1,0-0.1,0c-0.1,0-0.1,0-0.1-0.1c0,0,0-0.1,0-0.1v-0.1
	c0,0,0,0,0,0c0,0,0.1,0,0.1,0c0,0,0,0,0,0c0,0,0,0,0,0c0,0,0,0,0,0c0,0,0,0,0,0c0,0,0,0,0-0.1c0,0,0-0.1,0-0.1c0,0,0,0,0,0
	c0,0,0,0,0,0c0,0,0,0,0,0c0,0-0.1,0-0.1,0c0,0,0,0,0,0v-0.2c0,0,0,0,0,0c0,0,0.1,0,0.1,0c0,0,0,0,0.1,0c0,0,0,0,0,0c0,0,0,0,0,0
	c0,0,0,0,0,0c0,0,0,0,0-0.1c0,0,0,0,0-0.1c0,0,0,0,0,0c0,0,0,0,0,0c0,0,0,0,0,0c0,0-0.2,0-0.2,0c0,0-0.1,0-0.1,0c0,0,0,0,0,0
	c0,0,0,0,0,0c0,0,0,0,0,0c0,0,0,0,0,0c0,0,0,0,0,0.2V19.9L14.2,19.9z"/>
<path d="M14.9,19.8c0-0.1,0-0.1,0-0.2c0,0,0,0,0,0c0,0,0,0,0,0c0,0,0,0,0,0c0,0,0,0,0,0c0,0-0.1,0-0.1,0c0,0-0.1,0-0.1,0
	c0,0,0,0,0,0c0,0,0,0,0,0c0,0,0,0,0,0c0,0,0,0,0,0c0,0,0,0,0,0.2v0.1c0,0.1,0,0.1,0,0.2c0,0,0,0,0,0c0,0,0,0,0,0c0,0,0,0,0,0
	c0,0,0,0,0,0c0,0,0.1,0,0.1,0c0.1,0,0.1,0,0.2,0c0,0,0,0,0.1,0c0,0,0-0.1,0-0.1c0,0,0,0,0,0c0,0,0,0,0,0c0,0,0,0,0,0
	c0,0-0.1,0-0.1,0c-0.1,0-0.1,0-0.1,0c0,0,0-0.1,0-0.2V19.8L14.9,19.8z"/>
<path d="M15.4,19.9c0,0.1,0,0.1,0,0.2c0,0,0,0,0,0c0,0,0,0,0,0c0,0,0,0,0,0c0,0,0,0,0,0c0,0,0.1,0,0.1,0c0,0,0.1,0,0.1,0
	c0,0,0,0,0,0c0,0,0,0,0,0c0,0,0,0,0,0c0,0,0,0,0,0c0,0,0-0.1,0-0.2v-0.1c0-0.1,0-0.1,0-0.2c0,0,0,0,0,0c0,0,0,0,0,0c0,0,0,0,0,0
	c0,0,0,0,0,0c0,0-0.1,0-0.1,0c0,0-0.1,0-0.1,0c0,0,0,0,0,0c0,0,0,0,0,0c0,0,0,0,0,0c0,0,0,0,0,0c0,0,0,0,0,0.2V19.9L15.4,19.9z"/>
<path d="M16,20.2c0,0,0.1,0,0.1,0c0.1,0,0.1-0.1,0.1-0.1c0-0.1,0-0.1-0.1-0.2l0,0C16,19.7,16,19.7,16,19.7c0,0,0-0.1,0.1-0.1
	c0.1,0,0.1,0,0.1,0c0,0,0,0,0,0.1c0,0,0,0,0,0c0,0,0,0,0,0c0-0.1,0-0.1,0-0.1c0,0,0,0,0,0c0,0-0.1,0-0.1,0c-0.1,0-0.2,0.1-0.2,0.2
	c0,0.1,0,0.1,0.1,0.2l0,0c0.1,0.1,0.1,0.1,0.1,0.1C16.1,20.1,16.1,20.1,16,20.2c0,0-0.1-0.1-0.1-0.1c0,0,0,0,0,0c0,0,0,0,0,0
	c0,0,0,0,0,0c0,0,0,0.1,0,0.1c0,0,0,0,0,0C15.9,20.2,16,20.2,16,20.2L16,20.2z"/>
<path d="M13.6,3.6c0-0.1-0.2-0.2-0.3-0.2c-0.1,0-0.2,0.2-0.3,0.3c-0.1-0.6-0.1-0.8,0-1.1c0.2,0.4,0.6,0.5,0.7,0.5
	c-0.6-0.5-0.5-0.9-0.7-0.9c-0.1,0-0.2,0-0.2,0c-0.2,0-0.2,0.4-0.3,0.6c-0.1-0.2-0.3-0.5-0.5-0.7c-0.2-0.6-0.5-0.4-0.8-0.7
	c0.2,0.3,0,0.5,0.5,0.7c0.1,0.1,0.3,0.3,0.4,0.5c-0.1,0.1-0.1,0.2-0.2,0.2c-0.1,0.1-0.1,0.4-0.3,0.7C12,3.4,12.1,3.2,12.2,3
	c0.9,0.7,0.2,2.4,0,2.7c-0.2-0.1-0.4-0.2-0.7-0.2l0-0.1l-0.2-0.7h0.1c0.1,0,0.1-0.1,0.1-0.1l0.6,0.2l0.3,0.1l-0.2-0.2l-0.3-0.4
	l0.3-0.4l0.2-0.2l-0.3,0.1l-0.5,0.2c0-0.1-0.1-0.2-0.3-0.2l0.2-0.6l0.1-0.3L11.3,3L11,3.3L10.6,3l-0.2-0.2l0.1,0.3l0.2,0.6
	c-0.1,0-0.2,0.1-0.3,0.2L9.8,3.8L9.5,3.7l0.2,0.2L10,4.3L9.7,4.7L9.5,4.9l0.3-0.1l0.6-0.2c0,0.1,0,0.1,0.1,0.1h0.1l-0.2,0.7l0,0.1
	c-0.2,0-0.5,0.1-0.7,0.3C9.1,4.6,9.3,3.5,9.8,3.1c0,0.2,0.2,0.6,0.3,0.6C10,3.5,10.1,3,10,2.9C9.9,2.8,9.8,2.8,9.6,2.8
	c0.1-0.2,0.2-0.4,0.5-0.7c0.3-0.2,0.4-0.6,0.5-0.8C10.3,1.5,10,1.7,9.9,2C9.8,2.2,9.6,2.4,9.5,2.6c0-0.3-0.2-0.4-0.4-0.4
	C8.5,2.3,8.5,2.8,8,3.1c0.4,0.1,1-0.7,1.2-0.6C9.1,3,9,3.4,9,3.7C8.9,3.6,8.9,3.5,8.8,3.5c-0.1,0-0.3,0-0.4,0.2c0,0.3,0,0.7-0.3,1.3
	c0.4-0.3,0.5-1,0.6-1.2c0.1,0.1,0.2,0.4,0.2,0.6c0,0.5,0.3,1.2,0.6,1.6C9.4,6.2,9.4,6.3,9.4,6.5C9.2,6.6,9.2,6.8,9.3,6.9
	c0.1,0.1,0.3,0.2,0.5,0.1l0.1,0C10,7,10.4,6.8,11,6.8c0.5,0,0.9,0.2,1.2,0.3l0.1,0c0.2,0.1,0.4,0,0.5-0.1c0.1-0.1,0-0.3-0.1-0.5
	c0-0.2,0-0.3-0.1-0.5l0,0c0.4-0.6,0.5-1.8,0.8-2.2c0,0.4,0.3,0.8,0.5,0.8C13.6,4.4,13.6,3.8,13.6,3.6L13.6,3.6z M11.6,4.1L11.9,4
	l-0.2,0.2l0,0.1l0,0.1l0.2,0.2l-0.4-0.1C11.5,4.4,11.5,4.3,11.6,4.1L11.6,4.1z M10,4.6l0.2-0.2l0-0.1l0-0.1L10,4l0.3,0.1
	c0,0.1,0,0.2,0.1,0.3L10,4.6L10,4.6z M11.3,4.5H11l0-0.5C11.5,3.8,11.4,4.2,11.3,4.5L11.3,4.5z M11.2,5.2L11,5.1L11,5l-0.1,0
	l-0.2,0.2l0.1-0.5h0.3L11.2,5.2L11.2,5.2z M10.9,3.5L10.9,3.5H11l0.2-0.2l-0.1,0.4c0,0,0,0,0,0c0-0.1-0.1-0.1-0.1-0.1
	s-0.1,0-0.1,0.1c0,0,0,0,0,0l-0.1-0.4L10.9,3.5L10.9,3.5z M10.6,4.5c-0.1-0.3-0.2-0.6,0.2-0.5l0,0.5H10.6L10.6,4.5z M11,5.3l0.3,0.2
	c-0.1,0-0.2,0-0.3,0s-0.2,0-0.3,0L11,5.3L11,5.3z M9.7,6.9L9.7,6.9c-0.2,0.1-0.2,0-0.2,0c0,0,0-0.1,0.1-0.2c0,0,0,0,0,0l0.2,0.2
	C9.8,6.8,9.7,6.8,9.7,6.9L9.7,6.9z M10.4,6.6l-0.2-0.2c0.2,0,0.4-0.1,0.6-0.1l0.1,0.3C10.7,6.6,10.6,6.6,10.4,6.6L10.4,6.6z
	 M11.7,6.7l-0.1-0.3c0.2,0,0.4,0.1,0.6,0.2l0.1,0.3C12.1,6.8,11.9,6.7,11.7,6.7L11.7,6.7z M11,6.1c-0.4,0-0.9,0.1-1.3,0.3
	c0-0.1,0-0.2,0.1-0.2C10,5.9,10.5,5.8,11,5.8c0.4,0,1,0.1,1.2,0.3c0.1,0.1,0.1,0.1,0.1,0.2C11.9,6.2,11.4,6.1,11,6.1L11,6.1z"/>
<path d="M7.9,12.8c0.1-0.5,0-0.5-0.2-0.6C7.7,12,7.5,12,7.3,11.9c-0.1-0.1-0.2-0.2-0.4-0.4c0-0.5,0.6-1.1,0.8-1l0-0.2
	c-0.2-0.1-0.7,0.1-1,1c0,0-0.1-0.1-0.1-0.1c0-0.2,0-0.4-0.2-0.5c0.1-0.1,0.5-0.3,0.7-0.4C7.3,10,7.4,9.9,7.6,10c0,0,0.1-0.1,0.1-0.1
	C7.5,9.6,7.2,9.7,7,9.9c-0.2,0.1-0.5,0.4-0.8,0.5c-0.4-0.3-0.9-0.6-1.3-1c0,0,0.5,0,0.8-0.1c0.1,0,0.2-0.3,0.2-0.6
	c-0.1,0-0.2-0.1-0.3-0.2C5.4,8.5,5.2,8.4,5.2,8.4C4.9,8.2,4.8,8.1,4.4,8c0-0.2,0.1-0.1,0.2-0.3C4.9,7.5,5,7.4,5.1,7.2
	c0.1-0.1,0-0.4-0.2-0.1C4.9,7.3,4.7,7.4,4.5,7.5c0-0.1,0-0.2,0-0.2C5.1,6.8,5,6.5,5,6.1c0-0.2-0.2-0.3-0.2-0.1
	c0,0.1,0.1,0.5-0.3,0.7c0-0.2-0.1-0.2-0.1-0.3C4.8,6,4.6,5.5,4.5,5.3c-0.1-0.1-0.3-0.2-0.2,0c0.1,0.2,0.2,0.6,0,0.8
	C4.1,6.1,4,6,4,5.9c0-0.5,0-0.8-0.1-1c-0.1-0.2-0.2-0.3-0.2,0c0,0.3,0,0.6,0,0.7c0,0-0.4-0.3-0.6-0.4C3,5,2.8,5,3,5.2
	c0.2,0.2,0.6,0.5,0.6,0.6C3.6,6,3.2,5.7,3,5.6C2.9,5.6,2.8,5.6,3,5.8C3.2,6,3.4,6.1,3.8,6.2c0.4,0.1,0.6,0.7,0.5,1.5
	c0,0-0.1,0-0.1,0C4.1,7.4,4,7.1,4,6.9C3.9,6.7,3.7,6.7,3.8,7c0.1,0.2,0.1,0.5,0,0.8C3.5,7.7,3.4,7.6,3.2,7.5c0-0.2,0.1-0.4,0.1-0.6
	c0-0.2-0.1-0.4-0.2-0.1C3,7.1,3,7.2,2.9,7.4c-0.1,0-0.2-0.1-0.2-0.1c0,0,0-0.3,0-0.5c0-0.2-0.1-0.2-0.2,0c0,0.1-0.1,0.2-0.1,0.4
	C2.3,7,2.2,6.9,2.2,6.8c0-0.3,0.1-0.5,0.1-0.7C2.3,6,2.2,5.7,2.1,6C2.1,6.2,2,6.4,2,6.6c-0.1,0-0.2-0.5-0.3-0.8c0-0.1-0.1-0.3-0.2,0
	c0,0.3,0,0.7,0.1,0.9c-0.2,0-0.3-0.3-0.4-0.5C1.2,6,1.1,6.1,1.1,6.2C1.2,6.8,1.7,7,2,7.1c0.3,0.5,1,0.7,1.6,1C2.8,8,2.6,8.3,2.3,8.1
	c0,0.3,0.2,0.4,0.3,0.5c0.1,0,0.2,0.1,0.2,0.1C2.8,9,3.2,9,3.4,9c-0.1,0.7,0,1.5,0.6,2.2c0,0.3,0,0.8,0,1.1
	c-0.5,0.4-0.9,1.4-1.1,1.9c-0.1,0.4-0.3,0.7-0.6,0.8c0.2,0.2,0.6,0.1,0.8,0c0,0.2,0.1,0.4,0.1,0.5C3.1,15.6,3,15.7,3,16
	c-0.2,0-0.3,0.1-0.3,0.2c-0.1,0.1,0,0.4,0.1,0.5c0.2,0.4,0,1.4,0,1.6c0.1,0,0.2,0,0.3-0.1c0,0,0.2,0.1,0.2,0.3
	c0,0.1-0.1,0.4,0.1,0.4c0.1,0,0.6,0,0.7-0.1c-0.1-0.1-0.1-0.2-0.2-0.3c0-0.1,0-0.3-0.1-0.4c-0.1-0.1-0.2-0.3-0.3-0.4
	c0-0.2,0-0.9,0-1.2c0.1-0.1,1.1-0.8,1.3-1.4c0.2,0.1,0.1,0.5,0.1,1.1c0,0.2,0.2,0.2,0.3,0.3c0.3,0,0.6,0.3,1,0.9
	c0.1-0.1,0.2-0.2,0.2-0.2c0.1,0.1,0.1,0.2,0.1,0.3c0,0.1,0.4,0.1,0.6,0.1c0.1,0,0.1,0,0.2-0.1c-0.3-0.5-0.5-0.9-0.9-1.2
	C6.2,16,6,15.9,5.8,15.8c0.1-0.3,0.5-1.5,0.3-1.9c-0.1-0.1-0.4-0.3-0.7-0.2c0.3-0.4,0.9-1.1,1-1.3c0.1,0.1,0.4,0,0.7,0.1
	c0.1,0,0.4,0.4,0.4,0.5c0,0.2,0,0.5-0.1,1.1c0.1,0,0.1,0,0.2-0.1c0,0.2,0,0.3-0.2,0.5c0,0.2,0.1,0.5,0.2,0.6c0.1-0.4,0.6-1,0.6-1.3
	C8.1,13.4,7.9,13,7.9,12.8L7.9,12.8z M3.1,8.6C3,8.5,3,8.4,3,8.4c0.3-0.2,0.6,0,0.8-0.2c0.1,0.1,0.3,0,0.4,0c0.3,0,0.7,0.3,0.9,0.4
	c0.1,0.1,0.2,0.1,0.3,0.1C5.3,9,5.4,9,5.5,9.1c0,0.1-0.1,0.1-0.3,0.1c-0.2,0-0.5,0-0.6,0C4,9.5,3.8,8.9,3.8,8.6c0,0,0,0,0,0
	c0,0,0,0,0,0C3.4,8.8,3.2,8.7,3.1,8.6L3.1,8.6z M5.8,14c0.2,0.3-0.1,1.5-0.2,1.7c-0.1,0.2,0.1,0.3,0.2,0.3c0.5,0.1,1,0.6,1.1,0.9
	l-0.2,0.1c-0.4-0.5-0.5-0.3-0.5-0.2c-0.1-0.2-0.5-0.6-0.8-0.7c-0.3,0-0.3-0.2-0.2-0.3c0-0.3,0-0.6,0-0.8c0-0.2-0.2-0.4-0.3-0.4
	c0.1-0.1,0-0.5,0.3-0.7C5.4,13.8,5.7,13.9,5.8,14L5.8,14z M7.7,14.3C7.7,14.3,7.7,14.3,7.7,14.3c0-0.3,0-0.5,0-0.5
	c-0.1,0-0.1,0-0.1,0c0.1-0.5,0-0.7,0-0.9c-0.1-0.2-0.3-0.4-0.4-0.5c-0.1-0.1-0.2-0.2-0.5-0.2C6.1,11.7,6,12,5.6,11.9
	c-0.1-0.1-0.2-0.2-0.2-0.2l-0.2,0.1c0,0,0.2,0.2,0.2,0.3c0,0,0.4-0.1,0.6,0C6,12.6,5.5,13,5,13.5c-0.5,0.6-0.5,0.7-0.5,1.1
	c0,0.5-0.7,1.3-1.2,1.6c0,0.1-0.1,1.3,0,1.4c0,0.1,0.2,0.2,0.3,0.4c0,0.1,0,0.2,0.1,0.4c-0.1,0-0.1,0-0.2,0c0-0.2-0.2-0.4-0.4-0.5
	c0.1-0.6,0.1-1-0.1-1.6c0-0.1,0.3-0.2,0.3-0.2s0.1-0.5,0.4-0.7c-0.2-0.5-0.2-1.2-0.2-1.2S3.2,14.4,3,14.5c0.5-1.6,0.6-1.1,1.2-2.3
	c0.4-1.9-0.7-2.3-0.5-2.9c0.4,0.4,0.6,0.2,0.9,0.2c0.3,0.2,0.7,0.8,1.1,0.9c0.6,0.2,0.6,0.8,0.5,1c0.3,0,0.5,0.1,0.6,0.2
	c0.4,0.7,0.7,0.5,0.9,0.7c0.1,0.1,0,0.5,0.1,0.8c0.1,0.2,0.1,0.5,0.1,0.6C7.9,13.9,7.8,14.1,7.7,14.3L7.7,14.3z"/>
<path d="M4.5,8.7c0.1,0,0.2-0.1,0.3,0c0,0-0.1,0-0.1-0.1c0,0,0,0,0,0c0-0.1-0.1-0.2-0.2-0.2c0,0.1-0.2,0.2-0.3,0.2c0,0,0.1,0,0.1,0
	C4.3,8.6,4.3,8.8,4.5,8.7L4.5,8.7z"/>
<path d="M14.3,9.8H11H7.7H7.5v0.1v2.4c0,0,0.1,0.1,0.1,0.1c0.1,0.1,0,0.5,0.1,0.8c0,0,0,0,0,0h3v4.9C10.5,18,9.8,17.7,9.1,17
	c-0.8-0.8-1.3-1.8-1.3-2.9c0,0.1,0,0.1-0.1,0.2c0,0-0.1,0-0.1-0.1c0.1-0.3,0.1-0.4,0.1-0.5c-0.1,0-0.1,0-0.1,0c0.1-0.5,0-0.7,0-0.9
	c0,0,0,0,0-0.1v1.1c0,1.3,0.5,2.4,1.4,3.3c0.8,0.8,1.7,1.2,2,1.2l0,0l0,0c0.3-0.1,1.2-0.5,2-1.2c0.9-0.9,1.4-2,1.4-3.3v-0.2
	c-0.1,0.1-0.2,0.2-0.2,0.2c0,1.2-0.4,2.2-1.3,3.1c-0.7,0.6-1.4,1-1.8,1.1v-4.9h3.1v0.4c0.3-0.4,0.2-1.4,0-1.6v0.9H7.8v-3H11h3.2v2.1
	c0.1-0.1,0.2,0,0.2,0.1V9.9V9.8H14.3z"/>
</svg>
