<?xml version="1.0" encoding="utf-8"?>
<!-- Generator: Adobe Illustrator 18.1.0, SVG Export Plug-In . SVG Version: 6.00 Build 0)  -->
<svg version="1.1" id="Layer_1" xmlns="http://www.w3.org/2000/svg" xmlns:xlink="http://www.w3.org/1999/xlink" x="0px" y="0px"
	 viewBox="0 0 136.1 48" enable-background="new 0 0 136.1 48" xml:space="preserve">
<g>
	<g>
		<path d="M62.3,26.6c0,0-0.3,0.2-1,0.2c-0.9,0-1.6-0.5-2-0.8c-0.5-0.4-1.4-0.8-2.3-1.1c-1.7,0-2.8-0.5-3.6-1.6
			c-0.8-1.1-1.3-2.5-1.3-4.1c0-2.4,0.9-4.3,2.5-5.2c0.7-0.4,1.5-0.5,2.3-0.5c3,0,4.8,2.2,4.8,5.7c0,2.4-0.9,4.2-2.2,5.1
			c0.3,0.1,0.7,0.4,1,0.6c0.4,0.2,0.9,0.5,1.4,0.5c0.5,0,1-0.1,1-0.1L62.3,26.6z M58.8,16.6c-0.2-0.6-0.8-1.4-2-1.4
			c-0.8,0-1.4,0.4-1.7,1c-0.4,0.7-0.6,1.7-0.6,3c0,1.9,0.3,3.1,1,3.6c0.4,0.3,0.8,0.4,1.3,0.4c1.6,0,2.2-1.2,2.2-4
			C59.1,18,59,17.2,58.8,16.6z"/>
		<path d="M68.7,24.9c-0.3-0.2-0.5-0.5-0.6-0.8c-0.5,0.5-1.3,0.8-2.2,0.8c-1.2,0-2.1-0.5-2.4-1.3c-0.1-0.4-0.2-0.8-0.2-1.6v-5.3
			l2.1-0.4v5.3c0,0.7,0.1,1.1,0.2,1.3c0.1,0.2,0.4,0.4,0.8,0.4c0.5,0,1.2-0.4,1.3-0.8v-5.8l2-0.4v6.3c0,0.5,0.2,1.1,0.5,1.5
			L68.7,24.9z"/>
		<path d="M73.8,21.3L73.8,21.3c0,1.3,0.6,2,1.7,2c0.7,0,1.4-0.3,2.1-0.8l0.8,1.3c-0.9,0.8-1.9,1.1-3.1,1.1c-2.4,0-3.9-1.7-3.9-4.2
			c0-1.5,0.3-2.4,1-3.2c0.7-0.8,1.5-1.1,2.6-1.1c0.9,0,1.8,0.3,2.4,0.9c0.8,0.8,1.1,1.9,1.1,3.6v0.5H73.8z M76.4,19.6
			c0-0.6-0.1-0.9-0.3-1.2c-0.2-0.3-0.5-0.5-0.9-0.5c-0.8,0-1.3,0.6-1.3,1.8v0L76.4,19.6L76.4,19.6z"/>
		<path d="M81.9,21.3L81.9,21.3c0,1.3,0.6,2,1.7,2c0.7,0,1.4-0.3,2.1-0.8l0.8,1.3c-0.9,0.8-1.9,1.1-3.1,1.1c-2.4,0-3.9-1.7-3.9-4.2
			c0-1.5,0.3-2.4,1-3.2c0.7-0.8,1.5-1.1,2.6-1.1c0.9,0,1.8,0.3,2.4,0.9c0.8,0.8,1.1,1.9,1.1,3.6v0.5H81.9z M84.5,19.6
			c0-0.6-0.1-0.9-0.3-1.2c-0.2-0.3-0.5-0.5-0.9-0.5c-0.8,0-1.3,0.6-1.3,1.8v0L84.5,19.6L84.5,19.6z"/>
		<path d="M92.6,24.7v-5.3c0-0.9-0.2-1.2-0.7-1.2c-0.4,0-1,0.3-1.5,0.7v5.8h-2.1v-5.9c0-0.7-0.1-1.4-0.3-1.9l1.9-0.5
			c0.2,0.3,0.3,0.7,0.3,1c0.3-0.2,0.6-0.4,0.9-0.6c0.4-0.2,1-0.4,1.5-0.4c0.9,0,1.7,0.5,2,1.2c0.1,0.3,0.2,0.7,0.2,1.2v6H92.6z"/>
		<path d="M99.3,24.9c-1,0-2.1-0.3-3.3-0.9l0.8-1.6c0.7,0.4,1.8,0.9,2.7,0.9c0.6,0,1.1-0.4,1.1-0.9c0-0.6-0.4-0.8-1.3-1l-1-0.2
			c-0.5-0.1-1.2-0.5-1.5-0.8c-0.3-0.4-0.5-0.9-0.5-1.5c0-1.6,1.3-2.7,3.2-2.7c1.3,0,2.2,0.4,2.9,0.8l-0.7,1.4
			c-0.8-0.4-1.4-0.6-2-0.6c-0.6,0-1,0.3-1,0.8c0,0.4,0.3,0.6,1,0.8l1,0.3c1,0.3,1.3,0.6,1.6,0.9c0.3,0.4,0.4,0.8,0.4,1.4
			C102.8,23.8,101.4,24.9,99.3,24.9z"/>
		<path d="M106.5,24.9c-0.9,0-1.6-0.4-1.9-1.1c-0.2-0.4-0.2-0.7-0.2-1.8v-6.1c0-1.1,0-1.7-0.1-2.5l2.2-0.5c0.1,0.4,0.1,1,0.1,2.1
			v6.4c0,1.4,0,1.6,0.1,1.8c0.1,0.1,0.3,0.2,0.4,0.2c0.1,0,0.1,0,0.2,0l0.4,1.3C107.4,24.8,106.9,24.9,106.5,24.9z"/>
		<path d="M114.3,25.1c-0.5-0.2-0.9-0.6-1.2-1c-0.2,0.2-0.3,0.3-0.5,0.4c-0.4,0.3-1,0.4-1.6,0.4c-1.8,0-2.8-0.9-2.8-2.6
			c0-1.9,1.3-2.8,3.9-2.8c0.2,0,0.3,0,0.5,0v-0.3c0-0.9-0.2-1.2-1-1.2c-0.7,0-1.5,0.3-2.4,0.9l-0.9-1.5c0.4-0.3,0.8-0.4,1.3-0.7
			c0.8-0.3,1.5-0.5,2.2-0.5c1.4,0,2.3,0.5,2.6,1.4c0.1,0.3,0.2,0.6,0.1,1.5l0,2.8c0,0.9,0,1.3,0.8,1.8L114.3,25.1z M112.5,21.1
			c-1.5,0-2,0.3-2,1.2c0,0.6,0.4,1.1,0.9,1.1c0.4,0,0.8-0.2,1.1-0.6L112.5,21.1L112.5,21.1z"/>
		<path d="M121.3,24.7v-5.3c0-0.9-0.2-1.2-0.7-1.2c-0.4,0-1,0.3-1.5,0.7v5.8H117v-5.9c0-0.7-0.1-1.4-0.3-1.9l1.9-0.5
			c0.2,0.3,0.3,0.7,0.3,1c0.3-0.2,0.6-0.4,0.9-0.6c0.4-0.2,1-0.4,1.5-0.4c0.9,0,1.7,0.5,2,1.2c0.1,0.3,0.2,0.7,0.2,1.2v6H121.3z"/>
		<path d="M130.6,24.7c-0.1-0.1-0.1-0.3-0.1-0.5c-0.5,0.5-1.2,0.7-1.9,0.7c-2.1,0-3.4-1.6-3.4-4.2c0-2.6,1.4-4.3,3.5-4.3
			c0.6,0,1.1,0.1,1.5,0.5c0-0.2-0.1-0.7-0.1-1.2v-2.8l2.1,0.3v8.5c0,2,0.2,2.7,0.3,3H130.6z M130.1,18.6c-0.4-0.4-0.8-0.5-1.2-0.5
			c-1,0-1.4,0.8-1.4,2.6c0,1.8,0.4,2.3,1.5,2.3c0.4,0,0.8-0.3,1.1-0.5V18.6z"/>
		<path d="M57.1,40.4c-1.4,0-2.5-0.5-3.4-1.4c-0.9-1-1.4-2.4-1.4-4.3c0-2.1,0.6-3.6,1.7-4.6c0.8-0.7,1.7-1,2.9-1
			c1.2,0,2.2,0.4,3,1.1L59.4,31c-0.9-0.6-1.5-0.8-2.4-0.8c-1.3,0-2.3,0.6-2.7,1.9c-0.3,0.8-0.4,1.7-0.4,2.8c0,1.4,0.3,2.6,0.8,3.3
			c0.5,0.7,1.6,1.2,2.7,1.2c0.7,0,1.3-0.1,1.7-0.4v-3.3h-2.2l-0.3-1.1h3.7v5.1C59.4,40,58.2,40.4,57.1,40.4z"/>
		<path d="M65.8,40.4c-2.2,0-3.4-1.6-3.4-4.2c0-2.6,1.3-4.2,3.4-4.2c1.3,0,2.2,0.6,2.7,1.4c0.5,0.7,0.7,1.7,0.7,3
			C69.2,39,67.8,40.4,65.8,40.4z M67.4,34c-0.3-0.7-1-1-1.7-1c-0.7,0-1.4,0.3-1.6,0.9c-0.3,0.5-0.4,1.1-0.4,2.1
			c0,1.1,0.2,2.1,0.5,2.6c0.3,0.5,0.9,0.8,1.6,0.8c0.8,0,1.5-0.4,1.7-1.2c0.2-0.5,0.2-0.9,0.2-1.7C67.8,35.3,67.7,34.5,67.4,34z"/>
		<path d="M74.2,40.3H73l-2.9-8l1.3-0.3l1.9,5.5c0.2,0.7,0.4,1.4,0.4,1.4h0c0,0,0.1-0.6,0.4-1.3l1.8-5.3h1.3L74.2,40.3z"/>
		<path d="M79.7,36.4v0.2c0,0.8,0.1,1.3,0.4,1.7c0.4,0.7,1.2,1,2,1c0.8,0,1.4-0.2,2-0.8l0.5,0.8c-0.7,0.6-1.7,1-2.7,1
			c-2.2,0-3.5-1.6-3.5-4.2c0-1.3,0.3-2.2,1-3c0.6-0.8,1.4-1.1,2.4-1.1c0.9,0,1.6,0.3,2.2,0.9c0.7,0.7,0.9,1.5,0.9,3.4v0.2H79.7z
			 M83,33.7c-0.3-0.4-0.8-0.7-1.4-0.7c-1.1,0-1.8,0.8-1.8,2.5h3.7C83.3,34.6,83.2,34.1,83,33.7z"/>
		<path d="M90.3,33.4c-0.1,0-0.2-0.1-0.4-0.1c-0.5,0-1,0.2-1.3,0.6c-0.4,0.4-0.5,0.6-0.5,1.3v5h-1.2V34c0-1.2-0.3-1.7-0.3-1.7
			l1.2-0.3c0,0,0.3,0.6,0.3,1.3c0.6-0.8,1.4-1.3,2.2-1.3c0.2,0,0.4,0.1,0.4,0.1L90.3,33.4z"/>
		<path d="M96.6,40.2v-5.4c0-0.8-0.1-1.1-0.3-1.3c-0.2-0.2-0.5-0.3-0.9-0.3c-0.6,0-1.6,0.5-2.2,1.1v5.9H92V34c0-1.1-0.3-1.7-0.3-1.7
			l1.2-0.3c0,0,0.3,0.6,0.3,1.2c0.8-0.8,1.7-1.2,2.5-1.2c0.9,0,1.6,0.5,2,1.2c0.1,0.3,0.2,0.6,0.2,0.9v6.1H96.6z"/>
		<path d="M109,40.2v-5.9c0-0.8-0.4-1.2-1-1.2c-0.7,0-1.3,0.5-2.1,1.2v5.8h-1.3v-5.7c0-0.5,0-0.8-0.2-1c-0.2-0.2-0.4-0.3-0.8-0.3
			c-0.6,0-1.2,0.3-2,1.1v6h-1.2V34c0-1.2-0.3-1.7-0.3-1.7l1.2-0.3c0,0,0.3,0.6,0.3,1.2c0.5-0.6,1.5-1.2,2.3-1.2
			c0.8,0,1.6,0.5,1.9,1.3c0.8-0.8,1.7-1.3,2.6-1.3c1.2,0,2,0.9,2,2.2v6H109z"/>
		<path d="M113.7,36.4v0.2c0,0.8,0.1,1.3,0.4,1.7c0.4,0.7,1.2,1,2,1c0.8,0,1.4-0.2,2-0.8l0.5,0.8c-0.7,0.6-1.7,1-2.7,1
			c-2.2,0-3.5-1.6-3.5-4.2c0-1.3,0.3-2.2,1-3c0.6-0.8,1.4-1.1,2.4-1.1c0.9,0,1.6,0.3,2.2,0.9c0.7,0.7,0.9,1.5,0.9,3.4v0.2H113.7z
			 M117,33.7c-0.3-0.4-0.8-0.7-1.4-0.7c-1.1,0-1.8,0.8-1.8,2.5h3.6C117.4,34.6,117.3,34.1,117,33.7z"/>
		<path d="M125.5,40.2v-5.4c0-0.8-0.1-1.1-0.3-1.3c-0.2-0.2-0.5-0.3-0.9-0.3c-0.6,0-1.6,0.5-2.2,1.1v5.9h-1.2V34
			c0-1.1-0.3-1.7-0.3-1.7l1.2-0.3c0,0,0.3,0.6,0.3,1.2c0.8-0.8,1.7-1.2,2.5-1.2c0.9,0,1.6,0.5,2,1.2c0.1,0.3,0.2,0.6,0.2,0.9v6.1
			H125.5z"/>
		<path d="M132.2,33.2h-1.7v5.1c0,0.9,0.2,1.2,1,1.2c0.4,0,0.6,0,0.8-0.2l0.2,0.8c-0.4,0.2-0.8,0.3-1.4,0.3c-0.4,0-0.7-0.1-1-0.2
			c-0.6-0.3-0.8-0.8-0.8-1.6v-5.5h-1v-0.9h1c0-0.8,0.1-2,0.1-2l1.3-0.3c0,0-0.2,1.2-0.2,2.3h2L132.2,33.2z"/>
	</g>
	<g>
		<path d="M21.5,16.1c-1,0.1-2,1.4-1.6,2.9c-0.2,0.1-0.6,0.1-0.7-0.3c-0.1,0.5-1.1,1.1-1.8,1c0.4-0.4,0.7-1.4,1.5-1.9
			c0.8-0.5,1.1-0.9,1.4-1.8c-0.4,0.2-2.3,0.7-2.8,0.1c1.3-0.2,2.7-0.9,3.5-1.3l-0.3-0.3c-0.8,0.4-1.8,0.8-2.4,1
			c-0.2-1.6,1.3-1.5,1.4-1.1c0.6-0.7,0.2-1.8-0.3-1.9c0.5-1.3,0-2-0.4-2.5c-0.1,1.3-1.6,1.5-1.8,2.6c-0.1-0.8-0.1-3-0.2-4.1
			c-0.1-2-2.6-2.7-3-2.7c-1.6,0.1-1.8-0.1-1.8-0.9c-0.8,0.9-0.5,1.8,0.2,2.2c-0.1,0.6-1,1-1.6,1.1c1.3,1.2,2.9,0.5,3.6-0.2
			c0.1-0.1,0.1-0.1,0.2-0.1c0.3,0.5,0.5,1.3,0.5,1.8c-1.2-0.1-1.5,0.9-1.5,1.2c1.6-0.7,1.8,2.4,2.2,2.9c-0.4,0-1.1-1-2.2-1
			c-1.3-0.1-1.7,0.6-2.2,0.6c0.1,0.9,1.2,1.4,1.9,1.5c-0.4,0.9,0,1.5,0.7,1.8c0-0.8,1.1-1.1,2.2-0.4c1.4,0.8,2.1,0.9,3.2,0.5
			c-0.2,0.4-0.7,0.4-1.3,1c-0.8,0.8-0.9,1.9-1.8,2.3c1.1,0.5,2.8-0.2,3-0.6c0.5,0.3,1.1,0.1,1.2-0.2c-0.8-1.7,0.5-2.7,1-2.6
			C21.5,16.6,21.8,16.1,21.5,16.1L21.5,16.1z M15.7,15.4c-0.6-0.2-1.4-0.4-1.9,0.3c-0.3-0.5,0.1-1.1,0.4-1.3c-1.2,0-1.9-0.4-2.1-0.7
			c0.5-0.2,1.6-0.7,2.5,0c0.6,0.5,1,0.7,1.7,1c0.3-0.3,0.2-0.2,0.3-0.2c-0.6-0.4-0.9-3.8-2.1-3.9c0.2-0.4,0.8-0.4,1.3-0.3
			c0-0.7-0.3-2-0.7-2.7c0.7-0.4,1.2,0,1.4,0.9c0.3,0.9,0,3.3,0.6,5.4l0.4-0.4c-0.2-1.2,1.2-1.7,1.5-2.3c0.1,0.8-0.1,1.2-0.3,1.5
			c0.5,0.1,0.7,0.5,0.6,0.9c-1.2-0.2-1.9,1-1.6,2C16.8,15.8,16.2,15.6,15.7,15.4L15.7,15.4z M12.4,6.2c0.9,0.5,1.2-0.4,3,0.7
			c-1.2,0.4-2,1.8-3.3,1.4c0.9-0.5,0.8-1.1,1.4-1.5C13,6.8,12.4,6.7,12.4,6.2L12.4,6.2z"/>
		<path d="M33.6,11.6c0-1.9-0.1-3.4-0.1-3.9c0.1,0,0.1,0,0.2,0.1c1.3,0.5,1.6,2.1,4.4,0.3c-1.5,0.2-1.5-1.1-2.2-1.1
			C37,6.3,37,5,37,5c-0.9,0.7-2.8,0.7-3.2,1c-0.5,0.3-1.2,0.7-1.6,0.9c-1.1,0.6-0.3,4-0.5,5.3c-0.6-1.8-1.9-1.6-2.5-2.6
			c-0.5,0.9,0,2.4,0.2,2.8c-0.7,0.6-0.5,1.6-0.3,1.9c0.6-0.4,1.5-0.3,1.8,0.4c-0.8,0.5-2.1,0.6-3-0.3l-0.3,0.4
			c0.6,0.9,2.3,1.2,3.5,0.5c0,0.2,0,0.4-0.1,0.7c-0.6,0.3-1.4,0.5-2.3,0.2c0.1,0.9,1.2,1.6,2.2,1.9c-0.3,0.3-0.8,0.4-1.1,0.3
			c0.2,0.5,0.3,1.3-0.1,1.8c-0.5-0.3-0.8-0.7-1-2c-0.2-1.3-1.1-2.6-1.9-2.9c0,0.5,0,0.3,0,0.6c1.9,1.4,0.8,4,2.9,4.9
			c0.7-0.8,0.8-1.1,0.6-1.9c0.7-0.2,1.3-0.8,1.5-1.3c-0.7,0.3-1.8-0.3-2.1-0.7c1.2,0,2.3-0.9,3.5-2.1c1-1.1,2.4-0.9,2.3-0.1
			c0.7-0.1,1-1.1,0.8-1.7c1-0.3,1.8-1.1,2-2.3C36.7,11.3,34.9,10.2,33.6,11.6L33.6,11.6z M35.3,12.6c0.5,0.5,0.4,1.1,0.2,1.2
			c-0.5-0.8-2-0.5-3.5,1.2c-0.1,0.1-0.2,0.3-0.4,0.4c0.1-2-1.6-2.1-2-1.9c0.1-0.6,0.4-1,0.6-1c-0.5-0.6-0.6-1.3-0.7-1.8
			c0.8,0.4,2,1.3,2.2,3l0.5-0.4c-0.2-2.9-0.1-2.9-0.1-4.8c0-0.3,0-0.9,0.9-0.8c0,0.7,0.1,2.7,0.1,5.3h0.3c0.3-0.8,1.3-1.6,2.4-1.6
			c0.8,0.1,1.1,0,1.5-0.2C37,12.1,35.6,12.5,35.3,12.6L35.3,12.6z M33,7.1c0.6-0.4,0.9-0.6,1.2-0.8c0.5,0,1.3,0,1.8-0.3
			c-0.5,0.6-0.6,0.9-1.4,1c1.1,0.1,1.6,1.1,2.1,1.2C34.9,8.8,34.7,7,33,7.1L33,7.1z"/>
		<path d="M26.1,17.9c-0.1,0-0.2,0-0.2,0.1c-0.1,0-0.2,0-0.3-0.1l0-0.6c0.1,0,0.2-0.2,0.2-0.3c0-0.2-0.1-0.3-0.3-0.3
			c-0.2,0-0.3,0.1-0.3,0.3c0,0.1,0.1,0.2,0.2,0.3l0,0.6c-0.1,0-0.2,0-0.3,0c0-0.1-0.2-0.2-0.3-0.2c-0.2,0-0.3,0.1-0.3,0.3
			c0,0.2,0.1,0.3,0.3,0.3c0.1,0,0.2-0.1,0.2-0.1c0.1,0,0.2,0,0.3,0l0,0.9c-0.1,0.1-0.2,0.1-0.2,0.3c0,0.2,0.1,0.3,0.3,0.3
			c0.2,0,0.3-0.1,0.3-0.3c0-0.1-0.1-0.2-0.2-0.3l0-0.8c0.1,0,0.2,0,0.3,0c0,0.1,0.2,0.2,0.3,0.2c0.2,0,0.3-0.1,0.3-0.3
			C26.4,18,26.3,17.9,26.1,17.9L26.1,17.9z"/>
		<path d="M23.6,17.7c-0.1,0-0.2,0.1-0.3,0.2c-0.1,0-0.2,0-0.3,0l0-0.6c0.1,0,0.2-0.1,0.2-0.3c0-0.2-0.1-0.3-0.3-0.3
			c-0.2,0-0.3,0.1-0.3,0.3c0,0.1,0.1,0.2,0.2,0.3l0,0.6c-0.1,0-0.2,0-0.3,0.1c-0.1-0.1-0.1-0.1-0.2-0.1c-0.2,0-0.3,0.1-0.3,0.3
			c0,0.2,0.1,0.3,0.3,0.3c0.1,0,0.2-0.1,0.3-0.2c0.1,0,0.2,0,0.3,0l0,0.8c-0.1,0-0.2,0.2-0.2,0.3c0,0.2,0.1,0.3,0.3,0.3
			c0.2,0,0.3-0.1,0.3-0.3c0-0.1-0.1-0.2-0.2-0.3l0-0.9c0.1,0,0.2,0,0.3,0c0.1,0.1,0.1,0.1,0.3,0.1c0.2,0,0.3-0.1,0.3-0.3
			C23.9,17.8,23.7,17.7,23.6,17.7L23.6,17.7z"/>
		<path d="M27.5,20.3c-0.2-1.2-0.6-4.6-0.7-5.7l-0.5,0c0,0.2,0,0.4,0.1,0.7C25.8,15.2,25,15,24.2,15c-0.8,0-1.6,0.1-2.2,0.3
			c0-0.3,0-0.5,0.1-0.7l-0.5,0c0,1.1-0.5,4.5-0.7,5.7c-0.3,0.1-0.5,0.4-0.5,1c0,0,2.8,0,3.9,0c1.1,0,3.9,0,3.9,0
			C28,20.7,27.8,20.4,27.5,20.3L27.5,20.3z M24.2,20.2c-0.4,0.8-1.3,0.8-2,0.3c-0.3-0.2-0.6-0.3-0.9-0.4c0.1-0.8,0.3-2.4,0.5-3.7
			c0.9-0.4,2.1-0.5,2.4,0.6c0.3-1.1,1.4-1,2.4-0.6c0.1,1.3,0.4,2.9,0.5,3.7c-0.3,0-0.6,0.2-0.9,0.4C25.4,21.1,24.6,21.1,24.2,20.2
			L24.2,20.2z"/>
		<path d="M18.2,21.6c1.6,0.6,3.4,0.9,5.3,0c-0.3,0.9-0.6,1.4-1.1,1.7c0.3,0.7,0.7,1.5,0.9,2.2c0.5,0.3,0.4,0.9,0.3,1.3
			c-0.1,0.4-1.3,0.8-1.6,0.7c-0.4-0.1-0.4-0.3-0.5-0.3c-0.5,0-2.1,1.6-3.6,0.1c0-1.4,0-3.2,0-3.2c0.6-0.3,1.1-0.6,1.4-1
			C18.9,22.8,18.4,22.2,18.2,21.6L18.2,21.6z M19.9,23c-0.4,0.6-0.8,1-1.6,1.4c0,0,0,1.7,0,2.6c1,0.9,2.3,0.1,2.8-0.2
			c-0.2-0.2-0.2-0.4-0.3-0.7c-1.3,0.1-1.8-0.5-2-1.5c0,0,0.2-0.2,0.5-0.3c0.4,1.4,1.3,1.2,1.9,1.2c0.4-0.4,1-0.5,1.5-0.5
			c-0.1-0.6-0.5-1.3-0.9-1.9c0.3-0.2,0.8-0.5,1-0.9c-1.7,0.6-2.4,0.4-3.9,0C19.3,22.6,19.6,22.9,19.9,23L19.9,23z M22.9,25.6
			c-0.3-0.1-1.2,0.2-1.3,0.4c-0.1,0.2,0.1,0.6,0.4,0.8c0.2,0.1,1-0.1,1.2-0.3C23.3,26.4,23.2,25.7,22.9,25.6L22.9,25.6z"/>
		<path d="M30.5,23.7c0-1-0.7-1.9-1.8-1.9c-1,0-2.3,0.5-2.3,1.4c-1.5,0.9-2.2,1.6-2,2.4c-0.5,0.5-0.1,1.5,1.4,0.9
			c-0.4,0.4-0.5,0.9-0.5,1.3c1.4,0,4.6,0,5,0C29.7,25.1,30.5,25.5,30.5,23.7L30.5,23.7z M29,23.4c-0.3-0.1-1.4-0.1-1.7,0.7
			c-0.2,0-0.4-0.1-0.6-0.2c-0.1,0.2-0.4,0.3-0.7,0.4c0.3,0.5,0.8,0.5,1.1,0.2c0,0.1,0,0.1,0,0.2c0,1.3,1.4,1.7,2.3,1.2
			c-0.1,0.4-0.1,1,0,1.3c0,0-3,0-3.4,0c0.1-0.4,0.5-0.8,0.9-1.1l-0.3-0.5c-0.4,0.2-0.7,0.3-1.1,0.4c-1,0.2-0.9-0.4,0.1-0.7v-0.3
			l-0.6,0c0.2-0.7,1.5-1.5,2.1-1.7c0-0.7,0.9-1,1.7-1c1,0,1.2,1,1.2,1.3c0,0.4-0.1,1.4-0.6,1.7c-0.8,0.4-1.4-0.2-1.4-0.7
			c0-0.6,0.4-0.9,1.1-0.8C29.6,24,29.6,23.6,29,23.4L29,23.4z"/>
		<path d="M29,33.2v-1V32h-0.2h-0.3c0-1.3-0.3-2.2-0.9-2.8L27.3,29l-0.2,0.2c-0.6,0.6-0.9,1.5-0.9,2.8H26h-0.2v0.2v0.9
			c-0.7,0.2-1.1,0.6-1.7,1l0,0l0.3,0.4l0,0c0.9-0.7,1.4-1.1,3-1.1c1.6,0,2.3,0.7,2.7,1.4l0.4-0.3C30.1,34,29.7,33.5,29,33.2L29,33.2
			z M27.3,29.7c0.4,0.5,0.6,1.2,0.6,2.2h-1.2C26.7,31,26.9,30.3,27.3,29.7L27.3,29.7z M26.2,33v-0.5h2.3V33
			c-0.3-0.1-0.7-0.1-1.1-0.1C26.9,32.9,26.5,32.9,26.2,33L26.2,33z"/>
		<path d="M28.6,35.4c0.1-0.4,0-0.8-0.2-1c-0.2-0.2-0.6-0.4-1-0.3l0.5,0.5l-0.8,0.7l-0.4-0.4c0,0,0.1-0.1,0.3-0.3
			c-0.3-0.3-0.7-0.6-1.2-0.5c-0.2,0.5,0,1,0.3,1.3c0.2-0.2,0.3-0.3,0.3-0.3l0.3,0.4l-1,0.8l0.3,0.4l0.9-0.8l0.3,0.4
			c0,0-0.2,0.3,0.1,0.6c0.2-0.2,0.6-0.5,0.8-0.7c-0.3-0.3-0.6-0.2-0.6-0.2l-0.3-0.4l0.8-0.7L28.6,35.4L28.6,35.4z"/>
		<path d="M22.4,29.7c-0.1-0.7-0.9-0.8-1.3-0.5c-0.4-0.3-1.1-0.2-1.3,0.5c-1.3-0.2-1.1,1-1,1.3c0.1,0.3,0.5,1.1,0.7,1.6
			c0,0-0.1,0-0.1,0c-0.1,0.3-0.1,0.7,0,0.9c0.1,0,0.1,0,0.2,0.1c-0.1,0.4-0.4,1-0.5,1.3c0.2,0.1,0.4,0.2,0.6,0.2c0,0,0,0.2-0.1,0.4
			c0.3,0.1,1,0.2,1.5,0.2c0.4,0,1.1-0.1,1.5-0.2c-0.1-0.2-0.1-0.4-0.1-0.4c0.3-0.1,0.4-0.1,0.6-0.2c-0.1-0.3-0.4-0.9-0.5-1.3
			c0.1,0,0.1,0,0.2-0.1c0-0.3,0-0.7,0-0.9c0,0-0.1,0-0.1,0c0.2-0.5,0.6-1.3,0.7-1.6C23.5,30.7,23.6,29.5,22.4,29.7L22.4,29.7z
			 M21.1,29.8c0-0.3,1-0.4,0.8,0.3c-0.2,0.7-0.4,1.6-0.6,2.4c-0.1,0-0.2,0-0.2,0c-0.1,0-0.2,0-0.2,0c-0.2-0.8-0.4-1.6-0.6-2.4
			C20.1,29.4,21,29.5,21.1,29.8L21.1,29.8z M22.3,33c0,0.1,0,0.3,0,0.4c-0.3,0.1-0.8,0.1-1.3,0.1c-0.4,0-0.9,0-1.2-0.1
			c0-0.1,0-0.3,0-0.4c0.2-0.1,1-0.1,1.2-0.1S22.1,32.9,22.3,33L22.3,33z M19.3,30.9c-0.3-0.7,0.4-0.8,0.5-0.5
			c0.2,0.6,0.5,1.5,0.7,2.1c-0.2,0-0.4,0-0.5,0C19.9,32.3,19.6,31.6,19.3,30.9L19.3,30.9z M22.6,34.7c-0.2,0.1-0.4,0.1-0.6,0.2
			c0,0.2,0.1,0.3,0.1,0.4c-0.3,0.1-0.7,0.1-1,0.1c-0.3,0-0.7,0-1-0.1c0-0.1,0.1-0.3,0.1-0.4c-0.2,0-0.4-0.1-0.6-0.2
			c0.1-0.3,0.2-0.6,0.3-1c0.4,0.1,0.7,0.1,1.1,0.1c0.4,0,0.8,0,1.1-0.1C22.3,34.1,22.5,34.4,22.6,34.7L22.6,34.7z M22.9,30.9
			c-0.3,0.7-0.6,1.5-0.7,1.7c-0.2,0-0.3,0-0.5,0c0.2-0.6,0.5-1.5,0.7-2.1C22.5,30,23.2,30.2,22.9,30.9L22.9,30.9z"/>
		<path d="M20,23.8c0.4,0.1,0.6,0,0.9,0c0.1,0,0.4,0.1,0.4,0.5c0,0.2,0,0.3,0.1,0.4c-0.3,0-0.6,0.1-0.8,0
			C20.2,24.5,20.3,24.1,20,23.8L20,23.8z"/>
		<path d="M40.5,19.9c-0.1,1.2-1,2.9-2,3.8l0.7,0c0.7-0.7,1.9-1.9,2.1-4.2C41.2,19.4,40.7,19.7,40.5,19.9L40.5,19.9z"/>
		<path d="M36.6,17.4c0.1-0.1,0.1-0.4,0.4-0.5c0.3-0.1,0.3,0.1,0.4,0.2c0.2,0,0.1,0,0,0.2c-0.1,0.1-0.1,0.4-0.4,0.4
			c-0.3,0-0.3-0.1-0.5-0.1C36.4,17.5,36.5,17.5,36.6,17.4L36.6,17.4z"/>
		<g>
			<path d="M47.8,18.3c-0.2,0-0.5,0.1-0.7,0.2c0.4-0.4,0.7-1,0.7-1.4c-0.2,0.1-0.6,0.2-0.9,0.3c0.7-0.6,1.1-1.3,0.9-2.2
				c-0.2,0.1-0.5,0.3-0.8,0.4c0.6-0.9,0.6-1.8,0.3-2.2c-0.3,0.2-0.6,0.5-0.9,0.8c0.2-1.1,0.2-1.8-0.2-2.3c-0.5,0.9-0.9,1.5-1.5,2.3
				c0-0.7,0-1.6-0.5-2.1c0,0-0.1,1-0.5,1.3c-0.1-1-0.4-1.5-0.8-2c0,0,0,1-0.3,1.6c-0.2-0.8-0.7-1.5-1.2-2.1c0,1.9-0.5,5.4-2,7.8
				c-0.2,1.4-0.3,3.5-2.6,4.8c-0.3-0.2-0.9-0.5-1.7-0.5c-0.2-1.1,1.2-2,2.4-2.8c1.2-0.8,1.7-1.4,1.7-2.5c0-1.1-0.8-1.6-1.6-1.6
				c-1.1,0-2,1-2.3,1.4c-0.3,0.2-1.3,0.5-1.7,0.6c-0.4,0.1-0.9,0.3-1.2,0.6c0.2,0.1,0.7,0.2,0.9,0.1c0.4-0.1,1.6-0.3,2.8-0.4
				c0.4,0.2,1.1,0.6,0.4,1.1c-1,0.6-1.4,0.8-2.8,1.5c-2.2,1.2-1.5,4.1-1,4.3c0,1,0.9,2.8,1.5,3.4c0.3,1.2-0.1,3.1-0.5,3.8
				c-0.3-0.8-0.8-2.5-1.2-3.5c0.4-1.9-0.2-2.8-0.6-3.1c-0.4-0.3-1-0.2-1.5,0.4c0.6-0.1,0.8,0.7,0.8,1.6c0,1-0.3,1.8-1,1.8
				c0.1,0.9,1,1.1,1.5,0.7c0.1,0.2,0.4,1.3,0.8,2.3c0.2,0.6,0.4,1.2,0.5,1.4c0.1,0.3,1.2,0.4,1.3,0c0.2-0.5,0.3-0.9,0.6-1.4
				c0.2-0.4,0.5-1,0.9-1.8c0.3,0.5,0.7,1.3,0.9,1.8c0.1,0.3,0.2,0.4,0.2,0.5c0.1,0.8,0,3.8-0.2,5.5c-2.4-0.7-3.1,0.5-2.9,1.4
				c0.3-0.4,0.8-0.3,1.1-0.1c-0.1,0.6,0.1,1.1,0.8,1.3c0.7-1.8,3.2-1.4,3.4-1.3c0-0.4,0.3-1.2-0.9-1.4c0-1.6,0.2-3.5,0.3-3.9
				c0.1-0.4,0.1-0.7-0.1-1.3c-0.1-0.2-0.1-0.4-0.2-0.7l0,0c-0.2-0.6-0.3-1.5-0.3-2.4c0.2,0.2,0.8,0.4,1.1,0.3
				c0.3,1.2,0.7,0.8,0.9,1.3c0.1,0.3,0.1,0.5,0.2,0.7c0,0.2,0.1,0.4,0.2,0.5c0.9,0,1.6-0.2,2.1-0.5c0.2-0.1,0.3-0.2,0.4-0.4
				c-0.2-1.3-0.6-1.9-1.2-2.7c-0.2-1-0.7-2-1.3-2.8c0.8-0.3,1.7-1,2.1-1.4c0.4,0,0.9-0.4,0.9-1c0.2,0,0.4,0,0.6-0.1
				c0-0.2-0.1-0.5-0.1-0.6c0.3,0,0.6,0,0.9,0c-0.1-0.2-0.2-0.5-0.3-0.7c0.3,0,0.7,0,1,0c-0.2-0.3-0.3-0.6-0.4-0.8
				c0.4,0,0.9-0.1,1.4-0.2c-0.1-0.2-0.3-0.3-0.6-0.5c1.2-0.3,1.7-1.2,1.7-1.5c-0.2,0-0.5,0.1-0.7,0.1C47.3,19.4,47.8,18.9,47.8,18.3
				z M41.7,13c0.3,0.5,0.5,1.3,0.5,2.1c0.4-0.4,0.6-1,0.7-1.4c0.2,0.3,0.1,1.2,0.1,1.6c0.4-0.3,0.7-0.8,0.9-1.3c0.1,0.4,0.1,0.7,0,1
				c-0.9,0.9-2.3,2.2-3.9,3.5C41,16.7,41.5,15.3,41.7,13z M34.4,32.7c-0.1,0.3-0.2,0.6-0.3,1c-0.1,0.3-0.8,0.2-0.9,0
				c-0.1-0.2-0.2-0.6-0.4-1l0,0c-0.4-1.1-1-2.5-1.1-3.2c-0.3,0.5-0.6,0.7-0.9,0.4c1.1-0.5,0.7-3.6,0.3-3.8c0.5-0.5,1.2,1.4,0.8,2.8
				c0.3,1,1,2.9,1.3,3.8c0.1,0.2,0.1,0.3,0.1,0.3c0.1,0.2,0.4,0.2,0.5,0c0-0.1,0.1-0.2,0.1-0.3c0.3-0.9,0.8-2.7,0.7-3.9
				c0.5,0.1,0.7,0.6,0.9,1.2C35.1,31.1,34.7,31.9,34.4,32.7z M46.4,20.3c-0.3,0.3-1.2,0.7-2.2,0.7c0.2,0.2,0.6,0.4,0.8,0.5
				c-0.3,0.1-0.7,0.1-1.1,0.1c0.2,0.3,0.4,0.7,0.5,0.8c-0.3,0-0.6,0-0.9,0c0.2,0.3,0.2,0.5,0.4,0.7c-0.2,0-0.7,0-0.9,0
				c0.1,0.2,0.2,0.5,0.3,0.7c-0.1,0-0.4,0-0.5,0c-1,1.4-2.5,2.9-5.1,2.8c0.1,0.2,0.1,0.5,0.2,0.5c0.4,0,1.2-0.1,1.8-0.2
				c0.4,0.5,1.2,1.5,1.5,3.2c0.3,0.2,0.8,1,1,2c-0.5,0.3-0.9,0.4-1.5,0.5c-0.2-1.3-0.9-1.4-1.2-2.5c-0.5,0.1-1.1-0.3-1.3-0.9h-0.6
				c-0.1,1.3,0.2,2.4,0.4,3.4c0.1,0.5,0.2,0.9,0.2,1.3c0.1,0.8-0.2,3.8-0.2,5c0.6,0,1,0.1,1,0.6c-0.9-0.3-2.4-0.1-3.2,1.1
				c-0.2-0.1-0.3-0.6,0-0.8c-0.3-0.4-0.6-0.6-1.3-0.5c0.3-0.4,0.9-0.7,2.8-0.3c0.2-0.7,0.4-4.8,0.3-5.7c0-0.2-0.1-0.4-0.2-0.8h0
				c-0.5-1.2-1.5-3.2-1.7-4.5c-0.3,0-0.8,0.1-1-0.1c-0.4-0.4-1.3-1.7-1.5-3c-0.3-0.5-0.8-2.5,0.7-3.6c1.1-0.8,3.5-1.7,3.5-2.6
				c0-0.5-0.9-0.9-1.2-1.2c-0.3-0.2-0.2-0.3,0.1-0.6c1.4-1.4,3.2,0,2.2,1.7c-0.7,1.3-4.5,2.4-3.6,4.7c0.8,0.1,1.2,0.4,1.5,0.8
				c0.7-0.3,3.6-1.5,3.9-5.2c0.7-0.5,1.5-0.9,2.2-1.5c0.1,0.9,0,6.8-5.4,8.2c0.1,0.5,1.3,0.6,2-0.3c0.7,0.2,1.4-0.4,1.5-0.9
				c0.6,0,1.2-0.6,1.1-1.3c0.7-0.2,1.1-1.2,0.8-1.9c0.6-0.3,0.8-1,0.6-1.7c0.5-0.3,0.7-1.2,0.2-1.8c0.3-0.5,0.2-0.8,0-1.2
				c1-0.9,2.2-2,3-3.4c0.1,1-0.4,1.7-1,2.6c1-0.7,1.3-0.8,1.9-1.3c-0.2,1.1-1.4,2.1-1.9,2.6c0.6-0.2,1.5-0.7,2.2-1
				c-0.6,1.2-1.6,1.9-2.2,2.3c0.8-0.2,1.4-0.3,2-0.5c-0.5,0.5-1.4,1.2-2.4,1.5c0.8,0,1.5-0.1,2.2-0.3c-0.5,0.6-1.3,1.1-2.3,1.2
				C45.3,20.3,45.5,20.4,46.4,20.3z"/>
			<path d="M41.3,31.3c0-0.1-0.2-0.3-0.4-0.6c-0.2,0.1-0.5,0.1-0.8,0.1c0.2,0.4,0.2,0.7,0.2,0.7C40.6,31.4,40.9,31.4,41.3,31.3z"/>
		</g>
		<path d="M39.8,41.5c-0.3,0.1-0.7,0.2-1.3,0.2h-0.7c-2.5,0-5.1-0.8-6.7-2.4c2.2-2.2-0.4-4-1.8-2.1c-0.4,0.6-0.8,1-1.1,1.6
			c-0.2,0.5-0.1,0.9,0.5,1.6c0.3,0.4,1,1,1.6,1.4H17.9c0.6-0.4,1.3-1,1.6-1.4c0.5-0.7,0.7-1.2,0.5-1.6c-0.3-0.6-0.6-1-1.1-1.6
			c-1.4-1.9-3.9-0.1-1.8,2.1c-1.6,1.6-4.2,2.4-6.7,2.4H9.8c-0.6,0-1-0.1-1.3-0.2c-0.5-0.1-0.6,0.1-0.4,1c0.2,0.6,0.3,1.6,0.4,2.2
			h31.2c0.1-0.7,0.2-1.6,0.4-2.2C40.4,41.6,40.3,41.3,39.8,41.5L39.8,41.5z M30,37.2c0.4-0.5,1-0.4,1.3,0.1c0.3,0.5-0.1,1.1-0.6,1.6
			C29.9,38,29.9,37.4,30,37.2L30,37.2z M29,39.7c-0.3-0.4-0.3-0.6-0.2-0.9c0.1-0.3,0.4-0.6,0.7-1c0.4,1.7,3,3.3,4.9,3.9h-3
			C30.6,41.2,29.6,40.5,29,39.7L29,39.7z M17,37.2c0.2-0.5,0.8-0.6,1.3-0.1c0.2,0.2,0.1,0.8-0.6,1.6C17.1,38.3,16.7,37.7,17,37.2
			L17,37.2z M18.8,37.8c0.3,0.4,0.5,0.7,0.7,1c0.1,0.3,0,0.5-0.2,0.9c-0.6,0.8-1.6,1.5-2.3,1.9h-3C15.8,41.1,18.4,39.5,18.8,37.8
			L18.8,37.8z M39.2,44.2H9.1c-0.1-1-0.3-1.6-0.5-2.1h31.1C39.5,42.6,39.3,43.3,39.2,44.2L39.2,44.2z"/>
		<path d="M13.2,43.5C13.2,43.5,13.2,43.5,13.2,43.5l0.1,0.2c0,0,0,0,0,0c0,0,0,0,0,0c0,0,0,0,0.1,0c0.1,0,0.3,0,0.3,0
			c0.1,0,0.1,0,0.1,0c0,0,0,0,0,0c0,0,0,0-0.1,0c0,0-0.1,0-0.2-0.2c-0.1-0.3-0.4-1-0.4-1.1c0,0,0-0.1,0-0.1c0,0,0,0,0,0.1l-0.4,1.1
			c0,0.1-0.1,0.2-0.2,0.2c0,0,0,0-0.1,0c0,0,0,0,0,0c0,0,0,0,0,0c0.1,0,0.2,0,0.2,0c0.1,0,0.1,0,0.2,0c0,0,0,0,0,0c0,0,0,0,0,0h0
			c-0.1,0-0.1,0-0.1-0.1c0,0,0-0.1,0-0.1l0-0.1c0,0,0,0,0,0H13.2L13.2,43.5z M12.7,43.4C12.7,43.4,12.7,43.4,12.7,43.4l0.2-0.6
			c0,0,0,0,0,0c0,0,0,0,0,0l0.2,0.6c0,0,0,0,0,0H12.7L12.7,43.4z"/>
		<path d="M14.1,43.3c0,0.3,0.1,0.4,0.2,0.5c0.1,0.1,0.3,0.1,0.4,0.1c0.1,0,0.2,0,0.4-0.1c0.2-0.1,0.2-0.3,0.2-0.5V43
			c0-0.3,0-0.3,0-0.4c0-0.1,0-0.1,0.1-0.1c0,0,0,0,0.1,0s0,0,0,0c0,0,0,0,0,0c-0.1,0-0.2,0-0.2,0c0,0-0.1,0-0.2,0c0,0,0,0,0,0
			c0,0,0,0,0,0c0,0,0,0,0.1,0c0.1,0,0.1,0,0.1,0.1c0,0.1,0,0.1,0,0.4v0.2c0,0.2,0,0.3-0.1,0.4c-0.1,0.1-0.2,0.1-0.2,0.1
			c-0.1,0-0.1,0-0.2-0.1c-0.1-0.1-0.1-0.2-0.1-0.4V43c0-0.3,0-0.3,0-0.4c0-0.1,0-0.1,0.1-0.1c0,0,0,0,0.1,0c0,0,0,0,0,0c0,0,0,0,0,0
			c-0.1,0-0.2,0-0.2,0c-0.1,0-0.2,0-0.3,0c0,0,0,0,0,0c0,0,0,0,0,0c0,0,0.1,0,0.1,0c0.1,0,0.1,0,0.1,0.1c0,0.1,0,0.1,0,0.4V43.3
			L14.1,43.3z"/>
		<path d="M15.9,43.3c0,0.2,0,0.3,0,0.4c0,0,0,0.1-0.1,0.1c0,0,0,0-0.1,0c0,0,0,0,0,0c0,0,0,0,0,0c0.1,0,0.2,0,0.2,0
			c0.1,0,0.2,0,0.4,0c0.3,0,0.5-0.1,0.6-0.2c0.1-0.1,0.2-0.3,0.2-0.5c0-0.2-0.1-0.4-0.2-0.4c-0.2-0.2-0.5-0.2-0.7-0.2
			c-0.1,0-0.2,0-0.3,0c0,0-0.2,0-0.3,0c0,0,0,0,0,0c0,0,0,0,0,0c0,0,0.1,0,0.1,0c0.1,0,0.1,0,0.1,0.1c0,0.1,0,0.1,0,0.4V43.3
			L15.9,43.3z M16.1,43c0-0.1,0-0.3,0-0.4c0,0,0,0,0,0c0,0,0.1,0,0.1,0c0.1,0,0.3,0,0.5,0.2c0.1,0.1,0.2,0.2,0.2,0.4
			c0,0.2,0,0.3-0.1,0.4c-0.1,0.1-0.2,0.1-0.4,0.1c-0.1,0-0.2,0-0.2-0.1c0,0,0-0.1,0-0.1c0,0,0-0.2,0-0.4V43L16.1,43z"/>
		<path d="M18.4,43.5C18.4,43.5,18.4,43.5,18.4,43.5l0.1,0.2c0,0,0,0,0,0c0,0,0,0,0,0c0,0,0,0,0.1,0c0.1,0,0.3,0,0.3,0
			c0.1,0,0.1,0,0.1,0c0,0,0,0,0,0c0,0,0,0-0.1,0c0,0-0.1,0-0.2-0.2c-0.1-0.3-0.4-1-0.4-1.1c0,0,0-0.1,0-0.1c0,0,0,0,0,0.1l-0.4,1.1
			c0,0.1-0.1,0.2-0.2,0.2c0,0,0,0-0.1,0c0,0,0,0,0,0c0,0,0,0,0,0c0.1,0,0.2,0,0.2,0c0.1,0,0.1,0,0.2,0c0,0,0,0,0,0c0,0,0,0,0,0h0
			c-0.1,0-0.1,0-0.1-0.1c0,0,0-0.1,0-0.1l0-0.1c0,0,0,0,0,0H18.4L18.4,43.5z M17.9,43.4C17.9,43.4,17.9,43.4,17.9,43.4l0.2-0.6
			c0,0,0,0,0,0s0,0,0,0l0.2,0.6c0,0,0,0,0,0H17.9L17.9,43.4z"/>
		<path d="M20.1,42.7c0.1-0.1,0.1-0.1,0.1-0.1c0,0,0,0,0.1,0c0,0,0,0,0,0c0,0,0,0,0,0c-0.1,0-0.1,0-0.2,0c0,0-0.1,0-0.2,0
			c0,0,0,0,0,0c0,0,0,0,0,0c0,0,0,0,0.1,0c0,0,0,0,0,0c0,0,0,0,0,0.1c0,0-0.2,0.3-0.2,0.4c-0.1-0.1-0.1-0.2-0.2-0.4c0,0,0,0,0,0
			c0,0,0,0,0,0c0,0,0,0,0,0c0,0,0,0,0,0c0,0,0,0,0,0c-0.1,0-0.2,0-0.2,0c-0.1,0-0.2,0-0.3,0c0,0,0,0,0,0c0,0,0,0,0,0c0,0,0,0,0.1,0
			c0.1,0,0.1,0.1,0.1,0.1l0.3,0.5l-0.3,0.5c-0.1,0.1-0.1,0.1-0.1,0.1c0,0-0.1,0-0.1,0c0,0,0,0,0,0c0,0,0,0,0,0h0c0,0,0.1,0,0.2,0
			c0,0,0.2,0,0.2,0h0c0,0,0,0,0,0c0,0,0,0,0,0c0,0,0,0,0,0c0,0,0,0,0,0c0,0,0,0,0-0.1l0.3-0.4c0.1,0.1,0.2,0.3,0.3,0.5c0,0,0,0,0,0
			c0,0,0,0,0,0c0,0,0,0,0.1,0c0.1,0,0.3,0,0.3,0h0.1c0,0,0,0,0,0c0,0,0,0,0,0c0,0,0,0-0.1,0c0,0-0.1,0-0.1-0.1
			c0-0.1-0.3-0.5-0.4-0.6L20.1,42.7L20.1,42.7z"/>
		<path d="M23,43.5C23,43.5,23,43.5,23,43.5l0.1,0.2c0,0,0,0,0,0c0,0,0,0,0,0c0,0,0,0,0.1,0c0.1,0,0.3,0,0.3,0c0.1,0,0.1,0,0.1,0
			c0,0,0,0,0,0c0,0,0,0-0.1,0c0,0-0.1,0-0.2-0.2c-0.1-0.3-0.4-1-0.4-1.1c0,0,0-0.1,0-0.1s0,0,0,0.1l-0.4,1.1c0,0.1-0.1,0.2-0.2,0.2
			c0,0,0,0-0.1,0c0,0,0,0,0,0c0,0,0,0,0,0c0.1,0,0.2,0,0.2,0c0.1,0,0.1,0,0.2,0c0,0,0,0,0,0c0,0,0,0,0,0h0c-0.1,0-0.1,0-0.1-0.1
			c0,0,0-0.1,0-0.1l0-0.1c0,0,0,0,0,0H23L23,43.5z M22.6,43.4C22.5,43.4,22.5,43.4,22.6,43.4l0.2-0.6c0,0,0,0,0,0c0,0,0,0,0,0
			l0.2,0.6c0,0,0,0,0,0L22.6,43.4L22.6,43.4z"/>
		<path d="M24.1,43.3c0,0.2,0,0.3,0,0.4c0,0,0,0.1-0.1,0.1c0,0,0,0-0.1,0c0,0,0,0,0,0c0,0,0,0,0,0c0.1,0,0.2,0,0.2,0
			c0,0,0.2,0,0.3,0c0,0,0,0,0,0c0,0,0,0,0,0c0,0-0.1,0-0.1,0c-0.1,0-0.1,0-0.1-0.1c0-0.1,0-0.2,0-0.4v-0.7l0.2,0
			c0.2,0,0.2,0.1,0.2,0.1l0,0c0,0,0,0,0,0c0,0,0,0,0,0c0,0,0-0.2,0-0.2c0,0,0,0,0,0c0,0-0.1,0-0.2,0h-0.7c-0.1,0-0.1,0-0.2,0
			c0,0-0.1,0-0.1,0c0,0,0,0,0,0c0,0,0,0.2,0,0.2c0,0,0,0,0,0c0,0,0,0,0,0c0,0,0,0,0-0.1c0,0,0.1,0,0.2-0.1l0.3,0V43.3L24.1,43.3z"/>
		<path d="M27.2,43.2C27.2,43.2,27.2,43.2,27.2,43.2c0,0,0.2,0,0.3,0c0.1,0,0.1,0,0.1,0.1c0,0,0,0,0,0.1c0,0,0,0,0,0c0,0,0,0,0,0
			c0,0,0-0.1,0-0.1c0-0.1,0-0.1,0-0.1c0,0,0,0,0,0c0,0,0,0,0,0c0,0,0,0-0.1,0c0,0,0,0-0.1,0L27.2,43.2c0-0.1,0-0.1,0-0.1v-0.4
			c0,0,0,0,0,0l0.3,0c0.1,0,0.1,0,0.1,0.1c0,0,0,0.1,0,0.1c0,0,0,0,0,0s0,0,0,0c0,0,0-0.1,0-0.1c0,0,0-0.1,0-0.1c0,0,0,0,0,0
			s0,0,0,0c0,0,0,0-0.1,0c0,0-0.4,0-0.5,0c-0.1,0-0.2,0-0.3,0c0,0,0,0,0,0c0,0,0,0,0,0c0,0,0.1,0,0.1,0c0.1,0,0.1,0,0.1,0.1
			c0,0.1,0,0.1,0,0.4v0.3c0,0.2,0,0.3,0,0.4c0,0,0,0.1-0.1,0.1c0,0,0,0-0.1,0c0,0,0,0,0,0c0,0,0,0,0,0c0.1,0,0.2,0,0.2,0
			c0,0,0.2,0,0.3,0c0,0,0,0,0,0c0,0,0,0,0,0c0,0-0.1,0-0.1,0c-0.1,0-0.1,0-0.1-0.1c0-0.1,0-0.2,0-0.4V43.2L27.2,43.2z"/>
		<path d="M28.4,43.3c0,0.2,0,0.3,0,0.4c0,0.1,0,0.1-0.1,0.1c0,0,0,0-0.1,0c0,0,0,0,0,0c0,0,0,0,0,0c0.1,0,0.2,0,0.2,0
			c0,0,0.2,0,0.3,0c0,0,0,0,0,0c0,0,0,0,0,0c0,0-0.1,0-0.1,0c-0.1,0-0.1,0-0.1-0.1c0-0.1,0-0.2,0-0.4V43c0-0.3,0-0.3,0-0.4
			c0-0.1,0-0.1,0.1-0.1c0,0,0,0,0.1,0c0,0,0,0,0,0c0,0,0,0,0,0c-0.1,0-0.2,0-0.2,0c-0.1,0-0.2,0-0.2,0c0,0,0,0,0,0c0,0,0,0,0,0
			c0,0,0,0,0.1,0c0,0,0.1,0,0.1,0.1c0,0.1,0,0.1,0,0.4V43.3L28.4,43.3z"/>
		<path d="M29.4,43.3c0,0.2,0,0.3,0,0.4c0,0,0,0.1-0.1,0.1c0,0,0,0-0.1,0c0,0,0,0,0,0c0,0,0,0,0,0c0.1,0,0.2,0,0.2,0
			c0.1,0,0.3,0,0.4,0c0.3,0,0.5-0.1,0.6-0.2c0.1-0.1,0.2-0.3,0.2-0.5c0-0.2-0.1-0.4-0.2-0.4c-0.2-0.2-0.5-0.2-0.7-0.2
			c-0.1,0-0.2,0-0.3,0c0,0-0.2,0-0.3,0c0,0,0,0,0,0c0,0,0,0,0,0c0,0,0.1,0,0.1,0c0.1,0,0.1,0,0.1,0.1c0,0.1,0,0.1,0,0.4V43.3
			L29.4,43.3z M29.7,43c0-0.1,0-0.3,0-0.4c0,0,0,0,0,0c0,0,0.1,0,0.1,0c0.1,0,0.3,0,0.5,0.2c0.1,0.1,0.2,0.2,0.2,0.4
			c0,0.2,0,0.3-0.2,0.4c-0.1,0.1-0.2,0.1-0.4,0.1c-0.1,0-0.2,0-0.2-0.1c0,0,0-0.1,0-0.1c0,0,0-0.2,0-0.4V43L29.7,43z"/>
		<path d="M31.3,43.3c0,0.2,0,0.3,0,0.4c0,0,0,0.1-0.1,0.1c0,0,0,0-0.1,0c0,0,0,0,0,0c0,0,0,0,0,0c0.1,0,0.2,0,0.2,0
			c0.1,0,0.2,0,0.5,0c0.1,0,0.1,0,0.1,0c0,0,0-0.2,0-0.2c0,0,0,0,0,0c0,0,0,0,0,0c0,0.1,0,0.1-0.1,0.1c0,0-0.1,0-0.2,0
			c-0.2,0-0.2,0-0.2-0.1c0-0.1,0-0.2,0-0.3v-0.1c0,0,0,0,0,0c0,0,0.2,0,0.3,0c0.1,0,0.1,0,0.1,0.1c0,0,0,0,0,0.1c0,0,0,0,0,0
			c0,0,0,0,0,0c0,0,0-0.1,0-0.1c0-0.1,0-0.1,0-0.1c0,0,0,0,0,0c0,0,0,0,0,0c0,0,0,0-0.1,0c0,0-0.2,0-0.3,0c0,0,0,0,0,0v-0.5
			c0,0,0,0,0,0c0,0,0.2,0,0.3,0c0.1,0,0.1,0,0.1,0.1c0,0,0,0.1,0,0.1c0,0,0,0,0,0c0,0,0,0,0,0c0,0,0-0.1,0-0.1c0-0.1,0-0.1,0-0.1
			c0,0,0,0,0,0c0,0,0,0,0,0c0,0,0,0-0.1,0c0,0-0.4,0-0.4,0c0,0-0.2,0-0.3,0c0,0,0,0,0,0c0,0,0,0,0,0c0,0,0.1,0,0.1,0
			c0.1,0,0.1,0,0.1,0.1c0,0.1,0,0.1,0,0.4V43.3L31.3,43.3z"/>
		<path d="M33,43c0-0.3,0-0.3,0-0.4c0-0.1,0-0.1,0.1-0.1c0,0,0.1,0,0.1,0c0,0,0,0,0,0c0,0,0,0,0,0c-0.1,0-0.2,0-0.2,0
			c0,0-0.2,0-0.2,0c0,0,0,0,0,0c0,0,0,0,0,0c0,0,0,0,0.1,0c0.1,0,0.1,0,0.1,0.1c0,0.1,0,0.1,0,0.4v0.3c0,0.2,0,0.3,0,0.4
			c0,0,0,0.1-0.1,0.1c0,0,0,0-0.1,0c0,0,0,0,0,0c0,0,0,0,0,0c0.1,0,0.2,0,0.2,0c0.1,0,0.3,0,0.5,0c0.1,0,0.1,0,0.1,0
			c0-0.1,0-0.2,0-0.2c0,0,0,0,0,0c0,0,0,0,0,0c0,0,0,0.1,0,0.1c0,0-0.1,0-0.2,0c-0.1,0-0.2,0-0.2,0c0,0,0-0.2,0-0.4V43L33,43z"/>
		<path d="M34.1,43.3c0,0.2,0,0.3,0,0.4c0,0.1,0,0.1-0.1,0.1c0,0,0,0-0.1,0c0,0,0,0,0,0c0,0,0,0,0,0c0.1,0,0.2,0,0.2,0
			c0,0,0.2,0,0.3,0c0,0,0,0,0,0c0,0,0,0,0,0c0,0-0.1,0-0.1,0c-0.1,0-0.1,0-0.1-0.1c0-0.1,0-0.2,0-0.4V43c0-0.3,0-0.3,0-0.4
			c0-0.1,0-0.1,0.1-0.1c0,0,0,0,0.1,0c0,0,0,0,0,0c0,0,0,0,0,0c-0.1,0-0.2,0-0.2,0c-0.1,0-0.2,0-0.2,0c0,0,0,0,0,0c0,0,0,0,0,0
			c0,0,0,0,0.1,0c0,0,0.1,0,0.1,0.1c0,0.1,0,0.1,0,0.4V43.3L34.1,43.3z"/>
		<path d="M35.3,43.9c0.1,0,0.2,0,0.3-0.1c0.1-0.1,0.2-0.2,0.2-0.3c0-0.2-0.1-0.3-0.3-0.5l0,0c-0.1-0.1-0.2-0.2-0.2-0.3
			c0-0.1,0.1-0.2,0.2-0.2c0.1,0,0.2,0.1,0.2,0.1c0,0,0,0.1,0,0.1c0,0,0,0,0,0c0,0,0,0,0-0.1c0-0.1,0-0.2,0-0.2c0,0,0,0,0,0
			c0,0-0.1,0-0.2,0c-0.2,0-0.4,0.1-0.4,0.3c0,0.1,0.1,0.3,0.3,0.4l0.1,0.1c0.1,0.1,0.2,0.2,0.2,0.3C35.6,43.7,35.5,43.8,35.3,43.9
			c-0.1-0.1-0.2-0.1-0.2-0.3c0,0,0-0.1,0-0.1c0,0,0,0,0,0c0,0,0,0,0,0c0,0,0,0.1,0,0.2c0,0,0,0,0,0.1C35.1,43.9,35.2,43.9,35.3,43.9
			L35.3,43.9z"/>
		<path d="M29.9,7.2c0-0.3-0.5-0.5-0.6-0.5c-0.2,0-0.5,0.4-0.7,0.7c-0.2-1.3-0.1-1.8,0-2.4c0.5,1,1.3,1.2,1.7,1.1
			c-1.3-1-1.1-2-1.5-2c-0.2,0-0.4,0-0.5,0c-0.5,0-0.5,0.9-0.6,1.3c-0.3-0.6-0.6-1-1.1-1.6c-0.5-1.2-1.1-0.9-1.7-1.5
			c0.5,0.7,0.1,1.1,1.2,1.6c0.3,0.3,0.6,0.7,0.8,1c-0.2,0.2-0.3,0.4-0.5,0.5c-0.1,0.2-0.2,1-0.6,1.5c0.6-0.3,0.9-0.6,1.1-1
			c1.9,1.5,0.4,5.2-0.1,6c-0.4-0.3-1-0.5-1.5-0.5l-0.1-0.2l-0.5-1.5h0.2c0.2,0,0.3-0.2,0.3-0.3l1.3,0.4l0.6,0.2l-0.4-0.5l-0.6-0.9
			l0.6-0.9l0.4-0.5l-0.6,0.2L25.5,8c-0.1-0.3-0.3-0.4-0.6-0.4l0.4-1.4l0.2-0.6L25,6l-0.9,0.6L23.3,6l-0.5-0.4L23,6.2l0.4,1.4
			c-0.2,0-0.5,0.2-0.6,0.4l-1.2-0.4L21,7.4l0.4,0.5L22,8.8l-0.6,0.9L21,10.2l0.6-0.2L23,9.6c0,0.1,0,0.3,0.3,0.3h0.2L23,11.3
			l-0.1,0.2c-0.5,0.1-1.1,0.3-1.5,0.6c-1.3-2.5-0.9-5.1,0.2-6c0,0.5,0.5,1.3,0.7,1.4C22.1,7,22.4,6,22.1,5.7
			c-0.2-0.2-0.5-0.3-0.8-0.2c0.2-0.4,0.5-0.8,1-1.5c0.8-0.4,1-1.3,1.2-1.7C22.6,2.6,22,3,21.9,3.7c-0.3,0.4-0.6,0.9-1,1.4
			c0-0.7-0.3-0.9-0.8-0.9c-1.4,0.3-1.3,1.3-2.5,2c0.8,0.3,2.1-1.5,2.6-1.3c0.1,1.1-0.2,2-0.2,2.6c-0.2-0.2-0.3-0.4-0.5-0.4
			c-0.2,0-0.6,0-1,0.4C18.4,8,18.4,9,17.9,10.3c0.8-0.7,1.2-2.1,1.3-2.5c0.2,0.3,0.4,0.9,0.5,1.4c0.1,1,0.7,2.7,1.2,3.5
			c-0.1,0.3-0.2,0.6-0.1,1c-0.4,0.3-0.5,0.7-0.3,1c0.2,0.3,0.6,0.5,1,0.3l0.2-0.1c0.5-0.2,1.4-0.6,2.6-0.6c1.1,0,2.1,0.4,2.6,0.6
			l0.1,0.1c0.5,0.2,0.9,0,1-0.3c0.1-0.3,0.1-0.7-0.3-1c0.1-0.4,0-0.7-0.2-1l0,0c1-1.4,1-4,1.8-4.8c0.1,0.9,0.6,1.7,1,1.8
			C29.9,9,29.9,7.8,29.9,7.2L29.9,7.2z M25.5,8.4l0.7-0.2l-0.3,0.5l-0.1,0.1l0.1,0.1l0.3,0.5l-0.9-0.3C25.4,8.9,25.5,8.7,25.5,8.4
			L25.5,8.4z M22.1,9.4l0.3-0.5l0.1-0.1l-0.1-0.1l-0.3-0.5l0.7,0.2c0,0.3,0.1,0.5,0.2,0.7L22.1,9.4L22.1,9.4z M24.9,9.2h-0.6l0.1-1
			C25.3,7.8,25.2,8.6,24.9,9.2L24.9,9.2z M24.8,10.9l-0.5-0.3l-0.1-0.1L24,10.5l-0.5,0.3l0.3-1h0.6L24.8,10.9L24.8,10.9z M24,7
			l0.1,0.1L24.3,7l0.5-0.4l-0.3,0.9c0,0,0,0,0,0c0-0.1-0.2-0.2-0.3-0.2c-0.1,0-0.2,0.1-0.3,0.2c0,0,0,0,0,0l-0.3-0.9L24,7L24,7z
			 M23.4,9.2c-0.3-0.6-0.4-1.4,0.5-1l0.1,1H23.4L23.4,9.2z M24.2,10.9l0.7,0.5c-0.3,0-0.5,0-0.7,0c-0.1,0-0.4,0-0.7,0L24.2,10.9
			L24.2,10.9z M21.4,14.4l-0.1,0.1c-0.2,0.1-0.3,0-0.4-0.1c-0.1-0.1,0-0.3,0.2-0.4c0,0,0.1,0,0.1-0.1l0.5,0.4
			C21.6,14.4,21.5,14.4,21.4,14.4L21.4,14.4z M23,13.9l-0.5-0.5c0.4-0.1,0.8-0.2,1.3-0.2l0.3,0.6C23.7,13.8,23.3,13.9,23,13.9
			L23,13.9z M25.7,14l-0.3-0.7c0.4,0.1,0.9,0.2,1.2,0.4l0.2,0.7C26.6,14.3,26.2,14.2,25.7,14L25.7,14z M24.2,12.7
			c-0.9,0-2,0.2-2.8,0.6c0-0.2,0.1-0.3,0.2-0.5c0.5-0.6,1.7-0.8,2.6-0.8c0.9,0,2.1,0.2,2.6,0.8c0.1,0.1,0.2,0.3,0.2,0.5
			C26.1,12.9,25.1,12.7,24.2,12.7L24.2,12.7z"/>
		<path d="M17.5,27.5c0.1-1.1,0-1.2-0.4-1.4c-0.3-0.2-0.7-0.3-1.2-0.6c-0.3-0.2-0.4-0.5-0.8-1c0.1-1.1,1.3-2.5,1.7-2.3l0-0.5
			c-0.5-0.2-1.4,0.3-2.2,2.2c-0.1-0.1-0.2-0.1-0.3-0.2c0.1-0.4-0.1-0.8-0.4-1.1c0.3-0.2,1.1-0.6,1.5-0.9c0.5-0.4,0.6-0.5,1.3-0.4
			c0,0,0.1-0.1,0.2-0.3c-0.5-0.6-1.1-0.4-1.6,0.1c-0.4,0.3-1.2,0.8-1.8,1c-0.8-0.7-2-1.2-2.9-2.1c0,0,1.2,0,1.7-0.2
			c0.1-0.1,0.5-0.7,0.4-1.3c-0.2-0.1-0.4-0.2-0.7-0.3c-0.3-0.2-0.6-0.4-0.8-0.5c-0.5-0.4-0.7-0.7-1.6-0.9c0.1-0.4,0.1-0.3,0.5-0.6
			c0.5-0.3,0.8-0.7,1-1.1c0.2-0.3,0-0.9-0.4-0.1c-0.1,0.3-0.5,0.7-1,0.8c0-0.3,0-0.4,0-0.5c1.3-0.9,1.2-1.7,1.1-2.5
			c-0.1-0.4-0.5-0.6-0.5-0.2c0,0.3,0.3,1.1-0.6,1.6c0-0.4-0.1-0.5-0.2-0.7c0.8-1,0.5-2,0.1-2.5c-0.2-0.3-0.7-0.4-0.5,0.1
			c0.2,0.4,0.5,1.4-0.1,1.8c-0.2-0.2-0.4-0.3-0.5-0.7c0.1-1.1,0-1.8-0.2-2.2C8.5,9.7,8.1,9.5,8.2,10c0,0.6,0.1,1.4,0,1.5
			c-0.1,0-0.9-0.7-1.2-1c-0.3-0.2-0.7-0.1-0.3,0.3C7,11.3,8,12,7.9,12.3c-0.1,0.2-0.8-0.5-1.2-0.6c-0.4-0.1-0.5,0.1-0.2,0.3
			c0.5,0.4,0.9,0.7,1.8,1c0.9,0.3,1.3,1.5,1,3.3c0,0.1-0.2,0.1-0.3,0c0-0.7-0.2-1.5-0.3-1.8c-0.2-0.5-0.6-0.5-0.5,0.2
			c0.1,0.5,0.2,1,0.1,1.7c-0.7-0.1-1-0.3-1.3-0.5c0-0.3,0.1-0.9,0.2-1.4c0-0.5-0.3-0.8-0.4-0.2c-0.2,0.6-0.3,0.9-0.4,1.3
			c-0.2-0.1-0.4-0.2-0.5-0.3c0-0.1,0-0.7-0.1-1.2c-0.1-0.5-0.3-0.5-0.4-0.1c-0.1,0.2-0.1,0.5-0.2,0.9c-0.3-0.2-0.4-0.5-0.5-0.7
			c0-0.6,0.1-1.2,0.2-1.6c0-0.3-0.1-0.8-0.3-0.2c-0.2,0.5-0.2,0.9-0.3,1.2c-0.2,0-0.4-1.1-0.6-1.8c-0.1-0.3-0.3-0.7-0.4,0
			c-0.1,0.8,0.1,1.6,0.3,1.9c-0.4,0-0.7-0.7-1-1.1c-0.2-0.4-0.3,0-0.3,0.2c0.2,1.4,1.3,1.9,1.8,2c0.8,1.1,2.2,1.6,3.5,2.1
			c-1.6,0-2,0.6-2.8,0.2c0,0.6,0.3,0.9,0.6,1c0.2,0.1,0.4,0.1,0.5,0.1c0.1,0.7,0.8,0.7,1.4,0.7c-0.2,1.4,0,3.4,1.3,4.8
			c0,0.7-0.1,1.7-0.1,2.3c-1,1-2,3-2.3,4.1c-0.3,0.8-0.7,1.5-1.3,1.8c0.5,0.5,1.3,0.3,1.7,0c0,0.5,0.1,0.8,0.2,1.1
			c-0.3,0.4-0.5,0.7-0.5,1.3c-0.3,0.1-0.6,0.3-0.8,0.5c-0.1,0.1,0,0.8,0.1,1.1c0.4,0.9,0.1,3,0,3.6c0.2,0,0.5,0,0.6-0.2
			c0.1,0.1,0.4,0.3,0.5,0.7c0,0.2-0.1,0.8,0.2,0.9c0.3,0.1,1.4,0,1.6-0.2c-0.1-0.1-0.3-0.4-0.4-0.8c0-0.3,0-0.7-0.1-0.9
			c-0.1-0.2-0.5-0.8-0.7-1c0-0.4-0.1-2.1,0.1-2.7c0.3-0.2,2.3-1.7,2.8-3.2c0.4,0.1,0.3,1.1,0.3,2.5c0,0.4,0.4,0.5,0.7,0.6
			c0.6,0.1,1.3,0.6,2.2,1.9C13.8,37.2,14,37,14,37c0.1,0.2,0.3,0.5,0.3,0.8c0.1,0.2,0.8,0.3,1.4,0.1c0.2-0.1,0.3-0.1,0.4-0.3
			c-0.7-1.2-1.1-2-2-2.7c-0.4-0.3-1-0.5-1.4-0.8c0.3-0.6,1.2-3.3,0.6-4.3c-0.2-0.3-0.8-0.7-1.6-0.5c0.7-0.8,2-2.3,2.2-2.8
			c0.2,0.2,0.9,0.1,1.5,0.3c0.2,0.1,0.8,0.9,0.8,1.1c0.1,0.5,0.1,1-0.3,2.4c0.2,0,0.2,0,0.4-0.1c0,0.4-0.1,0.6-0.4,1.2
			c0.1,0.5,0.3,1.2,0.5,1.3c0.3-0.9,1.4-2.1,1.4-2.9C17.9,28.8,17.4,28,17.5,27.5L17.5,27.5z M6.8,18.3c-0.2-0.2-0.2-0.4-0.3-0.5
			c0.6-0.4,1.4-0.1,1.8-0.5c0.3,0.2,0.7,0,0.9,0c0.6-0.1,1.4,0.6,2,1c0.2,0.2,0.5,0.3,0.6,0.3c-0.2,0.5-0.1,0.6,0.3,0.7
			c0,0.1-0.1,0.2-0.6,0.2c-0.5-0.1-1.1,0-1.3,0c-1.5,0.8-1.9-0.5-1.9-1.2c0,0,0,0,0,0c0,0,0,0,0,0C7.5,18.8,7.1,18.6,6.8,18.3
			L6.8,18.3z M12.7,30.2c0.5,0.6-0.2,3.3-0.5,3.8c-0.2,0.4,0.2,0.7,0.4,0.8c1.1,0.3,2.1,1.3,2.5,2.1L14.8,37c-0.8-1.1-1-0.7-1.2-0.5
			c-0.2-0.4-1.2-1.4-1.8-1.5c-0.6,0-0.6-0.4-0.5-0.7c0.1-0.6,0-1.4,0-1.9c-0.1-0.4-0.4-0.8-0.6-0.8c0.1-0.3,0-1.2,0.7-1.6
			C11.9,29.7,12.6,30.1,12.7,30.2L12.7,30.2z M17.1,30.8c-0.1,0-0.2,0-0.2-0.1c0.2-0.6,0.2-0.9,0.2-1.1c-0.1,0.1-0.3,0-0.3,0
			c0.2-1,0.1-1.6,0-2c-0.1-0.4-0.7-1-0.8-1.1c-0.3-0.2-0.6-0.3-1.1-0.4c-1.2-1-1.5-0.4-2.4-0.5c-0.1-0.2-0.3-0.4-0.3-0.4l-0.4,0.3
			c0,0,0.4,0.5,0.4,0.8c0,0,0.8-0.1,1.4,0c-0.2,0.8-1.3,1.8-2.3,2.9C10,30.4,10,30.7,10,31.7c0,1.1-1.5,2.8-2.7,3.6
			c-0.1,0.3-0.2,2.8-0.1,3.2c0.1,0.1,0.4,0.5,0.6,0.9c0.1,0.1,0.1,0.5,0.1,0.8c-0.2,0-0.3,0-0.4-0.1c-0.1-0.4-0.4-0.8-0.9-1.2
			c0.1-1.4,0.3-2.2-0.2-3.6c0-0.1,0.6-0.5,0.6-0.5s0.2-1,0.8-1.5c-0.4-1.1-0.5-2.6-0.5-2.6s-0.3,0.3-0.7,0.6
			c1.1-3.5,1.3-2.5,2.7-5.1c0.9-4.1-1.5-5-1.1-6.4c0.8,0.8,1.3,0.5,2,0.3c0.6,0.5,1.5,1.7,2.3,2c1.3,0.5,1.3,1.7,1.1,2.3
			c0.6,0,1,0.2,1.2,0.5c0.9,1.5,1.6,1,2.1,1.6c0.2,0.3,0,1.1,0.3,1.8c0.2,0.5,0.3,1.1,0.3,1.2C17.4,30,17.1,30.5,17.1,30.8
			L17.1,30.8z"/>
		<path d="M9.9,18.6c0.3,0,0.4-0.2,0.7-0.1c0-0.1-0.2-0.1-0.2-0.2c0,0,0-0.1,0-0.1c0-0.3-0.1-0.5-0.5-0.5c-0.1,0.2-0.5,0.4-0.7,0.5
			c0.1,0,0.1,0,0.2,0C9.5,18.4,9.5,18.6,9.9,18.6L9.9,18.6z"/>
		<path d="M31.4,21h-7.3h-7.3h-0.3v0.3v5.2c0.1,0.1,0.2,0.1,0.3,0.3c0.2,0.3,0,1.1,0.3,1.8c0,0,0,0.1,0,0.1h6.7v10.7
			c-0.8-0.3-2.4-1.1-3.9-2.5c-1.8-1.8-2.8-3.9-2.9-6.4c-0.1,0.1-0.1,0.2-0.1,0.3c-0.1,0-0.2,0-0.2-0.1c0.2-0.6,0.2-0.9,0.2-1.1
			c-0.1,0.1-0.3,0-0.3,0c0.2-1,0.1-1.6,0-2c0-0.1,0-0.1-0.1-0.2V30c0,2.8,1,5.3,3.1,7.2c1.8,1.7,3.8,2.5,4.4,2.8l0.1,0l0.1,0
			c0.6-0.2,2.6-1,4.4-2.8c2-2,3.1-4.4,3.1-7.2v-0.5c-0.2,0.3-0.4,0.5-0.5,0.5c0,2.7-1,5-2.9,6.8c-1.5,1.4-3.1,2.2-3.9,2.5V28.7h6.8
			v1c0.7-0.9,0.4-3.2,0-3.5v2h-14v-6.7h7h7v4.6c0.2-0.1,0.4,0,0.5,0.3v-5.2V21H31.4z"/>
	</g>
</g>
</svg>
