<?xml version="1.0" encoding="utf-8"?>
<!-- Generator: Adobe Illustrator 18.1.0, SVG Export Plug-In . SVG Version: 6.00 Build 0)  -->
<svg version="1.1" id="Layer_1" xmlns="http://www.w3.org/2000/svg" xmlns:xlink="http://www.w3.org/1999/xlink" x="0px" y="0px"
	 viewBox="0 0 88.7 55.8" enable-background="new 0 0 88.7 55.8" xml:space="preserve">
<g>
	<path d="M41.2,16.4c-1,0.1-2,1.4-1.6,2.9c-0.2,0.1-0.6,0-0.7-0.3c-0.1,0.5-1.1,1.1-1.8,1c0.4-0.4,0.7-1.4,1.5-1.9
		c0.8-0.5,1.1-0.9,1.4-1.8c-0.4,0.2-2.3,0.7-2.8,0.1c1.2-0.2,2.7-0.9,3.5-1.3l-0.3-0.3c-0.8,0.4-1.8,0.8-2.4,1
		c-0.2-1.6,1.3-1.5,1.4-1.1c0.6-0.7,0.2-1.8-0.3-1.9c0.5-1.2,0-2-0.4-2.5c-0.1,1.3-1.6,1.5-1.7,2.6c-0.1-0.8-0.1-3-0.2-4
		c-0.1-2-2.6-2.7-3-2.7C32.2,6.2,32,6,32,5.3c-0.8,0.9-0.5,1.8,0.2,2.2c-0.1,0.6-1,1-1.6,1.1c1.3,1.2,2.9,0.5,3.6-0.2
		c0.1,0,0.1-0.1,0.2-0.1c0.3,0.5,0.5,1.3,0.5,1.8c-1.2-0.1-1.5,0.9-1.5,1.2c1.6-0.7,1.7,2.4,2.2,2.8c-0.4,0-1.1-1-2.2-1
		c-1.3-0.1-1.7,0.6-2.2,0.6c0.1,0.9,1.2,1.4,1.9,1.5c-0.4,0.9,0,1.5,0.7,1.8c0-0.8,1.1-1.1,2.2-0.4c1.4,0.8,2.1,0.9,3.1,0.5
		c-0.2,0.4-0.7,0.4-1.3,1C37,18.9,36.9,20,36,20.4c1.1,0.5,2.8-0.2,3-0.6c0.5,0.3,1.1,0.1,1.2-0.2c-0.7-1.7,0.5-2.6,1-2.6
		C41.2,16.9,41.5,16.4,41.2,16.4L41.2,16.4z M35.5,15.8c-0.6-0.2-1.4-0.4-1.9,0.3c-0.3-0.5,0.1-1.1,0.4-1.3c-1.2,0-1.9-0.4-2.1-0.7
		c0.4-0.2,1.6-0.7,2.5,0c0.6,0.5,1,0.7,1.7,0.9c0.3-0.3,0.2-0.2,0.3-0.2c-0.6-0.4-0.9-3.7-2.1-3.9c0.2-0.4,0.8-0.4,1.3-0.2
		c0-0.7-0.3-2-0.7-2.7c0.7-0.4,1.2,0,1.4,0.9c0.3,0.9,0,3.3,0.6,5.4l0.4-0.4c-0.2-1.2,1.2-1.7,1.5-2.3c0.1,0.8-0.1,1.2-0.3,1.5
		c0.5,0.1,0.7,0.5,0.6,0.9c-1.2-0.2-1.9,1-1.6,1.9C36.5,16.1,35.9,16,35.5,15.8L35.5,15.8z M32.1,6.5c0.9,0.5,1.2-0.4,3,0.7
		c-1.1,0.4-2,1.8-3.3,1.4c0.9-0.5,0.8-1.1,1.4-1.5C32.8,7.2,32.1,7,32.1,6.5L32.1,6.5z"/>
	<path d="M53.3,11.9c0-1.8-0.1-3.4-0.1-3.8c0.1,0,0.1,0,0.2,0.1c1.3,0.5,1.6,2.1,4.4,0.2c-1.5,0.2-1.5-1.1-2.2-1.1
		c1-0.6,1.1-1.9,1.1-1.9c-0.9,0.7-2.8,0.7-3.2,1c-0.5,0.3-1.2,0.7-1.6,0.9c-1.1,0.6-0.3,4-0.5,5.2c-0.6-1.8-1.9-1.6-2.5-2.6
		c-0.5,0.9,0,2.4,0.2,2.8c-0.7,0.6-0.5,1.6-0.3,1.9c0.6-0.4,1.5-0.3,1.8,0.4c-0.8,0.5-2.1,0.6-3-0.3L47.2,15
		c0.6,0.8,2.2,1.2,3.4,0.5c0,0.2,0,0.4-0.1,0.6c-0.6,0.3-1.4,0.5-2.3,0.2c0.1,0.9,1.2,1.6,2.2,1.9c-0.3,0.3-0.8,0.4-1.1,0.3
		c0.2,0.5,0.3,1.3-0.1,1.8c-0.5-0.3-0.8-0.7-1-2c-0.2-1.3-1.1-2.6-1.9-2.9c0,0.5,0,0.3,0,0.6c1.9,1.4,0.8,4,2.9,4.9
		c0.7-0.8,0.7-1.1,0.6-1.9c0.7-0.2,1.3-0.8,1.5-1.3c-0.7,0.3-1.8-0.2-2.1-0.7c1.2,0,2.3-0.9,3.4-2.1c1-1.1,2.4-0.9,2.3-0.1
		c0.7-0.1,1-1.1,0.7-1.7c1-0.3,1.8-1.1,1.9-2.3C56.3,11.6,54.6,10.5,53.3,11.9L53.3,11.9z M54.9,12.9c0.5,0.5,0.4,1.1,0.2,1.2
		c-0.5-0.8-2-0.5-3.5,1.2c-0.1,0.1-0.2,0.3-0.4,0.4c0.1-2-1.5-2.1-2-1.9c0.1-0.6,0.4-1,0.6-1c-0.5-0.6-0.6-1.3-0.7-1.8
		c0.8,0.4,2,1.3,2.2,2.9l0.5-0.4c-0.2-2.9-0.1-2.9-0.1-4.8c0-0.3,0-0.9,0.9-0.8c0,0.7,0.1,2.6,0.1,5.3h0.3c0.3-0.7,1.3-1.6,2.4-1.5
		c0.8,0.1,1.1,0,1.5-0.2C56.6,12.4,55.3,12.8,54.9,12.9L54.9,12.9z M52.7,7.4c0.6-0.4,0.9-0.6,1.2-0.7c0.5,0,1.3,0,1.8-0.3
		c-0.5,0.6-0.6,0.9-1.4,1c1.1,0.1,1.6,1.1,2.1,1.2C54.5,9.1,54.4,7.3,52.7,7.4L52.7,7.4z"/>
	<path d="M45.8,18.2c-0.1,0-0.2,0-0.2,0.1c-0.1,0-0.2,0-0.3,0l0-0.6c0.1,0,0.2-0.1,0.2-0.3c0-0.2-0.1-0.3-0.3-0.3
		c-0.2,0-0.3,0.1-0.3,0.3c0,0.1,0.1,0.2,0.2,0.3l0,0.6c-0.1,0-0.2,0-0.3,0c0-0.1-0.1-0.2-0.3-0.2c-0.2,0-0.3,0.1-0.3,0.3
		c0,0.2,0.1,0.3,0.3,0.3c0.1,0,0.2-0.1,0.2-0.1c0.1,0,0.2,0,0.3,0l0,0.9c-0.1,0-0.2,0.1-0.2,0.3c0,0.2,0.1,0.3,0.3,0.3
		c0.2,0,0.3-0.1,0.3-0.3c0-0.1-0.1-0.2-0.2-0.3l0-0.8c0.1,0,0.2,0,0.3,0c0,0.1,0.2,0.2,0.3,0.2c0.2,0,0.3-0.1,0.3-0.3
		C46.1,18.3,46,18.2,45.8,18.2L45.8,18.2z"/>
	<path d="M43.3,18c-0.1,0-0.2,0.1-0.3,0.2c-0.1,0-0.2,0-0.3,0l0-0.6c0.1-0.1,0.2-0.1,0.2-0.3c0-0.2-0.1-0.3-0.3-0.3
		c-0.2,0-0.3,0.1-0.3,0.3c0,0.1,0.1,0.2,0.2,0.3l0,0.6c-0.1,0-0.2,0-0.3,0c-0.1-0.1-0.1-0.1-0.2-0.1c-0.2,0-0.3,0.1-0.3,0.3
		c0,0.2,0.1,0.3,0.3,0.3c0.1,0,0.2-0.1,0.3-0.2c0.1,0,0.2,0,0.3,0l0,0.8c-0.1,0-0.2,0.1-0.2,0.3c0,0.2,0.1,0.3,0.3,0.3
		c0.2,0,0.3-0.1,0.3-0.3c0-0.1-0.1-0.2-0.2-0.3l0-0.9c0.1,0,0.2,0,0.3,0c0.1,0.1,0.1,0.1,0.3,0.1c0.2,0,0.3-0.1,0.3-0.3
		C43.6,18.1,43.4,18,43.3,18L43.3,18z"/>
	<path d="M47.2,20.6c-0.2-1.2-0.6-4.5-0.7-5.7l-0.5,0c0,0.2,0,0.4,0.1,0.7c-0.6-0.2-1.4-0.3-2.2-0.3c-0.8,0-1.6,0.1-2.2,0.3
		c0-0.3,0-0.5,0.1-0.7l-0.5,0c0,1.1-0.5,4.5-0.7,5.7c-0.3,0.1-0.5,0.4-0.5,1c0,0,2.8,0,3.9,0c1.1,0,3.9,0,3.9,0
		C47.7,21,47.5,20.7,47.2,20.6L47.2,20.6z M43.8,20.5c-0.4,0.8-1.3,0.8-2,0.3c-0.3-0.2-0.6-0.3-0.9-0.4c0.1-0.8,0.3-2.4,0.5-3.7
		c0.9-0.4,2.1-0.5,2.4,0.5c0.3-1.1,1.4-1,2.3-0.5c0.1,1.3,0.4,2.9,0.5,3.7c-0.3,0-0.6,0.2-0.9,0.4C45.1,21.3,44.3,21.4,43.8,20.5
		L43.8,20.5z"/>
	<path d="M37.9,21.9c1.6,0.6,3.4,0.9,5.3,0c-0.2,0.9-0.6,1.4-1.1,1.7c0.3,0.7,0.7,1.5,0.9,2.2c0.5,0.3,0.4,0.9,0.3,1.3
		c-0.1,0.4-1.2,0.8-1.6,0.7c-0.4-0.1-0.4-0.3-0.5-0.3c-0.5,0-2.1,1.6-3.6,0.1c0-1.4,0-3.2,0-3.2c0.6-0.3,1.1-0.6,1.4-1
		C38.6,23.1,38.1,22.5,37.9,21.9L37.9,21.9z M39.6,23.3c-0.4,0.6-0.8,0.9-1.6,1.4c0,0,0,1.7,0,2.6c1,0.9,2.3,0.1,2.8-0.2
		c-0.2-0.2-0.2-0.4-0.3-0.7c-1.3,0.1-1.7-0.5-2-1.4c0,0,0.2-0.2,0.5-0.3c0.4,1.4,1.2,1.2,1.9,1.2c0.4-0.4,1-0.5,1.5-0.5
		c-0.1-0.6-0.5-1.3-0.9-1.9c0.3-0.2,0.8-0.5,1-0.9c-1.7,0.6-2.4,0.4-3.9,0C39,22.9,39.3,23.2,39.6,23.3L39.6,23.3z M42.6,25.9
		c-0.3-0.1-1.2,0.2-1.3,0.4c-0.1,0.2,0.1,0.6,0.4,0.8c0.2,0.1,1-0.1,1.1-0.3C43,26.6,42.8,26,42.6,25.9L42.6,25.9z"/>
	<path d="M50.2,24c0-1-0.7-1.9-1.8-1.9c-1,0-2.3,0.5-2.3,1.4c-1.5,0.9-2.2,1.6-2,2.4c-0.5,0.5-0.1,1.5,1.4,0.9
		c-0.4,0.4-0.5,0.9-0.5,1.3c1.4,0,4.6,0,5,0C49.4,25.3,50.2,25.8,50.2,24L50.2,24z M48.7,23.7c-0.3-0.1-1.3-0.1-1.7,0.7
		c-0.2,0-0.4-0.1-0.6-0.2c-0.1,0.2-0.4,0.3-0.7,0.4c0.3,0.5,0.8,0.4,1.1,0.2c0,0.1,0,0.1,0,0.2c0,1.3,1.4,1.7,2.3,1.2
		c-0.1,0.4-0.1,1,0,1.3c0,0-3,0-3.4,0c0.1-0.4,0.5-0.8,0.9-1.1L46.3,26c-0.4,0.2-0.7,0.3-1.1,0.4c-1,0.2-0.9-0.4,0.1-0.7v-0.3
		l-0.6,0c0.2-0.7,1.5-1.5,2-1.7c0-0.7,0.9-1,1.7-1c1,0,1.2,1,1.2,1.3c0,0.4-0.1,1.4-0.6,1.6c-0.8,0.4-1.4-0.2-1.4-0.7
		c0-0.6,0.4-0.9,1.1-0.8C49.3,24.2,49.2,23.9,48.7,23.7L48.7,23.7z"/>
	<path d="M48.6,33.4v-1v-0.2h-0.2h-0.3c0-1.2-0.3-2.1-0.9-2.7L47,29.3l-0.2,0.2c-0.6,0.6-0.9,1.5-0.9,2.7h-0.3h-0.2v0.2v0.9
		c-0.7,0.2-1.1,0.6-1.7,1l0,0l0.3,0.4l0,0c0.9-0.7,1.4-1.1,3-1.1c1.6,0,2.3,0.7,2.7,1.4l0.4-0.3C49.8,34.2,49.4,33.7,48.6,33.4
		L48.6,33.4z M47,30c0.4,0.5,0.6,1.2,0.6,2.2h-1.2C46.4,31.2,46.6,30.5,47,30L47,30z M45.9,33.2v-0.5h2.3v0.6
		c-0.3-0.1-0.7-0.1-1.1-0.1C46.6,33.1,46.2,33.2,45.9,33.2L45.9,33.2z"/>
	<path d="M48.2,35.6c0.1-0.4,0-0.8-0.2-1c-0.2-0.2-0.6-0.4-1-0.3l0.5,0.5l-0.8,0.7L46.4,35c0,0,0.1-0.1,0.3-0.3
		c-0.3-0.3-0.7-0.6-1.2-0.5c-0.2,0.5,0,1,0.3,1.3c0.2-0.2,0.3-0.3,0.3-0.3l0.3,0.4l-1,0.8l0.3,0.4l0.9-0.8l0.3,0.4
		c0,0-0.2,0.3,0.1,0.6c0.2-0.2,0.6-0.5,0.8-0.7c-0.3-0.3-0.6-0.2-0.6-0.2L47,35.8l0.8-0.7L48.2,35.6L48.2,35.6z"/>
	<path d="M42.1,30c-0.1-0.7-0.9-0.8-1.3-0.5c-0.3-0.3-1.1-0.2-1.3,0.5c-1.3-0.2-1.1,1-1,1.3c0.1,0.3,0.5,1.1,0.7,1.6
		c0,0-0.1,0-0.1,0c-0.1,0.3-0.1,0.7,0,0.9c0.1,0,0.1,0,0.2,0.1c-0.1,0.4-0.4,1-0.5,1.3c0.2,0.1,0.4,0.2,0.6,0.3c0,0,0,0.2-0.1,0.4
		c0.3,0.1,1,0.2,1.5,0.2c0.4,0,1.1-0.1,1.5-0.2c-0.1-0.2-0.1-0.4-0.1-0.4c0.3-0.1,0.4-0.1,0.6-0.3c-0.1-0.3-0.4-0.9-0.5-1.3
		c0.1,0,0.1,0,0.2-0.1c0-0.3,0-0.7,0-0.9c0,0-0.1,0-0.1,0c0.2-0.5,0.6-1.3,0.7-1.6C43.2,31,43.3,29.8,42.1,30L42.1,30z M40.8,30.1
		c0-0.3,1-0.4,0.8,0.3c-0.2,0.7-0.4,1.6-0.6,2.4c-0.1,0-0.2,0-0.2,0c-0.1,0-0.2,0-0.2,0c-0.2-0.7-0.4-1.6-0.6-2.4
		C39.8,29.7,40.7,29.7,40.8,30.1L40.8,30.1z M42,33.2c0,0.1,0,0.3,0,0.4c-0.3,0.1-0.8,0.1-1.2,0.1c-0.4,0-0.9,0-1.2-0.1
		c0-0.1,0-0.3,0-0.4c0.2-0.1,1-0.1,1.2-0.1C41,33.1,41.8,33.1,42,33.2L42,33.2z M39,31.1c-0.3-0.7,0.4-0.8,0.5-0.5
		c0.2,0.6,0.5,1.5,0.7,2.1c-0.2,0-0.4,0-0.5,0C39.6,32.6,39.3,31.8,39,31.1L39,31.1z M42.3,35c-0.2,0.1-0.4,0.1-0.6,0.2
		c0,0.2,0.1,0.3,0.1,0.4c-0.3,0.1-0.7,0.1-1,0.1c-0.3,0-0.7,0-1-0.1c0-0.1,0.1-0.3,0.1-0.4c-0.2,0-0.4-0.1-0.6-0.2
		c0.1-0.3,0.2-0.6,0.3-1c0.4,0.1,0.7,0.1,1.1,0.1c0.4,0,0.8,0,1.1-0.1C42,34.4,42.2,34.7,42.3,35L42.3,35z M42.6,31.1
		c-0.3,0.7-0.6,1.5-0.7,1.7c-0.2,0-0.3,0-0.5,0c0.2-0.6,0.5-1.5,0.7-2.1C42.2,30.3,42.9,30.4,42.6,31.1L42.6,31.1z"/>
	<path d="M39.8,24.1c0.4,0.1,0.6,0,0.9,0c0.1,0,0.4,0.1,0.4,0.5c0,0.2,0,0.3,0.1,0.4c-0.3,0-0.6,0.1-0.8,0
		C39.9,24.8,40,24.3,39.8,24.1L39.8,24.1z"/>
	<path d="M67.4,18.6c-0.2,0-0.5,0.1-0.7,0.2c0.4-0.4,0.7-1,0.7-1.4c-0.2,0.1-0.6,0.2-0.9,0.3c0.7-0.6,1.1-1.3,0.9-2.2
		c-0.2,0.1-0.5,0.3-0.8,0.4c0.6-0.9,0.6-1.7,0.3-2.2c-0.3,0.2-0.6,0.5-0.9,0.8c0.2-1.1,0.2-1.8-0.2-2.2c-0.5,0.9-0.9,1.5-1.5,2.3
		c0-0.7,0-1.6-0.5-2.1c0,0-0.1,1-0.5,1.3c-0.1-1-0.4-1.5-0.8-2c0,0,0,1-0.3,1.6c-0.2-0.8-0.7-1.5-1.2-2.1c0,1.9-0.5,5.4-2,7.7
		c-0.2,1.4-0.3,3.5-2.6,4.7c-0.3-0.2-0.9-0.5-1.7-0.5c-0.2-1.1,1.2-2,2.4-2.8c1.2-0.8,1.7-1.4,1.7-2.5c0-1.1-0.8-1.6-1.6-1.6
		c-1.1,0-2,1-2.2,1.4c-0.3,0.2-1.3,0.4-1.7,0.6c-0.4,0.1-0.9,0.3-1.2,0.6c0.2,0.1,0.7,0.2,0.9,0.1c0.4-0.1,1.6-0.3,2.8-0.4
		c0.4,0.2,1.1,0.6,0.4,1.1c-1,0.6-1.4,0.8-2.8,1.5c-2.2,1.1-1.5,4-0.9,4.3c0,1,0.9,2.7,1.5,3.4c0.3,1.2-0.1,3.1-0.5,3.8
		c-0.3-0.7-0.8-2.5-1.2-3.5c0.4-1.9-0.2-2.7-0.6-3.1c-0.4-0.3-1-0.2-1.4,0.4c0.6-0.1,0.8,0.7,0.8,1.6c0,1-0.3,1.8-1,1.8
		c0.1,0.9,1,1.1,1.4,0.7c0.1,0.2,0.4,1.3,0.8,2.3c0.2,0.6,0.4,1.1,0.5,1.4c0.1,0.3,1.2,0.4,1.3,0c0.2-0.5,0.3-0.9,0.6-1.4l0,0
		c0.2-0.4,0.5-1,0.9-1.8c0.3,0.5,0.7,1.3,0.9,1.8c0.1,0.2,0.2,0.4,0.2,0.5c0.1,0.8,0,3.7-0.2,5.5c-2.4-0.7-3.1,0.5-2.9,1.4
		c0.3-0.4,0.8-0.3,1.1-0.1c-0.1,0.6,0.1,1.1,0.8,1.3c0.7-1.8,3.2-1.4,3.4-1.3c0-0.4,0.3-1.2-0.9-1.4c0-1.6,0.2-3.5,0.3-3.9
		c0.1-0.4,0.1-0.7-0.1-1.3c-0.1-0.2-0.1-0.4-0.2-0.7l0,0c-0.2-0.6-0.3-1.5-0.3-2.4c0.2,0.2,0.7,0.4,1.1,0.3c0.3,1.2,0.7,0.8,0.9,1.3
		c0.1,0.3,0.1,0.5,0.2,0.7c0,0.2,0.1,0.4,0.2,0.5c0.8,0,1.6-0.2,2.1-0.5c0.2-0.1,0.3-0.2,0.4-0.4c-0.2-1.3-0.6-1.9-1.2-2.7
		c-0.2-1-0.7-2-1.3-2.8c0.8-0.3,1.7-1,2.1-1.4c0.4,0,0.9-0.4,0.9-1c0.2,0,0.4,0,0.6-0.1c0-0.2-0.1-0.5-0.1-0.6c0.3,0,0.6,0,0.9,0
		c-0.1-0.2-0.2-0.5-0.3-0.7c0.3,0,0.7,0,1,0c-0.2-0.3-0.3-0.6-0.4-0.8c0.4,0,0.9-0.1,1.4-0.2c-0.1-0.2-0.3-0.3-0.6-0.5
		c1.2-0.3,1.7-1.2,1.7-1.5c-0.2,0-0.5,0.1-0.7,0.1C66.9,19.7,67.4,19.2,67.4,18.6z M61.4,13.3c0.3,0.5,0.5,1.3,0.5,2.1
		c0.4-0.4,0.6-1,0.7-1.4c0.2,0.3,0.1,1.2,0.1,1.6c0.4-0.3,0.7-0.8,0.9-1.3c0,0.4,0.1,0.7,0,1c-0.9,0.9-2.3,2.2-3.9,3.5
		C60.6,17,61.1,15.6,61.4,13.3z M54,32.9L54,32.9c-0.1,0.3-0.2,0.6-0.3,1c-0.1,0.3-0.8,0.2-0.9,0c-0.1-0.2-0.2-0.5-0.4-1l0,0
		c-0.4-1-0.9-2.5-1.1-3.2c-0.3,0.4-0.6,0.7-0.9,0.4c1.1-0.5,0.7-3.6,0.3-3.7c0.5-0.5,1.2,1.4,0.8,2.8c0.3,1,1,2.9,1.3,3.7l0,0
		c0.1,0.2,0.1,0.3,0.1,0.3c0.1,0.2,0.4,0.2,0.5,0c0-0.1,0.1-0.2,0.1-0.3l0,0c0.3-0.9,0.8-2.7,0.7-3.8c0.5,0.1,0.7,0.6,0.9,1.2
		C54.7,31.4,54.3,32.1,54,32.9z M66,20.6c-0.3,0.3-1.2,0.7-2.2,0.7c0.2,0.2,0.6,0.4,0.8,0.5c-0.3,0.1-0.7,0.1-1.1,0.1
		c0.2,0.3,0.4,0.7,0.5,0.8c-0.3,0-0.6,0-0.9,0c0.2,0.3,0.2,0.5,0.4,0.7c-0.2,0-0.7,0-0.9,0c0.1,0.2,0.2,0.5,0.3,0.7
		c-0.1,0-0.4,0-0.5,0c-1,1.4-2.4,2.9-5.1,2.7c0.1,0.2,0.1,0.5,0.2,0.5c0.4,0,1.2-0.1,1.8-0.1c0.4,0.5,1.1,1.5,1.5,3.2
		c0.3,0.2,0.8,1,1,2c-0.5,0.3-0.9,0.4-1.5,0.5c-0.2-1.3-0.9-1.4-1.2-2.5c-0.5,0.1-1.1-0.3-1.3-0.9H57c-0.1,1.3,0.2,2.4,0.4,3.4
		c0.1,0.5,0.2,0.9,0.2,1.3c0.1,0.8-0.2,3.7-0.2,5c0.6,0,1,0.1,1,0.6c-0.9-0.3-2.4-0.1-3.2,1.1c-0.2-0.1-0.3-0.6,0-0.7
		c-0.3-0.4-0.6-0.6-1.3-0.4c0.3-0.4,0.9-0.7,2.8-0.3c0.2-0.7,0.4-4.8,0.3-5.7c0-0.2-0.1-0.4-0.2-0.8l0,0c-0.5-1.2-1.5-3.1-1.7-4.5
		c-0.3,0-0.8,0.1-1-0.1c-0.4-0.4-1.3-1.7-1.5-3c-0.3-0.5-0.8-2.5,0.7-3.6c1.1-0.8,3.5-1.7,3.5-2.6c0-0.5-0.9-0.9-1.2-1.2
		c-0.3-0.2-0.2-0.3,0.1-0.6c1.4-1.4,3.1,0,2.1,1.7c-0.7,1.3-4.5,2.3-3.6,4.7c0.8,0.1,1.2,0.4,1.5,0.8c0.7-0.3,3.6-1.5,3.9-5.2
		c0.7-0.5,1.5-0.9,2.2-1.5c0.1,0.9,0,6.8-5.3,8.2c0.1,0.5,1.3,0.6,2-0.3c0.7,0.2,1.4-0.4,1.5-0.9c0.6,0,1.2-0.6,1.1-1.2
		c0.7-0.2,1.1-1.2,0.7-1.9c0.6-0.3,0.8-1,0.6-1.7c0.5-0.3,0.7-1.2,0.2-1.7c0.2-0.5,0.2-0.8,0-1.1c1-0.9,2.2-2,3-3.4
		c0.1,0.9-0.4,1.7-1,2.6c1-0.7,1.2-0.8,1.9-1.3c-0.2,1.1-1.4,2.1-1.9,2.6c0.6-0.2,1.5-0.7,2.2-1c-0.6,1.2-1.6,1.9-2.2,2.2
		c0.8-0.2,1.4-0.3,2-0.5C66,18.8,65,19.5,64,19.8c0.8,0,1.5-0.1,2.2-0.3c-0.5,0.6-1.3,1.1-2.2,1.2C64.9,20.6,65.1,20.7,66,20.6z"/>
	<path d="M60.1,20.2c-0.1,1.1-1,2.9-2,3.8l0.7,0c0.7-0.7,1.9-1.9,2.1-4.2C60.8,19.7,60.4,20,60.1,20.2L60.1,20.2z"/>
	<path d="M56.2,17.7c0.1-0.1,0.1-0.4,0.4-0.5c0.3-0.1,0.3,0.1,0.4,0.2c0.2,0,0.1,0,0,0.2C57,17.7,57,18,56.7,18
		c-0.3,0-0.3-0.1-0.5-0.1C56.1,17.8,56.1,17.8,56.2,17.7L56.2,17.7z"/>
	<path d="M59.7,31c0.3,0,0.6,0,0.8-0.1c0.2,0.3,0.4,0.5,0.4,0.6c-0.4,0.1-0.7,0.1-1,0.1C59.9,31.6,59.9,31.4,59.7,31L59.7,31z"/>
	<path d="M59.4,41.7c-0.3,0.1-0.7,0.2-1.3,0.2h-0.7c-2.5-0.1-5.1-0.8-6.6-2.4c2.2-2.2-0.4-4-1.8-2.1c-0.4,0.6-0.8,1-1.1,1.6
		c-0.2,0.5-0.1,0.9,0.5,1.6c0.3,0.4,1,1,1.6,1.4H37.6c0.6-0.4,1.3-1,1.6-1.4c0.5-0.7,0.7-1.2,0.5-1.6c-0.3-0.6-0.6-1-1.1-1.6
		c-1.4-1.9-3.9-0.1-1.8,2.1c-1.6,1.6-4.1,2.4-6.6,2.4h-0.7c-0.6,0-1-0.1-1.3-0.2c-0.5-0.1-0.6,0.1-0.4,1c0.2,0.6,0.3,1.6,0.4,2.2
		h31.1c0.1-0.7,0.2-1.6,0.4-2.2C60.1,41.8,59.9,41.6,59.4,41.7L59.4,41.7z M49.7,37.4c0.4-0.5,1-0.4,1.2,0.1
		c0.3,0.5-0.1,1.1-0.6,1.6C49.6,38.2,49.5,37.6,49.7,37.4L49.7,37.4z M48.7,39.9c-0.3-0.4-0.3-0.6-0.2-0.9c0.1-0.3,0.4-0.6,0.7-1
		c0.4,1.7,3,3.3,4.9,3.8h-3C50.2,41.4,49.2,40.7,48.7,39.9L48.7,39.9z M36.7,37.4c0.2-0.5,0.8-0.6,1.2-0.1c0.2,0.2,0.1,0.8-0.6,1.6
		C36.8,38.5,36.4,37.9,36.7,37.4L36.7,37.4z M38.5,38c0.3,0.4,0.5,0.7,0.7,1c0.1,0.3,0,0.5-0.2,0.9c-0.6,0.8-1.6,1.5-2.3,1.9h-3
		C35.5,41.3,38.1,39.7,38.5,38L38.5,38z M58.8,44.4h-30c-0.1-1-0.3-1.6-0.5-2.1h30.9C59.2,42.8,59,43.5,58.8,44.4L58.8,44.4z"/>
	<path d="M32.9,43.7C32.9,43.7,32.9,43.7,32.9,43.7L33,44c0,0,0,0,0,0c0,0,0,0,0,0c0,0,0,0,0.1,0c0.1,0,0.3,0,0.3,0
		c0.1,0,0.1,0,0.1,0c0,0,0,0,0,0c0,0,0,0-0.1,0c0,0-0.1,0-0.2-0.2c-0.1-0.3-0.4-1-0.4-1.1c0,0,0-0.1,0-0.1c0,0,0,0,0,0.1l-0.4,1.1
		c0,0.1-0.1,0.2-0.2,0.2c0,0,0,0-0.1,0c0,0,0,0,0,0c0,0,0,0,0,0c0.1,0,0.2,0,0.2,0c0.1,0,0.1,0,0.2,0c0,0,0,0,0,0c0,0,0,0,0,0h0
		c-0.1,0-0.1,0-0.1-0.1c0,0,0-0.1,0-0.1l0-0.1c0,0,0,0,0,0H32.9L32.9,43.7z M32.4,43.6C32.4,43.6,32.4,43.6,32.4,43.6l0.2-0.6
		c0,0,0,0,0,0c0,0,0,0,0,0l0.2,0.6c0,0,0,0,0,0H32.4L32.4,43.6z"/>
	<path d="M33.8,43.5c0,0.3,0.1,0.4,0.2,0.5c0.1,0.1,0.3,0.1,0.4,0.1c0.1,0,0.2,0,0.4-0.1c0.2-0.1,0.2-0.3,0.2-0.5v-0.2
		c0-0.3,0-0.3,0-0.4c0-0.1,0-0.1,0.1-0.1c0,0,0,0,0.1,0c0,0,0,0,0,0c0,0,0,0,0,0c-0.1,0-0.2,0-0.2,0c0,0-0.1,0-0.2,0c0,0,0,0,0,0
		c0,0,0,0,0,0c0,0,0.1,0,0.1,0c0.1,0,0.1,0,0.1,0.1c0,0.1,0,0.1,0,0.4v0.2c0,0.2,0,0.3-0.1,0.4c-0.1,0.1-0.2,0.1-0.2,0.1
		c-0.1,0-0.1,0-0.2-0.1c-0.1-0.1-0.1-0.2-0.1-0.4v-0.2c0-0.3,0-0.3,0-0.4c0-0.1,0-0.1,0.1-0.1c0,0,0,0,0.1,0c0,0,0,0,0,0
		c0,0,0,0,0,0c-0.1,0-0.2,0-0.2,0c-0.1,0-0.2,0-0.3,0c0,0,0,0,0,0c0,0,0,0,0,0c0,0,0.1,0,0.1,0c0.1,0,0.1,0,0.1,0.1
		c0,0.1,0,0.1,0,0.4V43.5L33.8,43.5z"/>
	<path d="M35.6,43.5c0,0.2,0,0.3,0,0.4c0,0.1,0,0.1-0.1,0.1c0,0,0,0-0.1,0c0,0,0,0,0,0c0,0,0,0,0,0c0.1,0,0.2,0,0.2,0
		c0.1,0,0.2,0,0.4,0c0.3,0,0.5-0.1,0.6-0.2c0.1-0.1,0.2-0.3,0.2-0.5c0-0.2-0.1-0.4-0.2-0.5c-0.2-0.2-0.5-0.2-0.7-0.2
		c-0.1,0-0.2,0-0.3,0c0,0-0.2,0-0.3,0c0,0,0,0,0,0c0,0,0,0,0,0c0,0,0.1,0,0.1,0c0.1,0,0.1,0,0.1,0.1c0,0.1,0,0.1,0,0.4V43.5
		L35.6,43.5z M35.9,43.2c0-0.1,0-0.3,0-0.4c0,0,0,0,0,0c0,0,0.1,0,0.1,0c0.1,0,0.3,0,0.5,0.2c0.1,0.1,0.2,0.2,0.2,0.4
		c0,0.2,0,0.3-0.1,0.4c-0.1,0.1-0.2,0.1-0.4,0.1c-0.1,0-0.2,0-0.2-0.1c0,0,0-0.1,0-0.1c0,0,0-0.2,0-0.4V43.2L35.9,43.2z"/>
	<path d="M38.1,43.7C38.1,43.7,38.1,43.7,38.1,43.7l0.1,0.2c0,0,0,0,0,0c0,0,0,0,0,0c0,0,0,0,0.1,0c0.1,0,0.3,0,0.3,0
		c0.1,0,0.1,0,0.1,0c0,0,0,0,0,0c0,0,0,0-0.1,0c0,0-0.1,0-0.2-0.2c-0.1-0.3-0.4-1-0.4-1.1c0,0,0-0.1,0-0.1c0,0,0,0,0,0.1l-0.4,1.1
		c0,0.1-0.1,0.2-0.2,0.2c0,0,0,0-0.1,0c0,0,0,0,0,0c0,0,0,0,0,0c0.1,0,0.2,0,0.2,0c0.1,0,0.1,0,0.2,0c0,0,0,0,0,0c0,0,0,0,0,0h0
		c-0.1,0-0.1,0-0.1-0.1c0,0,0-0.1,0-0.1l0-0.1c0,0,0,0,0,0H38.1L38.1,43.7z M37.6,43.6C37.6,43.6,37.6,43.6,37.6,43.6l0.2-0.6
		c0,0,0,0,0,0c0,0,0,0,0,0l0.2,0.6c0,0,0,0,0,0H37.6L37.6,43.6z"/>
	<path d="M39.8,42.9c0.1-0.1,0.1-0.1,0.1-0.1c0,0,0,0,0.1,0c0,0,0,0,0,0c0,0,0,0,0,0c-0.1,0-0.1,0-0.2,0c0,0-0.1,0-0.2,0
		c0,0,0,0,0,0c0,0,0,0,0,0c0,0,0,0,0.1,0c0,0,0,0,0,0c0,0,0,0,0,0.1c0,0-0.2,0.3-0.2,0.4c-0.1-0.1-0.1-0.3-0.2-0.4c0,0,0,0,0,0
		c0,0,0,0,0,0c0,0,0,0,0,0c0,0,0,0,0,0c0,0,0,0,0,0c-0.1,0-0.2,0-0.2,0c-0.1,0-0.2,0-0.3,0c0,0,0,0,0,0c0,0,0,0,0,0c0,0,0,0,0.1,0
		c0.1,0,0.1,0.1,0.1,0.1l0.3,0.5L39,43.9c-0.1,0.1-0.1,0.1-0.1,0.1c0,0-0.1,0-0.1,0c0,0,0,0,0,0c0,0,0,0,0,0h0c0,0,0.1,0,0.1,0
		c0,0,0.2,0,0.2,0h0c0,0,0,0,0,0c0,0,0,0,0,0c0,0,0,0,0,0c0,0,0,0,0,0c0,0,0,0,0-0.1l0.3-0.4c0.1,0.1,0.2,0.3,0.3,0.5c0,0,0,0,0,0
		c0,0,0,0,0,0c0,0,0,0,0.1,0c0.1,0,0.3,0,0.3,0h0.1c0,0,0,0,0,0c0,0,0,0,0,0c0,0,0,0-0.1,0c0,0-0.1,0-0.1-0.1c0-0.1-0.3-0.5-0.4-0.6
		L39.8,42.9L39.8,42.9z"/>
	<path d="M42.7,43.7C42.7,43.7,42.7,43.7,42.7,43.7l0.1,0.2c0,0,0,0,0,0c0,0,0,0,0,0c0,0,0,0,0.1,0c0.1,0,0.3,0,0.3,0
		c0.1,0,0.1,0,0.1,0c0,0,0,0,0,0c0,0,0,0-0.1,0c0,0-0.1,0-0.2-0.2c-0.1-0.3-0.4-1-0.4-1.1c0,0,0-0.1,0-0.1c0,0,0,0,0,0.1L42,43.8
		c0,0.1-0.1,0.2-0.2,0.2c0,0,0,0-0.1,0c0,0,0,0,0,0c0,0,0,0,0,0c0.1,0,0.2,0,0.2,0c0.1,0,0.1,0,0.2,0c0,0,0,0,0,0c0,0,0,0,0,0h0
		c-0.1,0-0.1,0-0.1-0.1c0,0,0-0.1,0-0.1l0-0.1c0,0,0,0,0,0H42.7L42.7,43.7z M42.2,43.6C42.2,43.6,42.2,43.6,42.2,43.6l0.2-0.6
		c0,0,0,0,0,0c0,0,0,0,0,0l0.2,0.6c0,0,0,0,0,0H42.2L42.2,43.6z"/>
	<path d="M43.8,43.5c0,0.2,0,0.3,0,0.4c0,0.1,0,0.1-0.1,0.1c0,0,0,0-0.1,0c0,0,0,0,0,0c0,0,0,0,0,0c0.1,0,0.2,0,0.2,0
		c0,0,0.2,0,0.3,0c0,0,0,0,0,0c0,0,0,0,0,0c0,0-0.1,0-0.1,0c-0.1,0-0.1,0-0.1-0.1c0-0.1,0-0.2,0-0.4v-0.7l0.2,0
		c0.2,0,0.2,0.1,0.2,0.1l0,0c0,0,0,0,0,0c0,0,0,0,0,0c0,0,0-0.2,0-0.2c0,0,0,0,0,0c0,0-0.1,0-0.2,0h-0.7c-0.1,0-0.1,0-0.2,0
		c0,0-0.1,0-0.1,0c0,0,0,0,0,0c0,0,0,0.2,0,0.2c0,0,0,0,0,0c0,0,0,0,0,0c0,0,0,0,0-0.1c0,0,0.1,0,0.2-0.1l0.3,0V43.5L43.8,43.5z"/>
	<path d="M46.9,43.4C46.9,43.4,46.9,43.4,46.9,43.4c0,0,0.2,0,0.3,0c0.1,0,0.1,0,0.1,0.1c0,0,0,0,0,0.1c0,0,0,0,0,0c0,0,0,0,0,0
		c0,0,0-0.1,0-0.1c0-0.1,0-0.1,0-0.1c0,0,0,0,0,0c0,0,0,0,0,0c0,0,0,0-0.1,0c0,0,0,0-0.1,0l-0.2,0c0,0,0,0,0,0v-0.4c0,0,0,0,0,0
		l0.3,0c0.1,0,0.1,0,0.1,0.1c0,0,0,0.1,0,0.1c0,0,0,0,0,0c0,0,0,0,0,0c0,0,0-0.1,0-0.1c0,0,0-0.1,0-0.1c0,0,0,0,0,0c0,0,0,0,0,0
		c0,0,0,0-0.1,0c0,0-0.4,0-0.5,0c-0.1,0-0.2,0-0.3,0c0,0,0,0,0,0c0,0,0,0,0,0c0,0,0.1,0,0.1,0c0.1,0,0.1,0,0.1,0.1
		c0,0.1,0,0.1,0,0.4v0.3c0,0.2,0,0.3,0,0.4c0,0.1,0,0.1-0.1,0.1c0,0,0,0-0.1,0c0,0,0,0,0,0c0,0,0,0,0,0c0.1,0,0.2,0,0.2,0
		c0,0,0.2,0,0.3,0c0,0,0,0,0,0c0,0,0,0,0,0c0,0-0.1,0-0.1,0c-0.1,0-0.1,0-0.1-0.1c0-0.1,0-0.2,0-0.4V43.4L46.9,43.4z"/>
	<path d="M48,43.5c0,0.2,0,0.3,0,0.4c0,0,0,0.1-0.1,0.1c0,0,0,0-0.1,0c0,0,0,0,0,0c0,0,0,0,0,0c0.1,0,0.2,0,0.2,0c0,0,0.2,0,0.3,0
		c0,0,0,0,0,0c0,0,0,0,0,0c0,0-0.1,0-0.1,0c-0.1,0-0.1,0-0.1-0.1c0-0.1,0-0.2,0-0.4v-0.3c0-0.3,0-0.3,0-0.4c0-0.1,0-0.1,0.1-0.1
		c0,0,0,0,0.1,0c0,0,0,0,0,0c0,0,0,0,0,0c-0.1,0-0.2,0-0.2,0c-0.1,0-0.2,0-0.2,0c0,0,0,0,0,0c0,0,0,0,0,0c0,0,0,0,0.1,0
		c0,0,0.1,0,0.1,0.1c0,0.1,0,0.1,0,0.4V43.5L48,43.5z"/>
	<path d="M49.1,43.5c0,0.2,0,0.3,0,0.4c0,0.1,0,0.1-0.1,0.1c0,0,0,0-0.1,0c0,0,0,0,0,0c0,0,0,0,0,0c0.1,0,0.2,0,0.2,0
		c0.1,0,0.3,0,0.4,0c0.3,0,0.5-0.1,0.6-0.2c0.1-0.1,0.2-0.3,0.2-0.5c0-0.2-0.1-0.4-0.2-0.5c-0.2-0.2-0.5-0.2-0.7-0.2
		c-0.1,0-0.2,0-0.3,0c0,0-0.2,0-0.3,0c0,0,0,0,0,0c0,0,0,0,0,0c0,0,0.1,0,0.1,0c0.1,0,0.1,0,0.1,0.1c0,0.1,0,0.1,0,0.4V43.5
		L49.1,43.5z M49.3,43.2c0-0.1,0-0.3,0-0.4c0,0,0,0,0,0c0,0,0.1,0,0.1,0c0.1,0,0.3,0,0.5,0.2c0.1,0.1,0.2,0.2,0.2,0.4
		c0,0.2,0,0.3-0.2,0.4c-0.1,0.1-0.2,0.1-0.4,0.1c-0.1,0-0.2,0-0.2-0.1c0,0,0-0.1,0-0.1c0,0,0-0.2,0-0.4V43.2L49.3,43.2z"/>
	<path d="M51,43.5c0,0.2,0,0.3,0,0.4c0,0.1,0,0.1-0.1,0.1c0,0,0,0-0.1,0c0,0,0,0,0,0c0,0,0,0,0,0c0.1,0,0.2,0,0.2,0
		c0.1,0,0.2,0,0.5,0c0.1,0,0.1,0,0.1,0c0,0,0-0.2,0-0.2c0,0,0,0,0,0c0,0,0,0,0,0c0,0.1,0,0.1-0.1,0.1c0,0-0.1,0-0.2,0
		c-0.2,0-0.2,0-0.2-0.1c0-0.1,0-0.2,0-0.3v-0.1c0,0,0,0,0,0c0,0,0.2,0,0.3,0c0.1,0,0.1,0,0.1,0.1c0,0,0,0,0,0.1c0,0,0,0,0,0
		c0,0,0,0,0,0c0,0,0-0.1,0-0.1c0-0.1,0-0.1,0-0.1c0,0,0,0,0,0c0,0,0,0,0,0c0,0,0,0-0.1,0c0,0-0.2,0-0.3,0c0,0,0,0,0,0v-0.5
		c0,0,0,0,0,0c0,0,0.2,0,0.3,0c0.1,0,0.1,0,0.1,0.1c0,0,0,0,0,0.1c0,0,0,0,0,0c0,0,0,0,0,0c0,0,0-0.1,0-0.1c0-0.1,0-0.1,0-0.1
		c0,0,0,0,0,0c0,0,0,0,0,0c0,0,0,0-0.1,0c0,0-0.4,0-0.4,0c0,0-0.2,0-0.3,0c0,0,0,0,0,0c0,0,0,0,0,0c0,0,0.1,0,0.1,0
		c0.1,0,0.1,0,0.1,0.1c0,0.1,0,0.1,0,0.4V43.5L51,43.5z"/>
	<path d="M52.6,43.2c0-0.3,0-0.3,0-0.4c0-0.1,0-0.1,0.1-0.1c0,0,0.1,0,0.1,0c0,0,0,0,0,0c0,0,0,0,0,0c-0.1,0-0.2,0-0.2,0
		c0,0-0.2,0-0.2,0c0,0,0,0,0,0c0,0,0,0,0,0c0,0,0,0,0.1,0c0.1,0,0.1,0,0.1,0.1c0,0.1,0,0.1,0,0.4v0.3c0,0.2,0,0.3,0,0.4
		c0,0.1,0,0.1,0,0.1c0,0,0,0-0.1,0c0,0,0,0,0,0c0,0,0,0,0,0c0.1,0,0.2,0,0.2,0c0.1,0,0.3,0,0.5,0c0.1,0,0.1,0,0.1,0c0,0,0-0.2,0-0.2
		c0,0,0,0,0,0c0,0,0,0,0,0c0,0,0,0.1,0,0.1c0,0.1-0.1,0.1-0.2,0.1c-0.1,0-0.2,0-0.2,0c0,0,0-0.2,0-0.4V43.2L52.6,43.2z"/>
	<path d="M53.7,43.5c0,0.2,0,0.3,0,0.4c0,0,0,0.1-0.1,0.1c0,0,0,0-0.1,0c0,0,0,0,0,0c0,0,0,0,0,0c0.1,0,0.2,0,0.2,0c0,0,0.2,0,0.3,0
		c0,0,0,0,0,0c0,0,0,0,0,0c0,0-0.1,0-0.1,0c-0.1,0-0.1,0-0.1-0.1c0-0.1,0-0.2,0-0.4v-0.3c0-0.3,0-0.3,0-0.4c0-0.1,0-0.1,0.1-0.1
		c0,0,0,0,0.1,0c0,0,0,0,0,0c0,0,0,0,0,0c-0.1,0-0.2,0-0.2,0c-0.1,0-0.2,0-0.2,0c0,0,0,0,0,0c0,0,0,0,0,0c0,0,0,0,0.1,0
		c0,0,0.1,0,0.1,0.1c0,0.1,0,0.1,0,0.4V43.5L53.7,43.5z"/>
	<path d="M54.9,44.1c0.1,0,0.2,0,0.3-0.1c0.1-0.1,0.2-0.2,0.2-0.3c0-0.2-0.1-0.3-0.3-0.5l0,0c-0.1-0.1-0.2-0.2-0.2-0.3
		c0-0.1,0.1-0.2,0.2-0.2c0.1,0,0.2,0.1,0.2,0.1c0,0,0,0.1,0,0.1c0,0,0,0,0,0c0,0,0,0,0-0.1c0-0.1,0-0.2,0-0.2c0,0,0,0,0,0
		c0,0-0.1,0-0.2,0c-0.2,0-0.4,0.1-0.4,0.3c0,0.1,0.1,0.3,0.3,0.4l0.1,0.1c0.1,0.1,0.2,0.2,0.2,0.3C55.2,43.9,55.1,44,54.9,44.1
		c-0.1-0.1-0.2-0.1-0.2-0.3c0,0,0-0.1,0-0.1c0,0,0,0,0,0c0,0,0,0,0,0c0,0,0,0.1,0,0.2c0,0,0,0,0,0.1C54.8,44,54.8,44.1,54.9,44.1
		L54.9,44.1z"/>
	<path d="M49.6,7.5c0-0.3-0.5-0.5-0.6-0.5c-0.2,0-0.5,0.4-0.7,0.7c-0.2-1.3-0.1-1.8,0-2.4c0.5,1,1.3,1.2,1.6,1.1c-1.3-1-1.1-2-1.5-2
		c-0.2,0-0.4,0-0.5,0c-0.5,0-0.5,0.9-0.6,1.3c-0.3-0.5-0.6-1-1.1-1.6c-0.5-1.2-1.1-0.9-1.7-1.5c0.5,0.7,0.1,1.1,1.2,1.6
		c0.3,0.3,0.6,0.7,0.8,1c-0.2,0.2-0.3,0.4-0.5,0.5C46,6,46,6.8,45.6,7.4c0.6-0.3,0.9-0.6,1.1-1c1.9,1.5,0.4,5.2-0.1,6
		c-0.4-0.3-1-0.4-1.5-0.5L45,11.7l-0.5-1.5h0.2c0.2,0,0.3-0.2,0.3-0.3l1.3,0.4l0.6,0.2L46.6,10L46,9.1l0.6-0.9L47,7.8L46.4,8
		l-1.2,0.4c-0.1-0.3-0.3-0.4-0.6-0.4L45,6.5L45.2,6l-0.5,0.4l-0.9,0.6L43,6.3L42.5,6l0.2,0.6l0.4,1.4c-0.2,0-0.5,0.2-0.6,0.4L41.3,8
		l-0.6-0.2l0.4,0.5l0.6,0.9L41.1,10l-0.4,0.5l0.6-0.2l1.3-0.4c0,0.1,0,0.3,0.3,0.3h0.2l-0.5,1.5l-0.1,0.2c-0.5,0.1-1.1,0.3-1.5,0.6
		c-1.3-2.5-0.9-5.1,0.2-5.9c0,0.5,0.5,1.3,0.7,1.4c-0.1-0.6,0.1-1.5-0.2-1.8c-0.2-0.2-0.5-0.3-0.8-0.2c0.2-0.4,0.5-0.8,1-1.5
		c0.8-0.4,1-1.3,1.2-1.7c-0.8,0.3-1.4,0.7-1.6,1.4c-0.3,0.4-0.6,0.9-1,1.4c0-0.7-0.3-0.9-0.8-0.9c-1.4,0.3-1.3,1.3-2.5,2
		c0.8,0.3,2.1-1.5,2.6-1.3c0.1,1.1-0.2,2-0.2,2.6c-0.2-0.2-0.3-0.4-0.5-0.4c-0.2,0-0.6,0-1,0.4c-0.1,0.6-0.1,1.6-0.6,2.9
		c0.8-0.7,1.2-2.1,1.3-2.5c0.2,0.3,0.4,0.9,0.5,1.4c0.1,1,0.7,2.7,1.2,3.5c-0.1,0.3-0.2,0.6-0.1,1c-0.4,0.3-0.5,0.7-0.3,1
		c0.2,0.3,0.6,0.5,1,0.3l0.1-0.1c0.5-0.2,1.4-0.6,2.6-0.6c1.1,0,2.1,0.4,2.6,0.6l0.1,0.1c0.5,0.2,0.9,0,1-0.3c0.1-0.3,0.1-0.7-0.3-1
		c0.1-0.4,0-0.7-0.2-1l0,0c1-1.4,1-4,1.8-4.7c0.1,0.9,0.6,1.7,1,1.8C49.6,9.4,49.6,8.1,49.6,7.5L49.6,7.5z M45.2,8.8l0.7-0.2L45.6,9
		l-0.1,0.1l0.1,0.1l0.3,0.5L45,9.5C45.1,9.3,45.2,9.1,45.2,8.8L45.2,8.8z M41.8,9.7l0.3-0.5l0.1-0.1L42.1,9l-0.3-0.5l0.7,0.2
		c0,0.3,0.1,0.5,0.2,0.7L41.8,9.7L41.8,9.7z M44.6,9.5H44l0.1-1C45,8.1,44.9,8.9,44.6,9.5L44.6,9.5z M44.4,11.2L44,10.9l-0.1-0.1
		l-0.1,0.1l-0.5,0.3l0.3-1h0.6L44.4,11.2L44.4,11.2z M43.7,7.4l0.1,0.1L44,7.4L44.4,7l-0.3,0.9c0,0,0,0,0,0c0-0.1-0.2-0.2-0.3-0.2
		c-0.1,0-0.2,0.1-0.3,0.2c0,0,0,0,0,0L43.2,7L43.7,7.4L43.7,7.4z M43.1,9.5c-0.3-0.6-0.3-1.4,0.5-1l0.1,1H43.1L43.1,9.5z M43.8,11.3
		l0.7,0.5c-0.3,0-0.5,0-0.7,0c-0.1,0-0.4,0-0.7,0L43.8,11.3L43.8,11.3z M41.1,14.8L41,14.8c-0.2,0.1-0.3,0-0.4-0.1
		c-0.1-0.1,0-0.3,0.2-0.4c0,0,0.1,0,0.1-0.1l0.5,0.4C41.3,14.7,41.2,14.7,41.1,14.8L41.1,14.8z M42.7,14.3l-0.5-0.5
		c0.4-0.1,0.8-0.2,1.3-0.2l0.3,0.6C43.4,14.1,43,14.2,42.7,14.3L42.7,14.3z M45.4,14.4l-0.3-0.7c0.4,0.1,0.9,0.2,1.2,0.4l0.2,0.7
		C46.3,14.6,45.9,14.5,45.4,14.4L45.4,14.4z M43.8,13c-0.9,0-2,0.2-2.8,0.6c0-0.2,0.1-0.3,0.2-0.5c0.5-0.6,1.7-0.8,2.6-0.8
		c0.9,0,2.1,0.2,2.6,0.8c0.1,0.1,0.2,0.3,0.2,0.5C45.8,13.3,44.8,13,43.8,13L43.8,13z"/>
	<path d="M37.2,27.8c0.1-1.1,0-1.2-0.4-1.4c-0.3-0.2-0.7-0.3-1.2-0.6c-0.3-0.2-0.4-0.5-0.8-1c0.1-1.1,1.3-2.5,1.7-2.3l0-0.5
		c-0.5-0.2-1.4,0.3-2.2,2.2c-0.1-0.1-0.2-0.1-0.2-0.2c0.1-0.4-0.1-0.8-0.4-1.1c0.3-0.2,1.1-0.6,1.5-0.9c0.5-0.4,0.6-0.5,1.2-0.4
		c0,0,0.1-0.1,0.2-0.3c-0.5-0.6-1.1-0.4-1.6,0.1c-0.4,0.3-1.2,0.8-1.8,1c-0.8-0.7-2-1.2-2.8-2.1c0,0,1.2,0,1.7-0.2
		c0.1-0.1,0.5-0.7,0.4-1.2c-0.2-0.1-0.4-0.2-0.7-0.3c-0.3-0.2-0.6-0.4-0.8-0.5c-0.5-0.4-0.7-0.7-1.6-0.9c0.1-0.4,0.1-0.3,0.5-0.6
		c0.5-0.3,0.8-0.7,1-1.1c0.2-0.3,0-0.9-0.4-0.1c-0.1,0.3-0.5,0.7-0.9,0.8c0-0.3,0-0.4,0-0.5c1.3-0.9,1.1-1.7,1.1-2.4
		c-0.1-0.4-0.5-0.6-0.5-0.2c0,0.3,0.3,1.1-0.6,1.6c0-0.4-0.1-0.5-0.2-0.7c0.8-1,0.5-2,0.1-2.5c-0.2-0.3-0.7-0.4-0.5,0.1
		c0.2,0.4,0.5,1.4-0.1,1.8c-0.2-0.2-0.4-0.3-0.5-0.7c0.1-1.1,0-1.8-0.2-2.2c-0.1-0.4-0.5-0.6-0.5-0.1c0,0.6,0.1,1.4,0,1.4
		c-0.1,0-0.9-0.7-1.2-0.9c-0.3-0.2-0.7-0.1-0.3,0.3c0.3,0.4,1.4,1.2,1.3,1.4c-0.1,0.2-0.8-0.5-1.2-0.6c-0.4-0.1-0.5,0.1-0.2,0.3
		c0.5,0.4,0.9,0.7,1.8,1c0.9,0.3,1.3,1.5,1,3.3c0,0.1-0.2,0.1-0.2,0c0-0.7-0.2-1.5-0.3-1.8c-0.2-0.5-0.6-0.5-0.5,0.2
		c0.1,0.5,0.2,1,0.1,1.7c-0.7-0.1-1-0.3-1.3-0.5c0-0.3,0.1-0.9,0.2-1.4c0-0.5-0.3-0.8-0.4-0.2c-0.2,0.6-0.3,0.9-0.4,1.3
		c-0.2-0.1-0.4-0.2-0.5-0.3c0-0.1,0-0.7-0.1-1.2c-0.1-0.5-0.3-0.5-0.4,0c-0.1,0.2-0.1,0.5-0.2,0.9c-0.3-0.2-0.4-0.4-0.5-0.7
		c0-0.6,0.1-1.2,0.2-1.5c0-0.3-0.1-0.8-0.3-0.2c-0.2,0.5-0.2,0.9-0.3,1.2c-0.2,0-0.4-1.1-0.6-1.8c-0.1-0.3-0.3-0.7-0.4,0
		c-0.1,0.8,0.1,1.5,0.3,1.9c-0.4,0-0.7-0.7-1-1.1c-0.2-0.3-0.3,0-0.3,0.2c0.2,1.4,1.3,1.9,1.8,2c0.8,1.1,2.2,1.6,3.5,2.1
		c-1.6,0-2,0.6-2.8,0.2c0,0.6,0.3,0.9,0.6,1c0.2,0.1,0.4,0.1,0.5,0.1c0.1,0.7,0.8,0.7,1.4,0.7c-0.2,1.4,0,3.3,1.3,4.8
		c0,0.7-0.1,1.7-0.1,2.3c-1,1-2,3-2.3,4.1c-0.3,0.8-0.7,1.5-1.3,1.8c0.5,0.5,1.3,0.3,1.7,0c0,0.5,0.1,0.8,0.2,1.1
		c-0.3,0.4-0.5,0.7-0.5,1.3c-0.3,0.1-0.6,0.3-0.7,0.5c-0.1,0.1,0,0.8,0.1,1.1c0.4,0.9,0.1,3,0,3.6c0.2,0,0.5,0,0.6-0.2
		c0.1,0.1,0.4,0.3,0.5,0.7c0,0.2-0.1,0.8,0.2,0.9c0.3,0.1,1.4,0,1.6-0.2c-0.1-0.1-0.3-0.4-0.4-0.7c0-0.3,0-0.7-0.1-0.9
		c-0.1-0.2-0.5-0.8-0.7-1c0-0.4-0.1-2.1,0.1-2.7c0.3-0.2,2.3-1.7,2.8-3.2c0.4,0.1,0.3,1.1,0.3,2.4c0,0.4,0.4,0.5,0.7,0.6
		c0.6,0.1,1.3,0.6,2.2,1.9c0.2-0.2,0.4-0.4,0.4-0.4c0.1,0.2,0.2,0.5,0.3,0.8c0.1,0.2,0.8,0.3,1.4,0.1c0.2-0.1,0.3-0.1,0.4-0.3
		c-0.7-1.2-1.1-2-2-2.7c-0.4-0.3-1-0.5-1.4-0.8c0.3-0.6,1.2-3.3,0.6-4.3c-0.2-0.3-0.8-0.7-1.6-0.5c0.7-0.8,2-2.3,2.2-2.8
		c0.2,0.2,0.9,0.1,1.5,0.3c0.2,0.1,0.8,0.9,0.8,1.1c0.1,0.5,0.1,1-0.3,2.3c0.2,0,0.2-0.1,0.4-0.1c0,0.4-0.1,0.6-0.4,1.2
		c0.1,0.5,0.3,1.2,0.5,1.3c0.3-0.9,1.4-2.1,1.4-2.9C37.6,29.1,37.2,28.2,37.2,27.8L37.2,27.8z M26.6,18.6c-0.2-0.2-0.2-0.4-0.3-0.5
		c0.6-0.4,1.4-0.1,1.8-0.5c0.3,0.2,0.7,0,0.9,0c0.6-0.1,1.4,0.6,2,1c0.2,0.2,0.5,0.3,0.6,0.3c-0.2,0.5-0.1,0.6,0.3,0.7
		c0,0.1-0.1,0.2-0.6,0.2c-0.5-0.1-1.1,0-1.3,0c-1.4,0.8-1.9-0.4-1.9-1.2c0,0,0,0,0,0c0,0,0,0,0,0C27.2,19.1,26.8,18.9,26.6,18.6
		L26.6,18.6z M32.4,30.5c0.5,0.6-0.2,3.3-0.5,3.8c-0.2,0.4,0.2,0.7,0.4,0.8c1.1,0.3,2.1,1.3,2.5,2.1l-0.4,0.2
		c-0.8-1.1-1-0.7-1.2-0.5c-0.2-0.4-1.2-1.4-1.8-1.5c-0.6-0.1-0.6-0.4-0.5-0.7c0.1-0.6,0-1.4,0-1.9c-0.1-0.4-0.4-0.8-0.6-0.8
		c0.1-0.3,0-1.2,0.7-1.6C31.6,30,32.3,30.3,32.4,30.5L32.4,30.5z M36.8,31.1c-0.1,0-0.2,0-0.2-0.1c0.2-0.6,0.2-0.9,0.2-1.1
		c-0.1,0-0.2,0-0.3,0c0.2-1,0.1-1.6,0-2c-0.1-0.4-0.7-1-0.8-1.1c-0.3-0.2-0.5-0.3-1.1-0.4c-1.2-1-1.5-0.4-2.4-0.5
		c-0.1-0.2-0.3-0.4-0.3-0.4l-0.4,0.3c0,0,0.4,0.5,0.4,0.8c0,0,0.8-0.1,1.4,0c-0.2,0.8-1.3,1.8-2.3,2.9c-1.1,1.2-1.1,1.5-1.1,2.4
		c0,1.1-1.5,2.8-2.7,3.6c-0.1,0.3-0.2,2.8-0.1,3.2c0.1,0.1,0.4,0.5,0.6,0.9c0.1,0.1,0.1,0.5,0.1,0.8c-0.2,0-0.3,0-0.4-0.1
		c-0.1-0.4-0.4-0.8-0.9-1.2c0.1-1.4,0.3-2.1-0.2-3.5c0-0.1,0.6-0.5,0.6-0.5s0.2-1,0.8-1.5c-0.4-1.1-0.5-2.6-0.5-2.6
		s-0.3,0.3-0.7,0.6c1.1-3.5,1.3-2.5,2.6-5.1c0.9-4.1-1.5-4.9-1.1-6.4c0.8,0.8,1.3,0.5,1.9,0.3c0.6,0.5,1.5,1.7,2.3,2
		c1.3,0.5,1.3,1.7,1.1,2.3c0.6,0,1,0.2,1.2,0.5c0.9,1.5,1.6,1,2.1,1.6c0.2,0.3,0,1.1,0.3,1.8c0.2,0.5,0.3,1.1,0.3,1.2
		C37.1,30.3,36.8,30.7,36.8,31.1L36.8,31.1z"/>
	<path d="M29.6,18.9c0.3,0,0.4-0.2,0.7-0.1c0-0.1-0.2-0.1-0.2-0.2c0,0,0,0,0-0.1c0-0.3-0.1-0.5-0.5-0.5c-0.1,0.2-0.5,0.4-0.7,0.5
		c0.1,0,0.1,0,0.2,0C29.3,18.7,29.3,18.9,29.6,18.9L29.6,18.9z"/>
	<path d="M51.1,21.3h-7.2h-7.2h-0.3v0.3v5.2c0.1,0.1,0.2,0.1,0.3,0.2c0.2,0.3,0,1.1,0.3,1.8c0,0,0,0.1,0,0.1h6.7v10.7
		c-0.8-0.3-2.4-1.1-3.9-2.5c-1.8-1.8-2.8-3.9-2.9-6.4c-0.1,0.1-0.1,0.2-0.1,0.3c-0.1,0-0.2,0-0.2-0.1c0.2-0.6,0.2-0.9,0.2-1.1
		c-0.1,0-0.2,0-0.3,0c0.2-1,0.1-1.6,0-2c0,0,0-0.1-0.1-0.1v2.5c0,2.8,1,5.2,3.1,7.2c1.8,1.7,3.8,2.5,4.4,2.7l0.1,0l0.1,0
		c0.6-0.2,2.6-1,4.4-2.7c2-2,3.1-4.4,3.1-7.2v-0.5c-0.2,0.3-0.4,0.5-0.5,0.5c0,2.7-1,4.9-2.9,6.8c-1.5,1.4-3.1,2.2-3.9,2.5V28.9h6.8
		v1c0.7-0.9,0.4-3.2,0-3.4v2h-14v-6.7h7h7v4.6c0.2-0.1,0.4,0,0.5,0.3v-5.2v-0.3H51.1z"/>
	<g>
		<path d="M7.2,54.2c0,0-0.2,0.1-0.5,0.1c-0.4,0-0.8-0.3-1-0.4c-0.3-0.2-0.7-0.4-1.1-0.6c-0.8,0-1.4-0.2-1.8-0.8
			c-0.4-0.5-0.6-1.2-0.6-2.1c0-1.2,0.5-2.2,1.3-2.6c0.3-0.2,0.7-0.3,1.2-0.3c1.5,0,2.4,1.1,2.4,2.8c0,1.2-0.4,2.1-1.1,2.6
			c0.2,0.1,0.4,0.2,0.5,0.3c0.2,0.1,0.4,0.2,0.7,0.2c0.2,0,0.5,0,0.5,0L7.2,54.2z M5.5,49.2c-0.1-0.3-0.4-0.7-1-0.7
			c-0.4,0-0.7,0.2-0.9,0.5c-0.2,0.4-0.3,0.8-0.3,1.5c0,1,0.2,1.6,0.5,1.8c0.2,0.1,0.4,0.2,0.7,0.2c0.8,0,1.1-0.6,1.1-2
			C5.6,49.9,5.6,49.5,5.5,49.2z"/>
		<path d="M10.5,53.4c-0.1-0.1-0.2-0.2-0.3-0.4c-0.3,0.3-0.6,0.4-1.1,0.4c-0.6,0-1.1-0.3-1.2-0.7c-0.1-0.2-0.1-0.4-0.1-0.8v-2.6
			l1.1-0.2v2.6c0,0.4,0,0.6,0.1,0.7c0.1,0.1,0.2,0.2,0.4,0.2c0.3,0,0.6-0.2,0.7-0.4v-2.9l1-0.2v3.1c0,0.3,0.1,0.6,0.2,0.7L10.5,53.4
			z"/>
		<path d="M13.2,51.6L13.2,51.6c0,0.7,0.3,1,0.9,1c0.4,0,0.7-0.1,1-0.4l0.4,0.6c-0.5,0.4-1,0.6-1.5,0.6c-1.2,0-1.9-0.8-1.9-2.1
			c0-0.7,0.2-1.2,0.5-1.6c0.3-0.4,0.7-0.6,1.3-0.6c0.5,0,0.9,0.2,1.2,0.4c0.4,0.4,0.5,0.9,0.5,1.8v0.2H13.2z M14.4,50.7
			c0-0.3,0-0.5-0.1-0.6c-0.1-0.2-0.3-0.2-0.5-0.2c-0.4,0-0.6,0.3-0.6,0.9v0L14.4,50.7L14.4,50.7z"/>
		<path d="M17.3,51.6L17.3,51.6c0,0.7,0.3,1,0.9,1c0.4,0,0.7-0.1,1-0.4l0.4,0.6c-0.5,0.4-1,0.6-1.5,0.6c-1.2,0-1.9-0.8-1.9-2.1
			c0-0.7,0.2-1.2,0.5-1.6c0.3-0.4,0.7-0.6,1.3-0.6c0.5,0,0.9,0.2,1.2,0.4c0.4,0.4,0.5,0.9,0.5,1.8v0.2H17.3z M18.6,50.7
			c0-0.3,0-0.5-0.1-0.6c-0.1-0.2-0.3-0.2-0.5-0.2c-0.4,0-0.6,0.3-0.6,0.9v0L18.6,50.7L18.6,50.7z"/>
		<path d="M22.7,53.3v-2.7c0-0.5-0.1-0.6-0.4-0.6c-0.2,0-0.5,0.1-0.7,0.4v2.9h-1.1v-3c0-0.4,0-0.7-0.1-1l1-0.3
			c0.1,0.2,0.2,0.3,0.2,0.5c0.2-0.1,0.3-0.2,0.5-0.3c0.2-0.1,0.5-0.2,0.7-0.2c0.5,0,0.9,0.2,1,0.6c0.1,0.2,0.1,0.3,0.1,0.6v3H22.7z"
			/>
		<path d="M26.2,53.4c-0.5,0-1.1-0.2-1.7-0.5l0.4-0.8c0.3,0.2,0.9,0.5,1.4,0.5c0.3,0,0.5-0.2,0.5-0.5c0-0.3-0.2-0.4-0.6-0.5
			l-0.5-0.1c-0.3,0-0.6-0.2-0.8-0.4c-0.1-0.2-0.2-0.5-0.2-0.7c0-0.8,0.6-1.3,1.6-1.3c0.7,0,1.1,0.2,1.5,0.4l-0.4,0.7
			c-0.4-0.2-0.7-0.3-1-0.3c-0.3,0-0.5,0.2-0.5,0.4c0,0.2,0.1,0.3,0.5,0.4l0.5,0.1c0.5,0.1,0.7,0.3,0.8,0.5c0.2,0.2,0.2,0.4,0.2,0.7
			C28,52.8,27.2,53.4,26.2,53.4z"/>
		<path d="M29.9,53.4c-0.5,0-0.8-0.2-1-0.6c-0.1-0.2-0.1-0.3-0.1-0.9v-3.1c0-0.5,0-0.9-0.1-1.2l1.1-0.2c0,0.2,0.1,0.5,0.1,1.1v3.2
			c0,0.7,0,0.8,0.1,0.9c0,0.1,0.1,0.1,0.2,0.1c0,0,0.1,0,0.1,0l0.2,0.6C30.3,53.3,30.1,53.4,29.9,53.4z"/>
		<path d="M33.9,53.5c-0.2-0.1-0.5-0.3-0.6-0.5c-0.1,0.1-0.2,0.2-0.2,0.2c-0.2,0.1-0.5,0.2-0.8,0.2c-0.9,0-1.4-0.5-1.4-1.3
			c0-1,0.7-1.4,2-1.4c0.1,0,0.2,0,0.2,0v-0.2c0-0.5-0.1-0.6-0.5-0.6c-0.3,0-0.7,0.2-1.2,0.5l-0.5-0.8c0.2-0.1,0.4-0.2,0.7-0.3
			c0.4-0.2,0.7-0.2,1.1-0.2c0.7,0,1.2,0.3,1.3,0.7c0.1,0.2,0.1,0.3,0.1,0.7l0,1.4c0,0.4,0,0.6,0.4,0.9L33.9,53.5z M33,51.5
			c-0.7,0-1,0.1-1,0.6c0,0.3,0.2,0.5,0.5,0.5c0.2,0,0.4-0.1,0.6-0.3L33,51.5L33,51.5z"/>
		<path d="M37.5,53.3v-2.7c0-0.5-0.1-0.6-0.4-0.6c-0.2,0-0.5,0.1-0.7,0.4v2.9h-1.1v-3c0-0.4,0-0.7-0.1-1l1-0.3
			c0.1,0.2,0.2,0.3,0.2,0.5c0.2-0.1,0.3-0.2,0.5-0.3c0.2-0.1,0.5-0.2,0.7-0.2c0.5,0,0.9,0.2,1,0.6c0.1,0.2,0.1,0.3,0.1,0.6v3H37.5z"
			/>
		<path d="M42.2,53.3c0-0.1,0-0.1-0.1-0.2c-0.3,0.2-0.6,0.3-0.9,0.3c-1,0-1.7-0.8-1.7-2.1c0-1.3,0.7-2.2,1.8-2.2
			c0.3,0,0.5,0.1,0.7,0.2c0-0.1,0-0.4,0-0.6v-1.4l1.1,0.2v4.3c0,1,0.1,1.3,0.2,1.5H42.2z M42,50.3c-0.2-0.2-0.4-0.3-0.6-0.3
			c-0.5,0-0.7,0.4-0.7,1.3c0,0.9,0.2,1.2,0.7,1.2c0.2,0,0.4-0.1,0.5-0.3V50.3z"/>
		<path d="M48.5,53.4c-0.7,0-1.3-0.2-1.7-0.7c-0.5-0.5-0.7-1.2-0.7-2.1c0-1,0.3-1.8,0.8-2.3c0.4-0.4,0.9-0.5,1.4-0.5
			c0.6,0,1.1,0.2,1.5,0.5l-0.3,0.4c-0.4-0.3-0.8-0.4-1.2-0.4c-0.6,0-1.1,0.3-1.4,0.9c-0.1,0.4-0.2,0.9-0.2,1.4
			c0,0.7,0.1,1.3,0.4,1.7c0.2,0.4,0.8,0.6,1.3,0.6c0.3,0,0.6-0.1,0.9-0.2v-1.7h-1.1l-0.1-0.5H50v2.6C49.6,53.2,49,53.4,48.5,53.4z"
			/>
		<path d="M52.8,53.4c-1.1,0-1.7-0.8-1.7-2.1c0-1.3,0.6-2.1,1.7-2.1c0.7,0,1.1,0.3,1.4,0.7c0.2,0.4,0.4,0.8,0.4,1.5
			C54.5,52.7,53.8,53.4,52.8,53.4z M53.6,50.2c-0.2-0.4-0.5-0.5-0.8-0.5c-0.4,0-0.7,0.2-0.8,0.4c-0.1,0.2-0.2,0.6-0.2,1
			c0,0.6,0.1,1.1,0.2,1.3c0.1,0.2,0.5,0.4,0.8,0.4c0.4,0,0.7-0.2,0.9-0.6c0.1-0.2,0.1-0.5,0.1-0.9C53.8,50.8,53.7,50.5,53.6,50.2z"
			/>
		<path d="M57,53.3h-0.6l-1.4-4l0.6-0.1l0.9,2.7c0.1,0.3,0.2,0.7,0.2,0.7h0c0,0,0.1-0.3,0.2-0.7l0.9-2.6h0.7L57,53.3z"/>
		<path d="M59.7,51.4L59.7,51.4c0,0.5,0,0.8,0.2,1c0.2,0.3,0.6,0.5,1,0.5c0.4,0,0.7-0.1,1-0.4l0.2,0.4c-0.4,0.3-0.8,0.5-1.3,0.5
			c-1.1,0-1.8-0.8-1.8-2.1c0-0.7,0.1-1.1,0.5-1.5c0.3-0.4,0.7-0.6,1.2-0.6c0.4,0,0.8,0.2,1.1,0.4c0.3,0.4,0.5,0.7,0.5,1.7v0.1H59.7z
			 M61.4,50c-0.1-0.2-0.4-0.4-0.7-0.4c-0.6,0-0.9,0.4-0.9,1.2h1.8C61.6,50.5,61.5,50.2,61.4,50z"/>
		<path d="M65,49.9c0,0-0.1,0-0.2,0c-0.2,0-0.5,0.1-0.7,0.3C64,50.3,64,50.5,64,50.8v2.5h-0.6v-3.1c0-0.6-0.1-0.8-0.1-0.8l0.6-0.2
			c0,0,0.2,0.3,0.1,0.6c0.3-0.4,0.7-0.7,1.1-0.7c0.1,0,0.2,0,0.2,0L65,49.9z"/>
		<path d="M68.2,53.3v-2.7c0-0.4,0-0.5-0.1-0.7c-0.1-0.1-0.3-0.2-0.4-0.2c-0.3,0-0.8,0.3-1.1,0.6v3h-0.6v-3.1c0-0.6-0.2-0.8-0.2-0.8
			l0.6-0.2c0,0,0.1,0.3,0.1,0.6c0.4-0.4,0.8-0.6,1.3-0.6c0.4,0,0.8,0.2,1,0.6c0.1,0.1,0.1,0.3,0.1,0.5v3H68.2z"/>
		<path d="M74.2,53.3v-2.9c0-0.4-0.2-0.6-0.5-0.6c-0.4,0-0.6,0.2-1.1,0.6v2.9H72v-2.8c0-0.2,0-0.4-0.1-0.5c-0.1-0.1-0.2-0.2-0.4-0.2
			c-0.3,0-0.6,0.2-1,0.5v3h-0.6v-3.1c0-0.6-0.1-0.8-0.1-0.8l0.6-0.1c0,0,0.1,0.3,0.1,0.6c0.3-0.3,0.8-0.6,1.2-0.6
			c0.4,0,0.8,0.2,0.9,0.7c0.4-0.4,0.9-0.7,1.3-0.7c0.6,0,1,0.4,1,1.1v3H74.2z"/>
		<path d="M76.5,51.4L76.5,51.4c0,0.5,0,0.8,0.2,1c0.2,0.3,0.6,0.5,1,0.5c0.4,0,0.7-0.1,1-0.4l0.2,0.4c-0.4,0.3-0.8,0.5-1.3,0.5
			c-1.1,0-1.8-0.8-1.8-2.1c0-0.7,0.1-1.1,0.5-1.5c0.3-0.4,0.7-0.6,1.2-0.6c0.4,0,0.8,0.2,1.1,0.4c0.3,0.4,0.5,0.7,0.5,1.7v0.1H76.5z
			 M78.2,50c-0.1-0.2-0.4-0.4-0.7-0.4c-0.6,0-0.9,0.4-0.9,1.2h1.8C78.3,50.5,78.3,50.2,78.2,50z"/>
		<path d="M82.4,53.3v-2.7c0-0.4,0-0.5-0.1-0.7c-0.1-0.1-0.3-0.2-0.4-0.2c-0.3,0-0.8,0.3-1.1,0.6v3h-0.6v-3.1c0-0.6-0.2-0.8-0.2-0.8
			l0.6-0.2c0,0,0.1,0.3,0.1,0.6c0.4-0.4,0.8-0.6,1.3-0.6c0.4,0,0.8,0.2,1,0.6c0.1,0.1,0.1,0.3,0.1,0.5v3H82.4z"/>
		<path d="M85.9,49.8h-0.8v2.6c0,0.4,0.1,0.6,0.5,0.6c0.2,0,0.3,0,0.4-0.1l0.1,0.4c-0.2,0.1-0.4,0.2-0.7,0.2c-0.2,0-0.4,0-0.5-0.1
			c-0.3-0.1-0.4-0.4-0.4-0.8v-2.7H84v-0.5h0.5c0-0.4,0.1-1,0.1-1l0.7-0.1c0,0-0.1,0.6-0.1,1.2h1L85.9,49.8z"/>
	</g>
</g>
</svg>
