<?xml version="1.0" encoding="utf-8"?>
<!-- Generator: Adobe Illustrator 18.1.0, SVG Export Plug-In . SVG Version: 6.00 Build 0)  -->
<svg version="1.1" id="Layer_1" xmlns="http://www.w3.org/2000/svg" xmlns:xlink="http://www.w3.org/1999/xlink" x="0px" y="0px"
	 viewBox="0 0 103.8 21.6" enable-background="new 0 0 103.8 21.6" xml:space="preserve">
<g>
	<g>
		<g>
			<g>
				<g>
					<path d="M22.1,8.6c-0.1,0-0.2,0.1-0.3,0.1c0.2-0.2,0.3-0.4,0.3-0.7c-0.1,0-0.3,0.1-0.4,0.1c0.3-0.3,0.5-0.6,0.4-1
						c-0.1,0-0.2,0.1-0.4,0.2c0.3-0.4,0.3-0.8,0.2-1c-0.1,0.1-0.3,0.3-0.4,0.4c0.1-0.5,0.1-0.8-0.1-1c-0.2,0.4-0.4,0.7-0.7,1.1
						c0-0.3,0-0.7-0.2-1c0,0-0.1,0.5-0.2,0.6c0-0.5-0.2-0.7-0.4-0.9c0,0,0,0.5-0.1,0.8c-0.1-0.4-0.3-0.7-0.6-1
						c0,0.9-0.2,2.5-0.9,3.6C18.1,9.4,18,10.4,17,11c-0.2-0.1-0.4-0.2-0.8-0.2c-0.1-0.5,0.5-0.9,1.1-1.3c0.6-0.4,0.8-0.7,0.8-1.2
						c0-0.5-0.4-0.7-0.7-0.8c-0.5,0-0.9,0.5-1,0.6c-0.2,0.1-0.6,0.2-0.8,0.3c-0.2,0.1-0.4,0.1-0.6,0.3c0.1,0.1,0.3,0.1,0.4,0.1
						c0.2,0,0.7-0.1,1.3-0.2c0.2,0.1,0.5,0.3,0.2,0.5c-0.5,0.3-0.7,0.4-1.3,0.7c-1,0.5-0.7,1.9-0.4,2c0,0.5,0.4,1.3,0.7,1.6
						c0.1,0.6,0,1.4-0.2,1.8c-0.1-0.3-0.4-1.2-0.6-1.6c0.2-0.9-0.1-1.3-0.3-1.4c-0.2-0.2-0.5-0.1-0.7,0.2c0.3,0,0.4,0.3,0.4,0.7
						c0,0.5-0.1,0.8-0.5,0.8c0,0.4,0.5,0.5,0.7,0.3c0,0.1,0.2,0.6,0.4,1.1c0.1,0.3,0.2,0.5,0.3,0.7c0.1,0.1,0.6,0.2,0.6,0
						c0.1-0.2,0.1-0.4,0.3-0.7v0c0.1-0.2,0.2-0.5,0.4-0.8c0.1,0.2,0.3,0.6,0.4,0.8c0,0.1,0.1,0.2,0.1,0.2c0,0.4,0,1.7-0.1,2.6
						c-1.1-0.3-1.4,0.2-1.3,0.6c0.2-0.2,0.4-0.2,0.5-0.1c0,0.3,0,0.5,0.4,0.6c0.3-0.8,1.5-0.7,1.6-0.6c0-0.2,0.2-0.6-0.4-0.7
						c0-0.7,0.1-1.6,0.1-1.8c0-0.2,0-0.3,0-0.6c0-0.1-0.1-0.2-0.1-0.3l0,0c-0.1-0.3-0.2-0.7-0.2-1.1c0.1,0.1,0.3,0.2,0.5,0.1
						c0.1,0.6,0.3,0.4,0.4,0.6c0.1,0.1,0.1,0.2,0.1,0.3c0,0.1,0,0.2,0.1,0.3c0.4,0,0.7-0.1,1-0.3c0.1-0.1,0.1-0.1,0.2-0.2
						c-0.1-0.6-0.3-0.9-0.6-1.2c-0.1-0.5-0.3-0.9-0.6-1.3c0.4-0.1,0.8-0.4,1-0.7c0.2,0,0.4-0.2,0.4-0.5c0.1,0,0.2,0,0.3,0
						c0-0.1,0-0.2,0-0.3c0.1,0,0.3,0,0.4,0c0-0.1-0.1-0.2-0.1-0.3c0.1,0,0.3,0,0.5,0c-0.1-0.1-0.1-0.3-0.2-0.4
						c0.2,0,0.4-0.1,0.6-0.1c-0.1-0.1-0.1-0.1-0.3-0.3c0.5-0.2,0.8-0.5,0.8-0.7c-0.1,0-0.2,0-0.3,0C21.9,9.1,22.1,8.9,22.1,8.6z"/>
				</g>
			</g>
			<g>
				<path d="M14.5,9.9h-3.4H7.8H7.6V10v2.4c0,0,0.1,0,0.1,0.1V10h6.8v2.3c0,0,0,0.1,0.1,0.1V10V9.9H14.5z"/>
				<path d="M11.1,18.6c-3-1.1-3.4-3.6-3.4-4.7c0,0,0,0,0,0c0,0,0-0.1,0-0.1c0-0.2,0-0.4,0-0.5c0-0.2,0-0.3-0.1-0.4c0,0,0,0,0-0.1
					V14c0,1.3,0.5,2.4,1.4,3.4C9.9,18.2,10.8,18.6,11.1,18.6L11.1,18.6L11.1,18.6c0.3,0,1.3-0.4,2.1-1.2c0.9-0.9,1.4-2,1.4-3.4v-0.2
					c0,0,0,0.1-0.1,0.1c0,0.6-0.1,1.5-0.5,2.2C13.6,17.1,12.8,17.9,11.1,18.6z"/>
			</g>
			<path d="M9.9,7.6C9.4,7.6,9,8.2,9.2,8.9C9.1,9,8.9,9,8.8,8.8c0,0.2-0.5,0.5-0.9,0.5c0.2-0.2,0.3-0.7,0.7-0.9C9,8.1,9.2,8,9.3,7.6
				C9.1,7.6,8.3,7.9,8,7.6C8.6,7.5,9.3,7.2,9.6,7L9.5,6.8C9.1,7,8.6,7.2,8.4,7.3C8.3,6.6,9,6.6,9,6.8C9.3,6.4,9.1,6,8.9,5.9
				c0.2-0.6,0-0.9-0.2-1.2c0,0.6-0.7,0.7-0.8,1.2c0-0.4-0.1-1.4-0.1-1.9C7.8,3.1,6.6,2.8,6.4,2.8c-0.8,0-0.8-0.1-0.8-0.4
				c-0.4,0.4-0.3,0.8,0.1,1c0,0.3-0.5,0.5-0.7,0.5c0.6,0.6,1.3,0.2,1.7-0.1c0,0,0.1,0,0.1-0.1C6.9,4,6.9,4.4,6.9,4.6
				C6.4,4.6,6.3,5,6.3,5.2c0.7-0.3,0.8,1.1,1,1.3c-0.2,0-0.5-0.4-1-0.5c-0.6,0-0.8,0.3-1,0.3C5.3,6.7,5.8,7,6.1,7
				c-0.2,0.4,0,0.7,0.3,0.8c0-0.4,0.5-0.5,1-0.2C8.1,8,8.4,8,8.9,7.9C8.8,8.1,8.6,8.1,8.3,8.4C7.9,8.7,7.9,9.2,7.5,9.4
				C8,9.7,8.8,9.3,8.9,9.1c0.2,0.1,0.5,0.1,0.6-0.1C9.1,8.3,9.7,7.8,9.9,7.8C9.9,7.8,10,7.6,9.9,7.6L9.9,7.6z M7.2,7.3
				C7,7.2,6.6,7.1,6.3,7.4C6.2,7.2,6.4,6.9,6.5,6.8c-0.6,0-0.9-0.2-1-0.3c0.2-0.1,0.7-0.3,1.2,0C7,6.7,7.2,6.8,7.5,6.9
				c0.1-0.1,0.1-0.1,0.1-0.1C7.4,6.6,7.2,5.1,6.7,5C6.7,4.8,7,4.8,7.3,4.9c0-0.3-0.1-0.9-0.3-1.2c0.3-0.2,0.6,0,0.7,0.4
				c0.1,0.4,0,1.5,0.3,2.5L8,6.4C7.9,5.8,8.6,5.6,8.7,5.3c0.1,0.4,0,0.6-0.1,0.7c0.2,0,0.3,0.3,0.3,0.4C8.3,6.4,8,6.9,8.1,7.4
				C7.7,7.4,7.5,7.4,7.2,7.3L7.2,7.3z M5.7,3c0.4,0.2,0.6-0.2,1.4,0.3C6.5,3.5,6.1,4.2,5.5,4c0.4-0.2,0.4-0.5,0.6-0.7
				C6,3.3,5.7,3.2,5.7,3L5.7,3z"/>
			<path d="M15.5,5.5c0-0.9,0-1.6,0-1.8c0,0,0.1,0,0.1,0c0.6,0.2,0.8,1,2,0.1c-0.7,0.1-0.7-0.5-1-0.5c0.5-0.3,0.5-0.9,0.5-0.9
				c-0.4,0.3-1.3,0.3-1.5,0.4c-0.2,0.1-0.5,0.3-0.7,0.4c-0.5,0.3-0.2,1.9-0.2,2.4c-0.3-0.9-0.9-0.7-1.2-1.2c-0.2,0.4,0,1.1,0.1,1.3
				c-0.3,0.3-0.2,0.8-0.2,0.9c0.3-0.2,0.7-0.2,0.9,0.2c-0.4,0.2-1,0.3-1.4-0.1l-0.2,0.2c0.3,0.4,1,0.5,1.6,0.2c0,0.1,0,0.2-0.1,0.3
				c-0.3,0.2-0.7,0.2-1.1,0.1c0.1,0.4,0.6,0.8,1,0.9c-0.2,0.1-0.4,0.2-0.5,0.2c0.1,0.2,0.1,0.6,0,0.8c-0.2-0.2-0.4-0.3-0.5-0.9
				c-0.1-0.6-0.5-1.2-0.9-1.3c0,0.2,0,0.1,0,0.3c0.9,0.7,0.4,1.9,1.3,2.3C14,9.3,14,9.2,14,8.8c0.3-0.1,0.6-0.4,0.7-0.6
				c-0.3,0.2-0.8-0.1-1-0.3c0.6,0,1.1-0.4,1.6-1c0.5-0.5,1.1-0.4,1.1,0c0.3,0,0.5-0.5,0.3-0.8c0.5-0.2,0.9-0.5,0.9-1.1
				C17,5.4,16.1,4.8,15.5,5.5L15.5,5.5z M16.3,5.9c0.3,0.2,0.2,0.5,0.1,0.6c-0.2-0.4-0.9-0.2-1.6,0.5c0,0.1-0.1,0.1-0.2,0.2
				c0.1-0.9-0.7-1-0.9-0.9c0-0.3,0.2-0.5,0.3-0.5c-0.2-0.3-0.3-0.6-0.3-0.8c0.4,0.2,0.9,0.6,1,1.4l0.2-0.2c-0.1-1.3-0.1-1.3-0.1-2.2
				c0-0.1,0-0.4,0.4-0.4c0,0.3,0.1,1.2,0.1,2.5h0.1c0.1-0.3,0.6-0.8,1.1-0.7c0.4,0,0.5,0,0.7-0.1C17.1,5.7,16.5,5.9,16.3,5.9
				L16.3,5.9z M15.3,3.4c0.3-0.2,0.4-0.3,0.6-0.3c0.2,0,0.6,0,0.8-0.1c-0.2,0.3-0.3,0.4-0.7,0.4c0.5,0,0.7,0.5,1,0.6
				C16.1,4.2,16,3.4,15.3,3.4L15.3,3.4z"/>
			<path d="M12.1,8.4c0,0-0.1,0-0.1,0.1c0,0-0.1,0-0.2,0l0-0.3c0,0,0.1-0.1,0.1-0.1c0-0.1-0.1-0.1-0.1-0.1c-0.1,0-0.1,0.1-0.1,0.1
				c0,0.1,0,0.1,0.1,0.1l0,0.3c0,0-0.1,0-0.1,0c0,0-0.1-0.1-0.1-0.1c-0.1,0-0.1,0.1-0.1,0.1c0,0.1,0.1,0.1,0.1,0.1
				c0,0,0.1,0,0.1-0.1c0.1,0,0.1,0,0.2,0l0,0.4c0,0-0.1,0.1-0.1,0.1c0,0.1,0.1,0.1,0.1,0.1c0.1,0,0.1-0.1,0.1-0.1
				c0-0.1,0-0.1-0.1-0.1l0-0.4c0,0,0.1,0,0.1,0c0,0.1,0.1,0.1,0.1,0.1c0.1,0,0.1-0.1,0.1-0.1S12.1,8.4,12.1,8.4L12.1,8.4z"/>
			<path d="M10.9,8.3c-0.1,0-0.1,0-0.1,0.1c0,0-0.1,0-0.1,0l0-0.3c0,0,0.1-0.1,0.1-0.1c0-0.1-0.1-0.1-0.1-0.1
				c-0.1,0-0.1,0.1-0.1,0.1c0,0.1,0,0.1,0.1,0.1l0,0.3c-0.1,0-0.1,0-0.2,0c0,0-0.1-0.1-0.1-0.1c-0.1,0-0.1,0.1-0.1,0.1
				s0.1,0.1,0.1,0.1c0.1,0,0.1,0,0.1-0.1c0,0,0.1,0,0.1,0l0,0.4c0,0-0.1,0.1-0.1,0.1c0,0.1,0.1,0.1,0.1,0.1c0.1,0,0.1-0.1,0.1-0.1
				c0-0.1,0-0.1-0.1-0.1l0-0.4c0,0,0.1,0,0.2,0c0,0,0.1,0.1,0.1,0.1c0.1,0,0.1-0.1,0.1-0.1C11,8.4,10.9,8.3,10.9,8.3L10.9,8.3z"/>
			<path d="M12.7,9.5c-0.1-0.6-0.3-2.1-0.3-2.6l-0.2,0c0,0.1,0,0.2,0,0.3c-0.3-0.1-0.7-0.1-1-0.1c-0.4,0-0.8,0.1-1,0.1
				c0-0.1,0-0.3,0-0.3l-0.2,0c0,0.5-0.2,2.1-0.3,2.6C9.4,9.6,9.3,9.7,9.3,10c0,0,1.3,0,1.8,0c0.5,0,1.8,0,1.8,0
				C12.9,9.7,12.8,9.6,12.7,9.5L12.7,9.5z M11.1,9.5c-0.2,0.4-0.6,0.4-0.9,0.2c-0.1-0.1-0.3-0.1-0.4-0.2C9.9,9.1,10,8.4,10,7.8
				c0.4-0.2,1-0.2,1.1,0.3c0.1-0.5,0.7-0.5,1.1-0.3c0.1,0.6,0.2,1.3,0.2,1.7c-0.1,0-0.3,0.1-0.4,0.2C11.7,9.9,11.3,9.9,11.1,9.5
				L11.1,9.5z"/>
			<path d="M18.4,19.4c-0.1,0-0.3,0.1-0.6,0.1h-0.3c-1.2,0-2.4-0.4-3.1-1.1c1-1-0.2-1.9-0.8-1c-0.2,0.3-0.4,0.5-0.5,0.7
				c-0.1,0.2,0,0.4,0.2,0.8c0.1,0.2,0.5,0.5,0.8,0.6H8.2C8.5,19.2,8.8,19,9,18.8c0.2-0.3,0.3-0.5,0.2-0.8c-0.1-0.3-0.3-0.5-0.5-0.7
				c-0.6-0.9-1.8,0-0.8,1c-0.7,0.7-1.9,1.1-3.1,1.1H4.5c-0.3,0-0.5,0-0.6-0.1c-0.2-0.1-0.3,0-0.2,0.5c0.1,0.3,0.2,0.7,0.2,1h14.5
				c0-0.3,0.1-0.8,0.2-1C18.7,19.4,18.6,19.3,18.4,19.4L18.4,19.4z M13.9,17.4c0.2-0.3,0.5-0.2,0.6,0c0.1,0.2-0.1,0.5-0.3,0.7
				C13.8,17.7,13.8,17.5,13.9,17.4L13.9,17.4z M13.4,18.5c-0.1-0.2-0.2-0.3-0.1-0.4c0.1-0.2,0.2-0.3,0.3-0.5
				c0.2,0.8,1.4,1.5,2.3,1.8h-1.4C14.1,19.2,13.6,18.9,13.4,18.5L13.4,18.5z M7.8,17.4c0.1-0.2,0.4-0.3,0.6,0c0.1,0.1,0,0.4-0.3,0.8
				C7.9,17.9,7.7,17.6,7.8,17.4L7.8,17.4z M8.7,17.6C8.8,17.8,8.9,18,9,18.1c0.1,0.2,0,0.3-0.1,0.4c-0.3,0.4-0.7,0.7-1.1,0.9H6.4
				C7.3,19.2,8.4,18.4,8.7,17.6L8.7,17.6z M18.1,20.6h-14c-0.1-0.4-0.1-0.7-0.2-1h14.4C18.3,19.9,18.2,20.2,18.1,20.6L18.1,20.6z"/>
			<path d="M6,20.3C6,20.3,6.1,20.3,6,20.3l0,0.1c0,0,0,0,0,0c0,0,0,0,0,0c0,0,0,0,0,0c0.1,0,0.1,0,0.2,0c0,0,0,0,0,0c0,0,0,0,0,0
				c0,0,0,0,0,0c0,0,0,0-0.1-0.1C6.1,20.2,6,19.9,6,19.8c0,0,0,0,0,0c0,0,0,0,0,0l-0.2,0.5c0,0,0,0.1-0.1,0.1c0,0,0,0,0,0
				c0,0,0,0,0,0c0,0,0,0,0,0c0,0,0.1,0,0.1,0c0,0,0.1,0,0.1,0c0,0,0,0,0,0c0,0,0,0,0,0h0c0,0,0,0,0,0c0,0,0,0,0,0l0,0c0,0,0,0,0,0H6
				L6,20.3z M5.8,20.3C5.8,20.3,5.8,20.3,5.8,20.3L5.9,20c0,0,0,0,0,0c0,0,0,0,0,0L6,20.3c0,0,0,0,0,0H5.8L5.8,20.3z"/>
			<path d="M6.5,20.2c0,0.1,0,0.2,0.1,0.2c0.1,0.1,0.1,0.1,0.2,0.1c0.1,0,0.1,0,0.2-0.1C7,20.3,7,20.2,7,20.2v-0.1
				c0-0.1,0-0.1,0-0.2c0,0,0,0,0,0c0,0,0,0,0,0c0,0,0,0,0,0c0,0,0,0,0,0c0,0-0.1,0-0.1,0c0,0-0.1,0-0.1,0c0,0,0,0,0,0c0,0,0,0,0,0
				c0,0,0,0,0,0c0,0,0,0,0,0c0,0,0,0,0,0.2v0.1c0,0.1,0,0.2,0,0.2c0,0-0.1,0-0.1,0c0,0-0.1,0-0.1,0c0,0-0.1-0.1-0.1-0.2v-0.1
				c0-0.1,0-0.1,0-0.2c0,0,0,0,0,0c0,0,0,0,0,0c0,0,0,0,0,0c0,0,0,0,0,0c0,0-0.1,0-0.1,0c0,0-0.1,0-0.1,0c0,0,0,0,0,0c0,0,0,0,0,0
				c0,0,0,0,0,0c0,0,0,0,0,0c0,0,0,0,0,0.2V20.2L6.5,20.2z"/>
			<path d="M7.3,20.2c0,0.1,0,0.1,0,0.2c0,0,0,0,0,0c0,0,0,0,0,0c0,0,0,0,0,0c0,0,0,0,0,0c0,0,0.1,0,0.1,0c0,0,0.1,0,0.2,0
				c0.2,0,0.2-0.1,0.3-0.1c0,0,0.1-0.1,0.1-0.2c0-0.1,0-0.2-0.1-0.2c-0.1-0.1-0.2-0.1-0.3-0.1c0,0-0.1,0-0.1,0c0,0-0.1,0-0.1,0
				c0,0,0,0,0,0c0,0,0,0,0,0c0,0,0,0,0,0c0,0,0,0,0,0c0,0,0,0,0,0.2V20.2L7.3,20.2z M7.4,20.1c0-0.1,0-0.1,0-0.2c0,0,0,0,0,0
				c0,0,0,0,0.1,0c0.1,0,0.2,0,0.2,0.1c0,0,0.1,0.1,0.1,0.2c0,0.1,0,0.2-0.1,0.2c-0.1,0-0.1,0.1-0.2,0.1c-0.1,0-0.1,0-0.1,0
				c0,0,0,0,0-0.1c0,0,0-0.1,0-0.2V20.1L7.4,20.1z"/>
			<path d="M8.5,20.3C8.5,20.3,8.5,20.3,8.5,20.3l0,0.1c0,0,0,0,0,0c0,0,0,0,0,0c0,0,0,0,0,0c0.1,0,0.1,0,0.2,0c0,0,0,0,0,0
				c0,0,0,0,0,0c0,0,0,0,0,0c0,0,0,0-0.1-0.1c-0.1-0.1-0.2-0.5-0.2-0.5c0,0,0,0,0,0c0,0,0,0,0,0l-0.2,0.5c0,0,0,0.1-0.1,0.1
				c0,0,0,0,0,0c0,0,0,0,0,0c0,0,0,0,0,0c0,0,0.1,0,0.1,0c0,0,0.1,0,0.1,0c0,0,0,0,0,0c0,0,0,0,0,0h0c0,0,0,0,0,0c0,0,0,0,0,0l0,0
				c0,0,0,0,0,0H8.5L8.5,20.3z M8.2,20.3C8.2,20.3,8.2,20.3,8.2,20.3L8.3,20c0,0,0,0,0,0c0,0,0,0,0,0l0.1,0.3c0,0,0,0,0,0H8.2
				L8.2,20.3z"/>
			<path d="M9.3,19.9C9.3,19.9,9.3,19.9,9.3,19.9C9.3,19.8,9.3,19.8,9.3,19.9c0.1-0.1,0.1-0.1,0.1-0.1C9.4,19.8,9.4,19.8,9.3,19.9
				C9.3,19.8,9.3,19.8,9.3,19.9C9.3,19.8,9.2,19.8,9.3,19.9C9.2,19.8,9.2,19.8,9.3,19.9C9.2,19.8,9.2,19.8,9.3,19.9
				C9.2,19.8,9.2,19.8,9.3,19.9C9.2,19.9,9.2,19.9,9.3,19.9C9.2,19.9,9.2,19.9,9.3,19.9c-0.1,0-0.1,0.1-0.2,0.2C9.1,20,9,20,9,19.9
				c0,0,0,0,0,0s0,0,0,0c0,0,0,0,0,0c0,0,0,0,0,0c0,0,0,0,0,0c0,0-0.1,0-0.1,0c0,0-0.1,0-0.1,0c0,0,0,0,0,0c0,0,0,0,0,0c0,0,0,0,0,0
				c0,0,0,0,0.1,0.1L9,20.1l-0.2,0.2c0,0,0,0.1-0.1,0.1c0,0,0,0,0,0c0,0,0,0,0,0c0,0,0,0,0,0h0c0,0,0.1,0,0.1,0c0,0,0.1,0,0.1,0h0
				c0,0,0,0,0,0c0,0,0,0,0,0c0,0,0,0,0,0c0,0,0,0,0,0c0,0,0,0,0,0l0.1-0.2c0,0.1,0.1,0.1,0.1,0.2c0,0,0,0,0,0c0,0,0,0,0,0s0,0,0,0
				c0.1,0,0.1,0,0.1,0h0c0,0,0,0,0,0c0,0,0,0,0,0c0,0,0,0,0,0c0,0,0,0,0,0c0,0-0.2-0.2-0.2-0.3L9.3,19.9L9.3,19.9z"/>
			<path d="M10.6,20.3C10.6,20.3,10.6,20.3,10.6,20.3l0,0.1c0,0,0,0,0,0c0,0,0,0,0,0c0,0,0,0,0,0c0.1,0,0.1,0,0.2,0c0,0,0,0,0,0
				c0,0,0,0,0,0c0,0,0,0,0,0c0,0,0,0-0.1-0.1c-0.1-0.1-0.2-0.5-0.2-0.5c0,0,0,0,0,0c0,0,0,0,0,0l-0.2,0.5c0,0,0,0.1-0.1,0.1
				c0,0,0,0,0,0c0,0,0,0,0,0c0,0,0,0,0,0c0,0,0.1,0,0.1,0c0,0,0.1,0,0.1,0c0,0,0,0,0,0c0,0,0,0,0,0h0c0,0,0,0,0,0c0,0,0,0,0,0l0,0
				c0,0,0,0,0,0H10.6L10.6,20.3z M10.4,20.3C10.4,20.3,10.4,20.3,10.4,20.3l0.1-0.3c0,0,0,0,0,0c0,0,0,0,0,0l0.1,0.3c0,0,0,0,0,0
				H10.4L10.4,20.3z"/>
			<path d="M11.1,20.2c0,0.1,0,0.1,0,0.2c0,0,0,0,0,0c0,0,0,0,0,0c0,0,0,0,0,0c0,0,0,0,0,0c0,0,0.1,0,0.1,0c0,0,0.1,0,0.1,0
				c0,0,0,0,0,0c0,0,0,0,0,0c0,0,0,0,0,0c0,0,0,0,0,0c0,0,0-0.1,0-0.2v-0.3l0.1,0c0.1,0,0.1,0,0.1,0v0c0,0,0,0,0,0c0,0,0,0,0,0
				c0,0,0-0.1,0-0.1c0,0,0,0,0,0c0,0,0,0-0.1,0H11c0,0-0.1,0-0.1,0c0,0,0,0,0,0c0,0,0,0,0,0c0,0,0,0.1,0,0.1c0,0,0,0,0,0
				c0,0,0,0,0,0c0,0,0,0,0,0c0,0,0,0,0.1,0l0.1,0V20.2L11.1,20.2z"/>
			<path d="M12.6,20.1C12.6,20.1,12.6,20.1,12.6,20.1c0,0,0.1,0,0.1,0c0,0,0,0,0,0c0,0,0,0,0,0c0,0,0,0,0,0c0,0,0,0,0,0
				c0,0,0,0,0-0.1c0,0,0,0,0-0.1c0,0,0,0,0,0c0,0,0,0,0,0c0,0,0,0,0,0c0,0,0,0,0,0L12.6,20.1C12.6,20.1,12.6,20.1,12.6,20.1v-0.3
				c0,0,0,0,0,0l0.1,0c0,0,0,0,0.1,0c0,0,0,0,0,0c0,0,0,0,0,0c0,0,0,0,0,0c0,0,0-0.1,0-0.1c0,0,0,0,0,0c0,0,0,0,0,0c0,0,0,0,0,0
				c0,0,0,0,0,0c0,0-0.2,0-0.2,0c0,0-0.1,0-0.1,0c0,0,0,0,0,0c0,0,0,0,0,0c0,0,0,0,0,0c0,0,0,0,0,0c0,0,0,0,0,0.2v0.1
				c0,0.1,0,0.1,0,0.2c0,0,0,0,0,0c0,0,0,0,0,0c0,0,0,0,0,0c0,0,0,0,0,0c0,0,0.1,0,0.1,0c0,0,0.1,0,0.1,0c0,0,0,0,0,0c0,0,0,0,0,0
				c0,0,0,0,0,0c0,0,0,0,0,0C12.6,20.4,12.6,20.3,12.6,20.1L12.6,20.1L12.6,20.1z"/>
			<path d="M13.1,20.2c0,0.1,0,0.1,0,0.2c0,0,0,0,0,0c0,0,0,0,0,0c0,0,0,0,0,0c0,0,0,0,0,0c0,0,0.1,0,0.1,0c0,0,0.1,0,0.1,0
				c0,0,0,0,0,0c0,0,0,0,0,0c0,0,0,0,0,0c0,0,0,0,0,0c0,0,0-0.1,0-0.2v-0.1c0-0.1,0-0.1,0-0.2c0,0,0,0,0,0c0,0,0,0,0,0c0,0,0,0,0,0
				c0,0,0,0,0,0c0,0-0.1,0-0.1,0c0,0-0.1,0-0.1,0c0,0,0,0,0,0c0,0,0,0,0,0c0,0,0,0,0,0c0,0,0,0,0,0c0,0,0,0,0,0.2V20.2L13.1,20.2z"
				/>
			<path d="M13.6,20.2c0,0.1,0,0.1,0,0.2c0,0,0,0,0,0c0,0,0,0,0,0c0,0,0,0,0,0c0,0,0,0,0,0c0,0,0.1,0,0.1,0c0,0,0.1,0,0.2,0
				c0.2,0,0.2-0.1,0.3-0.1c0,0,0.1-0.1,0.1-0.2c0-0.1,0-0.2-0.1-0.2c-0.1-0.1-0.2-0.1-0.3-0.1c0,0-0.1,0-0.1,0c0,0-0.1,0-0.1,0
				c0,0,0,0,0,0c0,0,0,0,0,0c0,0,0,0,0,0c0,0,0,0,0,0c0,0,0,0,0,0.2V20.2L13.6,20.2z M13.7,20.1c0-0.1,0-0.1,0-0.2c0,0,0,0,0,0
				c0,0,0,0,0.1,0c0.1,0,0.2,0,0.2,0.1c0,0,0.1,0.1,0.1,0.2c0,0.1,0,0.2-0.1,0.2c0,0-0.1,0.1-0.2,0.1c-0.1,0-0.1,0-0.1,0
				c0,0,0,0,0-0.1c0,0,0-0.1,0-0.2V20.1L13.7,20.1z"/>
			<path d="M14.5,20.2c0,0.1,0,0.1,0,0.2c0,0,0,0,0,0c0,0,0,0,0,0c0,0,0,0,0,0c0,0,0,0,0,0c0,0,0.1,0,0.1,0c0,0,0.1,0,0.2,0
				c0,0,0,0,0,0c0,0,0-0.1,0-0.1c0,0,0,0,0,0c0,0,0,0,0,0c0,0,0,0.1,0,0.1c0,0-0.1,0-0.1,0c-0.1,0-0.1,0-0.1-0.1c0,0,0-0.1,0-0.1
				v-0.1c0,0,0,0,0,0c0,0,0.1,0,0.1,0c0,0,0,0,0,0c0,0,0,0,0,0c0,0,0,0,0,0c0,0,0,0,0,0c0,0,0,0,0-0.1c0,0,0-0.1,0-0.1c0,0,0,0,0,0
				c0,0,0,0,0,0c0,0,0,0,0,0c0,0-0.1,0-0.1,0c0,0,0,0,0,0v-0.2c0,0,0,0,0,0c0,0,0.1,0,0.1,0c0,0,0,0,0.1,0c0,0,0,0,0,0c0,0,0,0,0,0
				c0,0,0,0,0,0c0,0,0,0,0-0.1c0,0,0,0,0-0.1c0,0,0,0,0,0c0,0,0,0,0,0c0,0,0,0,0,0c0,0-0.2,0-0.2,0c0,0-0.1,0-0.1,0c0,0,0,0,0,0
				c0,0,0,0,0,0c0,0,0,0,0,0c0,0,0,0,0,0c0,0,0,0,0,0.2V20.2L14.5,20.2z"/>
			<path d="M15.2,20.1c0-0.1,0-0.1,0-0.2c0,0,0,0,0,0c0,0,0,0,0,0c0,0,0,0,0,0c0,0,0,0,0,0c0,0-0.1,0-0.1,0c0,0-0.1,0-0.1,0
				c0,0,0,0,0,0c0,0,0,0,0,0c0,0,0,0,0,0c0,0,0,0,0,0c0,0,0,0,0,0.2v0.1c0,0.1,0,0.1,0,0.2c0,0,0,0,0,0c0,0,0,0,0,0c0,0,0,0,0,0
				c0,0,0,0,0,0c0,0,0.1,0,0.1,0c0.1,0,0.1,0,0.2,0c0,0,0,0,0.1,0c0,0,0-0.1,0-0.1c0,0,0,0,0,0c0,0,0,0,0,0c0,0,0,0,0,0
				c0,0-0.1,0-0.1,0c-0.1,0-0.1,0-0.1,0c0,0,0-0.1,0-0.2V20.1L15.2,20.1z"/>
			<path d="M15.7,20.2c0,0.1,0,0.1,0,0.2c0,0,0,0,0,0c0,0,0,0,0,0c0,0,0,0,0,0c0,0,0,0,0,0c0,0,0.1,0,0.1,0c0,0,0.1,0,0.1,0
				c0,0,0,0,0,0c0,0,0,0,0,0c0,0,0,0,0,0c0,0,0,0,0,0c0,0,0-0.1,0-0.2v-0.1c0-0.1,0-0.1,0-0.2c0,0,0,0,0,0c0,0,0,0,0,0c0,0,0,0,0,0
				c0,0,0,0,0,0c0,0-0.1,0-0.1,0c0,0-0.1,0-0.1,0c0,0,0,0,0,0c0,0,0,0,0,0c0,0,0,0,0,0c0,0,0,0,0,0c0,0,0,0,0,0.2V20.2L15.7,20.2z"
				/>
			<path d="M16.3,20.5c0,0,0.1,0,0.1,0c0.1,0,0.1-0.1,0.1-0.1c0-0.1,0-0.1-0.1-0.2l0,0c-0.1-0.1-0.1-0.1-0.1-0.1
				c0-0.1,0-0.1,0.1-0.1c0.1,0,0.1,0,0.1,0c0,0,0,0,0,0.1c0,0,0,0,0,0c0,0,0,0,0,0c0-0.1,0-0.1,0-0.1c0,0,0,0,0,0c0,0-0.1,0-0.1,0
				c-0.1,0-0.2,0.1-0.2,0.2c0,0.1,0,0.1,0.1,0.2l0,0c0.1,0.1,0.1,0.1,0.1,0.1C16.4,20.4,16.4,20.4,16.3,20.5c0,0-0.1-0.1-0.1-0.1
				c0,0,0,0,0,0c0,0,0,0,0,0c0,0,0,0,0,0c0,0,0,0.1,0,0.1c0,0,0,0,0,0C16.2,20.5,16.3,20.5,16.3,20.5L16.3,20.5z"/>
			<path d="M13.8,3.5c0-0.1-0.2-0.2-0.3-0.2c-0.1,0-0.2,0.2-0.3,0.3c-0.1-0.6-0.1-0.8,0-1.1C13.5,2.9,13.8,3,14,3
				c-0.6-0.5-0.5-0.9-0.7-0.9c-0.1,0-0.2,0-0.2,0c-0.2,0-0.2,0.4-0.3,0.6c-0.1-0.3-0.3-0.5-0.5-0.8c-0.2-0.6-0.5-0.4-0.8-0.7
				c0.2,0.3,0,0.5,0.5,0.8c0.1,0.1,0.3,0.3,0.4,0.5c-0.1,0.1-0.1,0.2-0.2,0.2c-0.1,0.1-0.1,0.4-0.3,0.7c0.3-0.1,0.4-0.3,0.5-0.5
				c0.9,0.7,0.2,2.4,0,2.8c-0.2-0.1-0.5-0.2-0.7-0.3l0-0.1l-0.2-0.7h0.1c0.1,0,0.1-0.1,0.1-0.1l0.6,0.2l0.3,0.1l-0.2-0.2l-0.3-0.4
				l0.3-0.4l0.2-0.2l-0.3,0.1l-0.6,0.2c0-0.1-0.1-0.2-0.3-0.2L11.7,3l0.1-0.3l-0.2,0.2l-0.4,0.3l-0.4-0.3l-0.2-0.2L10.6,3l0.2,0.6
				c-0.1,0-0.2,0.1-0.3,0.2L10,3.7L9.7,3.6l0.2,0.2l0.3,0.4L9.8,4.6L9.7,4.8L10,4.7l0.6-0.2c0,0.1,0,0.1,0.1,0.1h0.1l-0.2,0.7l0,0.1
				c-0.2,0-0.5,0.1-0.7,0.3C9.3,4.5,9.4,3.3,9.9,3c0,0.2,0.2,0.6,0.3,0.7c-0.1-0.3,0-0.7-0.1-0.8c-0.1-0.1-0.2-0.1-0.4-0.1
				C9.9,2.5,10,2.3,10.3,2c0.4-0.2,0.5-0.6,0.6-0.8c-0.4,0.1-0.7,0.3-0.7,0.7C9.9,2,9.8,2.2,9.6,2.5c0-0.3-0.2-0.4-0.4-0.4
				C8.6,2.2,8.6,2.7,8.1,3c0.4,0.1,1-0.7,1.2-0.6c0,0.5-0.1,0.9-0.1,1.2C9.1,3.5,9,3.4,8.9,3.4c-0.1,0-0.3,0-0.5,0.2
				c0,0.3,0,0.8-0.3,1.3c0.4-0.3,0.5-1,0.6-1.2C8.9,3.8,9,4.1,9,4.4c0,0.5,0.3,1.3,0.6,1.6C9.5,6.1,9.5,6.3,9.5,6.4
				C9.4,6.6,9.3,6.8,9.4,6.9c0.1,0.1,0.3,0.2,0.5,0.2l0.1,0c0.2-0.1,0.7-0.3,1.2-0.3c0.5,0,1,0.2,1.2,0.3l0.1,0
				c0.2,0.1,0.4,0,0.5-0.2c0.1-0.1,0-0.3-0.1-0.5c0-0.2,0-0.3-0.1-0.5l0,0c0.4-0.6,0.5-1.9,0.8-2.2c0,0.4,0.3,0.8,0.5,0.8
				C13.8,4.3,13.8,3.7,13.8,3.5L13.8,3.5z M11.8,4l0.3-0.1l-0.2,0.2l0,0.1l0,0.1l0.2,0.2l-0.4-0.1C11.7,4.3,11.7,4.2,11.8,4L11.8,4z
				 M10.2,4.5l0.2-0.2l0-0.1l0-0.1l-0.2-0.2L10.5,4c0,0.1,0.1,0.2,0.1,0.3L10.2,4.5L10.2,4.5z M11.5,4.4h-0.3l0-0.5
				C11.7,3.7,11.6,4.1,11.5,4.4L11.5,4.4z M11.4,5.2L11.2,5l-0.1,0l-0.1,0l-0.2,0.2L11,4.7h0.3L11.4,5.2L11.4,5.2z M11.1,3.4
				L11.1,3.4h0.1l0.2-0.2l-0.1,0.4c0,0,0,0,0,0c0-0.1-0.1-0.1-0.1-0.1c-0.1,0-0.1,0-0.1,0.1c0,0,0,0,0,0l-0.1-0.4L11.1,3.4L11.1,3.4
				z M10.8,4.4c-0.1-0.3-0.2-0.6,0.2-0.5l0,0.5H10.8L10.8,4.4z M11.1,5.2l0.3,0.2c-0.1,0-0.2,0-0.3,0c-0.1,0-0.2,0-0.3,0L11.1,5.2
				L11.1,5.2z M9.9,6.8L9.9,6.8c-0.2,0.1-0.2,0-0.2,0c0,0,0-0.1,0.1-0.2c0,0,0,0,0,0L10,6.8C9.9,6.8,9.9,6.8,9.9,6.8L9.9,6.8z
				 M10.6,6.6l-0.2-0.2c0.2,0,0.4-0.1,0.6-0.1l0.1,0.3C10.9,6.5,10.8,6.6,10.6,6.6L10.6,6.6z M11.9,6.6l-0.1-0.3
				c0.2,0,0.4,0.1,0.6,0.2l0.1,0.3C12.3,6.8,12.1,6.7,11.9,6.6L11.9,6.6z M11.1,6c-0.4,0-0.9,0.1-1.3,0.3c0-0.1,0-0.2,0.1-0.2
				c0.2-0.3,0.8-0.4,1.2-0.4c0.4,0,1,0.1,1.2,0.4c0.1,0.1,0.1,0.1,0.1,0.2C12.1,6.1,11.6,6,11.1,6L11.1,6z"/>
			<g>
				<path d="M8.2,13.4c-0.2,0-0.3,0-0.3,0c0,0.5,0,0.9,0,1.3c0.2-0.3,0.3-0.6,0.3-0.8C8.2,13.7,8.2,13.6,8.2,13.4z"/>
				<path d="M8.3,13.4c0,0.2,0.1,0.3,0.1,0.6c0,0.2-0.2,0.5-0.4,0.8c0,0,0,0.1-0.1,0.1c0.5,2.6,3.1,3.5,3.1,3.5v-5
					C11,13.4,9.1,13.4,8.3,13.4z M10.2,16.5c-0.1,0-0.3,0-0.5,0s-0.3,0-0.5,0c0-0.1,0-0.1,0-0.2c-0.1,0-0.2,0-0.3-0.1
					c0-0.1,0.1-0.3,0.2-0.5c0.2,0,0.3,0.1,0.5,0.1c0.2,0,0.4,0,0.5-0.1c0.1,0.2,0.1,0.3,0.2,0.5c-0.1,0-0.2,0.1-0.3,0.1
					C10.1,16.4,10.2,16.5,10.2,16.5z M9.1,15.4c0.1,0,0.5-0.1,0.6-0.1c0.1,0,0.5,0,0.6,0.1c0,0,0,0.1,0,0.2c-0.1,0-0.4,0.1-0.6,0.1
					c-0.2,0-0.4,0-0.6-0.1C9.1,15.5,9.1,15.5,9.1,15.4z M10.5,14.4c-0.1,0.3-0.3,0.7-0.3,0.8c-0.1,0-0.2,0-0.2,0
					c0.1-0.3,0.2-0.7,0.3-1C10.4,14,10.7,14.1,10.5,14.4z M9.7,13.9c0-0.2,0.5-0.2,0.4,0.2c-0.1,0.3-0.2,0.7-0.3,1.1
					c0,0-0.1,0-0.1,0c0,0-0.1,0-0.1,0c-0.1-0.3-0.2-0.7-0.3-1.1C9.3,13.8,9.7,13.8,9.7,13.9z M9.1,14.2c0.1,0.3,0.2,0.7,0.3,1
					c-0.1,0-0.2,0-0.2,0c0-0.1-0.2-0.5-0.3-0.8C8.8,14.1,9.1,14,9.1,14.2z"/>
				<path d="M13.8,13.9l0-0.1l0.1,0c0.2,0,0.3-0.2,0.3-0.3c-0.6,0-3,0-3,0v2.4c0.2-0.1,0.4-0.3,0.6-0.3v-0.4v-0.1H12h0.1
					c0-0.6,0.2-1,0.4-1.3l0.1-0.1l0.1,0.1c0.3,0.3,0.4,0.7,0.4,1.3h0.1h0.1v0.1v0.5c0.3,0.1,0.4,0.3,0.6,0.5c0.2-0.4,0.4-1,0.4-1.6
					c0,0,0,0,0,0C14.1,14.4,13.8,14.2,13.8,13.9z"/>
				<path d="M14.4,13.4C14.4,13.4,14.4,13.4,14.4,13.4c-0.1,0.3-0.2,0.5-0.5,0.5c0,0.3,0.2,0.4,0.4,0.4c0,0,0,0,0,0
					C14.4,14,14.4,13.7,14.4,13.4z"/>
				<path d="M12.6,15.6c-0.7,0-1,0.2-1.4,0.5v2.3c0,0,1.7-0.6,2.6-2.2C13.6,15.9,13.3,15.6,12.6,15.6z M13.2,16.5L13,16.3l-0.4,0.3
					l0.1,0.2c0,0,0.2-0.1,0.3,0.1c-0.1,0.1-0.3,0.2-0.4,0.3c-0.1-0.2,0-0.3,0-0.3l-0.1-0.2L12,17.1L11.9,17l0.5-0.4l-0.2-0.2
					c0,0-0.1,0.1-0.1,0.1c-0.1-0.1-0.2-0.3-0.1-0.6c0.3-0.1,0.4,0.1,0.6,0.2c-0.1,0.1-0.1,0.1-0.1,0.1l0.2,0.2l0.4-0.3l-0.2-0.2
					c0.2,0,0.4,0,0.5,0.2C13.2,16.2,13.2,16.3,13.2,16.5z"/>
				<path d="M8,12.2c0.2,0.1,0.2,0.3,0.2,0.7c0,0.1,0,0.2,0.1,0.3h6c0-0.1,0-0.1,0-0.2c0-0.3,0-0.5-0.1-0.6c0,0-0.1,0-0.1,0
					c0,0,0,0,0,0l-0.2,0l0.1-0.2c0.1-0.2,0.3-0.3,0.5-0.3v-1.8H7.9L8,12.2C7.9,12.1,7.9,12.1,8,12.2L8,12.2z M11.8,11.9v-0.1l-0.3,0
					c0.1-0.3,0.7-0.7,1-0.8c0-0.3,0.4-0.5,0.8-0.5c0.4,0,0.5,0.5,0.5,0.6c0,0.2-0.1,0.6-0.3,0.8c-0.4,0.2-0.7-0.1-0.7-0.3
					c0-0.3,0.2-0.4,0.5-0.4c0.3,0,0.3-0.1,0.1-0.2c-0.1,0-0.6-0.1-0.8,0.3c-0.1,0-0.2,0-0.3-0.1c-0.1,0.1-0.2,0.1-0.3,0.2
					c0.1,0.3,0.4,0.2,0.5,0.1c0,0,0,0.1,0,0.1c0,0.6,0.7,0.8,1.1,0.5c-0.1,0.2,0,0.5,0,0.6c0,0-1.4,0-1.6,0c0-0.2,0.2-0.4,0.4-0.5
					l-0.1-0.2c-0.2,0.1-0.3,0.1-0.5,0.2C11.3,12.4,11.3,12.1,11.8,11.9z M10.7,12.4c-0.1,0.1-0.4,0.2-0.5,0.1
					c-0.2-0.1-0.2-0.3-0.2-0.4c0-0.1,0.5-0.2,0.6-0.2C10.7,12,10.7,12.4,10.7,12.4z M8.5,11.4c0.4-0.2,0.5-0.3,0.7-0.6
					c-0.1-0.1-0.3-0.2-0.4-0.4c0.7,0.2,1,0.3,1.8,0c-0.1,0.2-0.3,0.3-0.5,0.4c0.2,0.3,0.4,0.6,0.4,0.9c-0.2,0-0.5,0-0.7,0.2
					c-0.3,0-0.7,0.1-0.9-0.6c-0.1,0.1-0.2,0.1-0.2,0.1C8.8,12,9,12.3,9.6,12.2c0,0.1,0.1,0.2,0.1,0.3c-0.2,0.1-0.8,0.5-1.3,0.1
					C8.5,12.2,8.5,11.4,8.5,11.4z"/>
				<path d="M7.9,12.2v1h0.2C8.1,13.1,8,13,8,12.9C8.1,12.4,8,12.4,7.9,12.2z"/>
				<path d="M14.4,13.2V12c-0.1,0-0.3,0.1-0.4,0.3c0,0,0,0,0,0c0.3,0,0.4,0.4,0.4,0.7C14.4,13.1,14.4,13.2,14.4,13.2L14.4,13.2z"/>
				<path d="M9.5,11.6c0.1,0.1,0.2,0,0.4,0c0-0.1-0.1-0.1,0-0.2c0-0.2-0.1-0.2-0.2-0.2c-0.2,0-0.3,0-0.4,0
					C9.3,11.3,9.3,11.5,9.5,11.6z"/>
			</g>
			<path d="M8.1,12.9c0.1-0.5,0-0.5-0.2-0.7c-0.1-0.1-0.3-0.1-0.5-0.3c-0.1-0.1-0.2-0.2-0.4-0.4c0-0.4,0.3-0.9,0.6-1.1
				c0,0,0-0.7,0-0.7s0.1,0,0.1,0c-0.2-0.1-0.4,0-0.6,0.2c-0.2,0.1-0.6,0.4-0.8,0.5c-0.4-0.3-0.9-0.6-1.3-1c0,0,0.5,0,0.8-0.1
				C5.8,9.3,6,9,5.9,8.8c-0.1,0-0.2-0.1-0.3-0.2C5.4,8.5,5.3,8.4,5.2,8.4C5,8.2,4.9,8,4.5,7.9c0-0.2,0.1-0.1,0.2-0.3
				C5,7.5,5.1,7.3,5.2,7.2C5.2,7,5.2,6.7,5,7.1C4.9,7.2,4.7,7.4,4.5,7.5c0-0.1,0-0.2,0-0.2C5.2,6.8,5.1,6.4,5,6.1
				C5,5.9,4.8,5.8,4.8,6c0,0.1,0.1,0.5-0.3,0.8c0-0.2-0.1-0.3-0.1-0.3c0.4-0.5,0.2-0.9,0.1-1.1c-0.1-0.1-0.3-0.2-0.2,0
				c0.1,0.2,0.2,0.6,0,0.8C4.2,6,4.1,6,4,5.8c0-0.5,0-0.8-0.1-1c-0.1-0.2-0.2-0.3-0.2,0c0,0.3,0,0.7,0,0.7c0,0-0.4-0.3-0.6-0.4
				C3,4.9,2.8,4.9,3,5.2c0.2,0.2,0.7,0.5,0.6,0.7c0,0.1-0.4-0.2-0.6-0.3C2.9,5.5,2.8,5.6,3,5.7C3.2,5.9,3.4,6,3.8,6.2
				c0.4,0.1,0.6,0.7,0.5,1.5c0,0-0.1,0-0.1,0C4.1,7.4,4.1,7,4,6.9C3.9,6.7,3.7,6.7,3.8,6.9c0.1,0.2,0.1,0.5,0,0.8
				C3.5,7.7,3.4,7.6,3.2,7.5c0-0.2,0.1-0.4,0.1-0.6c0-0.2-0.1-0.4-0.2-0.1C3,7,3,7.2,2.9,7.4c-0.1,0-0.2-0.1-0.2-0.1
				c0,0,0-0.3,0-0.6c0-0.3-0.1-0.2-0.2,0c0,0.1-0.1,0.2-0.1,0.4C2.3,7,2.2,6.8,2.2,6.7c0-0.3,0.1-0.5,0.1-0.7c0-0.1-0.1-0.4-0.2-0.1
				C2,6.2,2,6.4,2,6.5C1.9,6.5,1.8,6,1.7,5.7c0-0.1-0.1-0.3-0.2,0c0,0.4,0,0.7,0.1,0.9c-0.2,0-0.3-0.3-0.5-0.5
				c-0.1-0.2-0.2,0-0.1,0.1C1.2,6.8,1.7,7,1.9,7c0.4,0.5,1,0.7,1.6,1C2.8,8,2.6,8.3,2.3,8.1c0,0.3,0.2,0.4,0.3,0.5
				c0.1,0,0.2,0.1,0.2,0.1C2.8,9,3.2,9,3.4,9c-0.1,0.7,0,1.6,0.6,2.2c0,0.3,0,0.8,0,1.1c-0.5,0.4-0.9,1.4-1.1,1.9
				c-0.1,0.4-0.3,0.7-0.6,0.8c0.2,0.3,0.6,0.1,0.8,0c0,0.2,0.1,0.4,0.1,0.5C3.1,15.8,3,15.9,3,16.1c-0.2,0-0.3,0.1-0.3,0.2
				c-0.1,0.1,0,0.4,0.1,0.5c0.2,0.4,0,1.4,0,1.7c0.1,0,0.2,0,0.3-0.1c0,0,0.2,0.1,0.2,0.3c0,0.1-0.1,0.4,0.1,0.4
				c0.1,0,0.7,0,0.7-0.1c-0.1-0.1-0.1-0.2-0.2-0.3c0-0.1,0-0.3-0.1-0.4c-0.1-0.1-0.2-0.4-0.3-0.5c0-0.2,0-1,0-1.3
				c0.1-0.1,1.1-0.8,1.3-1.5c0.2,0.1,0.1,0.5,0.1,1.1c0,0.2,0.2,0.2,0.3,0.3c0.3,0,0.6,0.3,1,0.9c0.1-0.1,0.2-0.2,0.2-0.2
				c0.1,0.1,0.1,0.2,0.2,0.4c0,0.1,0.4,0.1,0.6,0.1c0.1,0,0.1,0,0.2-0.1c-0.3-0.6-0.5-0.9-0.9-1.2C6.3,16.2,6,16.1,5.8,16
				c0.1-0.3,0.5-1.5,0.3-2c-0.1-0.2-0.4-0.3-0.7-0.2c0.3-0.4,0.9-1.1,1-1.3c0.1,0.1,0.4,0,0.7,0.1c0.1,0,0.4,0.4,0.4,0.5
				c0,0.2,0,0.5-0.1,1.1c0.1,0,0.1,0,0.2-0.1c0,0.2,0,0.3-0.2,0.5c0,0.2,0.1,0.6,0.2,0.6c0.1-0.4,0.6-1,0.6-1.3
				C8.2,13.5,8,13.1,8.1,12.9L8.1,12.9z"/>
		</g>
	</g>
	<g>
		<g>
			<path d="M28.8,14.3c0,0-0.1,0.1-0.5,0.1c-0.4,0-0.8-0.2-1-0.4c-0.2-0.2-0.6-0.4-1-0.5c-0.8,0-1.3-0.2-1.7-0.7
				c-0.4-0.5-0.6-1.2-0.6-1.9c0-1.1,0.4-2,1.2-2.4c0.3-0.2,0.7-0.3,1.1-0.3c1.4,0,2.2,1,2.2,2.6c0,1.1-0.4,2-1,2.4
				c0.1,0.1,0.3,0.2,0.5,0.3c0.2,0.1,0.4,0.2,0.6,0.2c0.2,0,0.5,0,0.5,0L28.8,14.3z M27.2,9.7C27.1,9.4,26.8,9,26.3,9
				c-0.3,0-0.7,0.2-0.8,0.5c-0.2,0.3-0.3,0.8-0.3,1.4c0,0.9,0.1,1.4,0.5,1.7c0.2,0.1,0.4,0.2,0.6,0.2c0.7,0,1-0.5,1-1.9
				C27.3,10.3,27.3,9.9,27.2,9.7z"/>
			<path d="M31.8,13.5c-0.1-0.1-0.2-0.2-0.3-0.4c-0.2,0.2-0.6,0.4-1,0.4c-0.5,0-1-0.3-1.1-0.6c-0.1-0.2-0.1-0.4-0.1-0.8V9.7l1-0.2
				V12c0,0.3,0,0.5,0.1,0.6c0.1,0.1,0.2,0.2,0.3,0.2c0.2,0,0.5-0.2,0.6-0.4V9.7l1-0.2v2.9c0,0.3,0.1,0.5,0.2,0.7L31.8,13.5z"/>
			<path d="M34.2,11.8L34.2,11.8c0,0.6,0.3,1,0.8,1c0.3,0,0.7-0.1,1-0.4l0.4,0.6c-0.4,0.4-0.9,0.5-1.4,0.5c-1.1,0-1.8-0.8-1.8-2
				c0-0.7,0.1-1.1,0.5-1.5c0.3-0.3,0.7-0.5,1.2-0.5c0.4,0,0.9,0.1,1.1,0.4c0.3,0.4,0.5,0.9,0.5,1.7v0.2H34.2z M35.3,11.1
				c0-0.3,0-0.4-0.1-0.6c-0.1-0.1-0.2-0.2-0.4-0.2c-0.4,0-0.6,0.3-0.6,0.8v0L35.3,11.1L35.3,11.1z"/>
			<path d="M37.9,11.8L37.9,11.8c0,0.6,0.3,1,0.8,1c0.3,0,0.7-0.1,1-0.4l0.4,0.6c-0.4,0.4-0.9,0.5-1.4,0.5c-1.1,0-1.8-0.8-1.8-2
				c0-0.7,0.1-1.1,0.5-1.5c0.3-0.3,0.7-0.5,1.2-0.5c0.4,0,0.9,0.1,1.1,0.4c0.3,0.4,0.5,0.9,0.5,1.7v0.2H37.9z M39.1,11.1
				c0-0.3,0-0.4-0.1-0.6c-0.1-0.1-0.2-0.2-0.4-0.2c-0.4,0-0.6,0.3-0.6,0.8v0L39.1,11.1L39.1,11.1z"/>
			<path d="M42.8,13.4V11c0-0.4-0.1-0.6-0.3-0.6c-0.2,0-0.5,0.1-0.7,0.3v2.7h-1v-2.8c0-0.3,0-0.6-0.1-0.9l0.9-0.3
				c0.1,0.2,0.1,0.3,0.1,0.5c0.1-0.1,0.3-0.2,0.4-0.3c0.2-0.1,0.5-0.2,0.7-0.2c0.4,0,0.8,0.2,0.9,0.5c0.1,0.1,0.1,0.3,0.1,0.5v2.8
				H42.8z"/>
			<path d="M46,13.6c-0.5,0-1-0.1-1.5-0.4l0.4-0.7c0.3,0.2,0.8,0.4,1.3,0.4c0.3,0,0.5-0.2,0.5-0.4c0-0.3-0.2-0.4-0.6-0.5l-0.4-0.1
				c-0.3,0-0.6-0.2-0.7-0.4c-0.1-0.2-0.2-0.4-0.2-0.7c0-0.7,0.6-1.2,1.5-1.2c0.6,0,1,0.2,1.4,0.4l-0.3,0.7c-0.4-0.2-0.7-0.3-0.9-0.3
				c-0.3,0-0.5,0.1-0.5,0.4c0,0.2,0.1,0.3,0.5,0.4l0.5,0.1c0.5,0.1,0.6,0.3,0.8,0.4c0.1,0.2,0.2,0.4,0.2,0.6
				C47.6,13,47,13.6,46,13.6z"/>
			<path d="M49.3,13.5c-0.4,0-0.8-0.2-0.9-0.5c-0.1-0.2-0.1-0.3-0.1-0.9V9.3c0-0.5,0-0.8-0.1-1.1l1-0.2c0,0.2,0.1,0.5,0.1,1v3
				c0,0.7,0,0.7,0.1,0.8c0,0.1,0.1,0.1,0.2,0.1c0,0,0.1,0,0.1,0l0.2,0.6C49.7,13.5,49.5,13.5,49.3,13.5z"/>
			<path d="M52.9,13.6c-0.2-0.1-0.4-0.3-0.5-0.5c-0.1,0.1-0.2,0.1-0.2,0.2c-0.2,0.1-0.5,0.2-0.8,0.2c-0.8,0-1.3-0.4-1.3-1.2
				c0-0.9,0.6-1.3,1.8-1.3c0.1,0,0.1,0,0.2,0v-0.2c0-0.4-0.1-0.6-0.4-0.6c-0.3,0-0.7,0.2-1.1,0.4l-0.4-0.7c0.2-0.1,0.3-0.2,0.6-0.3
				c0.4-0.2,0.7-0.2,1-0.2c0.6,0,1.1,0.2,1.2,0.7c0.1,0.2,0.1,0.3,0.1,0.7l0,1.3c0,0.4,0,0.6,0.4,0.8L52.9,13.6z M52.1,11.8
				c-0.7,0-0.9,0.1-0.9,0.6c0,0.3,0.2,0.5,0.4,0.5c0.2,0,0.4-0.1,0.5-0.3L52.1,11.8L52.1,11.8z"/>
			<path d="M56.2,13.4V11c0-0.4-0.1-0.6-0.3-0.6c-0.2,0-0.5,0.1-0.7,0.3v2.7h-1v-2.8c0-0.3,0-0.6-0.1-0.9l0.9-0.3
				c0.1,0.2,0.1,0.3,0.1,0.5c0.1-0.1,0.3-0.2,0.4-0.3c0.2-0.1,0.5-0.2,0.7-0.2c0.4,0,0.8,0.2,0.9,0.5c0.1,0.1,0.1,0.3,0.1,0.5v2.8
				H56.2z"/>
			<path d="M60.5,13.4c0-0.1,0-0.1-0.1-0.2c-0.2,0.2-0.5,0.3-0.9,0.3c-1,0-1.6-0.8-1.6-1.9c0-1.2,0.7-2,1.6-2c0.3,0,0.5,0.1,0.7,0.2
				c0-0.1,0-0.3,0-0.6V7.9l1,0.2v4c0,0.9,0.1,1.2,0.1,1.4H60.5z M60.3,10.6c-0.2-0.2-0.4-0.2-0.5-0.2c-0.4,0-0.6,0.4-0.6,1.2
				c0,0.8,0.2,1.1,0.7,1.1c0.2,0,0.4-0.1,0.5-0.2V10.6z"/>
			<path d="M66.4,13.7c-0.6,0-1.2-0.2-1.6-0.6c-0.4-0.5-0.6-1.1-0.6-2c0-1,0.3-1.7,0.8-2.1c0.4-0.3,0.8-0.5,1.3-0.5
				c0.5,0,1,0.2,1.4,0.5l-0.3,0.4c-0.4-0.3-0.7-0.4-1.1-0.4c-0.6,0-1.1,0.3-1.3,0.9c-0.1,0.4-0.2,0.8-0.2,1.3c0,0.7,0.1,1.2,0.4,1.5
				c0.2,0.3,0.8,0.5,1.2,0.5c0.3,0,0.6-0.1,0.8-0.2v-1.6h-1l-0.1-0.5h1.7v2.4C67.5,13.5,66.9,13.7,66.4,13.7z"/>
			<path d="M70.4,13.7c-1,0-1.6-0.8-1.6-2c0-1.2,0.6-1.9,1.6-1.9c0.6,0,1,0.3,1.3,0.6c0.2,0.3,0.3,0.8,0.3,1.4
				C72,13.1,71.4,13.7,70.4,13.7z M71.2,10.7c-0.2-0.3-0.5-0.5-0.8-0.5c-0.3,0-0.6,0.2-0.8,0.4c-0.1,0.2-0.2,0.5-0.2,1
				c0,0.5,0.1,1,0.2,1.2c0.1,0.2,0.4,0.4,0.8,0.4c0.4,0,0.7-0.2,0.8-0.6c0.1-0.2,0.1-0.4,0.1-0.8C71.4,11.3,71.3,11,71.2,10.7z"/>
			<path d="M74.3,13.6h-0.6l-1.3-3.7L73,9.8l0.9,2.5c0.1,0.3,0.2,0.6,0.2,0.6h0c0,0,0.1-0.3,0.2-0.6l0.8-2.5h0.6L74.3,13.6z"/>
			<path d="M76.9,11.9L76.9,11.9c0,0.4,0,0.7,0.2,0.9c0.2,0.3,0.5,0.5,0.9,0.5c0.4,0,0.6-0.1,0.9-0.3l0.2,0.4
				c-0.3,0.3-0.8,0.5-1.2,0.5c-1,0-1.6-0.7-1.6-2c0-0.6,0.1-1,0.4-1.4c0.3-0.3,0.7-0.5,1.1-0.5c0.4,0,0.8,0.1,1,0.4
				c0.3,0.3,0.4,0.7,0.4,1.6v0.1H76.9z M78.4,10.6c-0.1-0.2-0.4-0.3-0.7-0.3c-0.5,0-0.8,0.4-0.9,1.2h1.7
				C78.6,11,78.5,10.8,78.4,10.6z"/>
			<path d="M81.8,10.5c0,0-0.1,0-0.2,0c-0.2,0-0.4,0.1-0.6,0.3c-0.2,0.2-0.2,0.3-0.2,0.6v2.3h-0.6v-2.9c0-0.5-0.1-0.8-0.1-0.8
				l0.6-0.2c0,0,0.1,0.3,0.1,0.6c0.3-0.4,0.7-0.6,1-0.6c0.1,0,0.2,0,0.2,0L81.8,10.5z"/>
			<path d="M84.7,13.6v-2.5c0-0.4,0-0.5-0.1-0.6c-0.1-0.1-0.2-0.2-0.4-0.2c-0.3,0-0.8,0.2-1,0.5v2.8h-0.6v-2.9
				c0-0.5-0.1-0.8-0.1-0.8L83,9.8c0,0,0.1,0.3,0.1,0.6c0.4-0.4,0.8-0.6,1.2-0.6c0.4,0,0.8,0.2,0.9,0.5c0.1,0.1,0.1,0.3,0.1,0.4v2.8
				H84.7z"/>
			<path d="M90.5,13.6v-2.7c0-0.4-0.2-0.5-0.5-0.5c-0.3,0-0.6,0.2-1,0.6v2.7h-0.6V11c0-0.2,0-0.4-0.1-0.5c-0.1-0.1-0.2-0.1-0.4-0.1
				c-0.3,0-0.6,0.1-0.9,0.5v2.8h-0.6v-2.9c0-0.5-0.1-0.8-0.1-0.8l0.6-0.1c0,0,0.1,0.3,0.1,0.6c0.2-0.3,0.7-0.6,1.1-0.6
				c0.4,0,0.7,0.2,0.9,0.6c0.4-0.4,0.8-0.6,1.2-0.6c0.6,0,0.9,0.4,0.9,1v2.8H90.5z"/>
			<path d="M92.7,11.9L92.7,11.9c0,0.4,0,0.7,0.2,0.9c0.2,0.3,0.5,0.5,0.9,0.5c0.4,0,0.6-0.1,0.9-0.3l0.2,0.4
				c-0.3,0.3-0.8,0.5-1.2,0.5c-1,0-1.6-0.7-1.6-2c0-0.6,0.1-1,0.4-1.4c0.3-0.3,0.7-0.5,1.1-0.5c0.4,0,0.8,0.1,1,0.4
				c0.3,0.3,0.4,0.7,0.4,1.6v0.1H92.7z M94.2,10.6c-0.1-0.2-0.4-0.3-0.7-0.3c-0.5,0-0.8,0.4-0.9,1.2h1.7
				C94.4,11,94.3,10.8,94.2,10.6z"/>
			<path d="M98.2,13.6v-2.5c0-0.4,0-0.5-0.1-0.6c-0.1-0.1-0.2-0.2-0.4-0.2c-0.3,0-0.8,0.2-1,0.5v2.8H96v-2.9c0-0.5-0.1-0.8-0.1-0.8
				l0.6-0.2c0,0,0.1,0.3,0.1,0.6c0.4-0.4,0.8-0.6,1.2-0.6c0.4,0,0.8,0.2,0.9,0.5c0.1,0.1,0.1,0.3,0.1,0.4v2.8H98.2z"/>
			<path d="M101.2,10.3h-0.8v2.4c0,0.4,0.1,0.5,0.5,0.5c0.2,0,0.3,0,0.4-0.1l0.1,0.4c-0.2,0.1-0.4,0.1-0.7,0.1c-0.2,0-0.3,0-0.5-0.1
				c-0.3-0.1-0.4-0.4-0.4-0.7v-2.5h-0.5V9.9h0.5c0-0.4,0.1-0.9,0.1-0.9l0.6-0.1c0,0-0.1,0.6-0.1,1.1h0.9L101.2,10.3z"/>
		</g>
	</g>
</g>
</svg>
