<?xml version="1.0" encoding="utf-8"?>
<!-- Generator: Adobe Illustrator 18.1.0, SVG Export Plug-In . SVG Version: 6.00 Build 0)  -->
<svg version="1.1" id="Layer_1" xmlns="http://www.w3.org/2000/svg" xmlns:xlink="http://www.w3.org/1999/xlink" x="0px" y="0px"
	 viewBox="0 0 48.4 60.5" enable-background="new 0 0 48.4 60.5" xml:space="preserve">
<g>
	<g>
		<path d="M10.1,52.1c0,0-0.1,0.1-0.4,0.1c-0.4,0-0.7-0.2-0.9-0.3c-0.2-0.2-0.6-0.4-1-0.5c-0.7,0-1.2-0.2-1.6-0.7
			c-0.4-0.5-0.6-1.1-0.6-1.8c0-1.1,0.4-1.9,1.1-2.3c0.3-0.2,0.6-0.2,1-0.2c1.3,0,2.1,0.9,2.1,2.5c0,1.1-0.4,1.8-1,2.2
			c0.1,0,0.3,0.2,0.4,0.2c0.2,0.1,0.4,0.2,0.6,0.2c0.2,0,0.4,0,0.4,0L10.1,52.1z M8.6,47.7c-0.1-0.2-0.3-0.6-0.9-0.6
			c-0.3,0-0.6,0.2-0.8,0.4c-0.2,0.3-0.2,0.7-0.2,1.3c0,0.8,0.1,1.4,0.4,1.6c0.2,0.1,0.4,0.2,0.6,0.2c0.7,0,1-0.5,1-1.8
			C8.8,48.3,8.7,48,8.6,47.7z"/>
		<path d="M13,51.4c-0.1-0.1-0.2-0.2-0.3-0.3c-0.2,0.2-0.6,0.3-0.9,0.3c-0.5,0-0.9-0.2-1.1-0.6c-0.1-0.2-0.1-0.4-0.1-0.7v-2.3
			l0.9-0.2v2.3c0,0.3,0,0.5,0.1,0.6c0,0.1,0.2,0.2,0.3,0.2c0.2,0,0.5-0.2,0.6-0.3v-2.5l0.9-0.2v2.7c0,0.2,0.1,0.5,0.2,0.7L13,51.4z"
			/>
		<path d="M15.2,49.8L15.2,49.8c0,0.6,0.3,0.9,0.8,0.9c0.3,0,0.6-0.1,0.9-0.4l0.4,0.6c-0.4,0.3-0.8,0.5-1.4,0.5
			c-1,0-1.7-0.7-1.7-1.9c0-0.6,0.1-1.1,0.4-1.4c0.3-0.3,0.7-0.5,1.1-0.5c0.4,0,0.8,0.1,1,0.4c0.3,0.3,0.5,0.8,0.5,1.6v0.2H15.2z
			 M16.3,49c0-0.3,0-0.4-0.1-0.5c-0.1-0.1-0.2-0.2-0.4-0.2c-0.4,0-0.6,0.3-0.6,0.8v0L16.3,49L16.3,49z"/>
		<path d="M18.7,49.8L18.7,49.8c0,0.6,0.3,0.9,0.8,0.9c0.3,0,0.6-0.1,0.9-0.4l0.4,0.6c-0.4,0.3-0.8,0.5-1.4,0.5
			c-1,0-1.7-0.7-1.7-1.9c0-0.6,0.1-1.1,0.4-1.4c0.3-0.3,0.7-0.5,1.1-0.5c0.4,0,0.8,0.1,1,0.4c0.3,0.3,0.5,0.8,0.5,1.6v0.2H18.7z
			 M19.8,49c0-0.3,0-0.4-0.1-0.5c-0.1-0.1-0.2-0.2-0.4-0.2c-0.4,0-0.6,0.3-0.6,0.8v0L19.8,49L19.8,49z"/>
		<path d="M23.4,51.3v-2.3c0-0.4-0.1-0.5-0.3-0.5c-0.2,0-0.4,0.1-0.7,0.3v2.5h-0.9v-2.6c0-0.3,0-0.6-0.1-0.8l0.8-0.2
			c0.1,0.1,0.1,0.3,0.1,0.4c0.1-0.1,0.3-0.2,0.4-0.3c0.2-0.1,0.4-0.2,0.6-0.2c0.4,0,0.7,0.2,0.9,0.5c0,0.1,0.1,0.3,0.1,0.5v2.6H23.4
			z"/>
		<path d="M26.4,51.4c-0.4,0-0.9-0.1-1.4-0.4l0.3-0.7c0.3,0.2,0.8,0.4,1.2,0.4c0.3,0,0.5-0.2,0.5-0.4c0-0.2-0.2-0.4-0.6-0.4
			l-0.4-0.1c-0.2,0-0.5-0.2-0.7-0.4c-0.1-0.2-0.2-0.4-0.2-0.6c0-0.7,0.6-1.2,1.4-1.2c0.6,0,1,0.2,1.3,0.3l-0.3,0.6
			c-0.4-0.2-0.6-0.3-0.9-0.3c-0.3,0-0.5,0.1-0.5,0.3c0,0.2,0.1,0.3,0.4,0.4l0.4,0.1c0.4,0.1,0.6,0.2,0.7,0.4
			c0.1,0.2,0.2,0.4,0.2,0.6C27.9,50.9,27.3,51.4,26.4,51.4z"/>
		<path d="M29.5,51.4c-0.4,0-0.7-0.2-0.8-0.5c-0.1-0.2-0.1-0.3-0.1-0.8v-2.7c0-0.5,0-0.8,0-1.1l1-0.2c0,0.2,0,0.4,0,0.9v2.8
			c0,0.6,0,0.7,0.1,0.8c0,0.1,0.1,0.1,0.2,0.1c0,0,0.1,0,0.1,0l0.2,0.6C29.9,51.3,29.7,51.4,29.5,51.4z"/>
		<path d="M32.9,51.5c-0.2-0.1-0.4-0.3-0.5-0.4c-0.1,0.1-0.1,0.1-0.2,0.2c-0.2,0.1-0.4,0.2-0.7,0.2c-0.8,0-1.2-0.4-1.2-1.1
			c0-0.8,0.6-1.2,1.7-1.2c0.1,0,0.1,0,0.2,0v-0.1c0-0.4-0.1-0.5-0.4-0.5c-0.3,0-0.7,0.1-1,0.4l-0.4-0.7c0.2-0.1,0.3-0.2,0.6-0.3
			c0.4-0.1,0.7-0.2,1-0.2c0.6,0,1,0.2,1.2,0.6c0,0.1,0.1,0.3,0.1,0.6l0,1.2c0,0.4,0,0.6,0.3,0.8L32.9,51.5z M32.1,49.7
			c-0.7,0-0.9,0.1-0.9,0.5c0,0.3,0.2,0.5,0.4,0.5c0.2,0,0.4-0.1,0.5-0.2L32.1,49.7L32.1,49.7z"/>
		<path d="M36,51.3v-2.3c0-0.4-0.1-0.5-0.3-0.5c-0.2,0-0.4,0.1-0.7,0.3v2.5h-0.9v-2.6c0-0.3,0-0.6-0.1-0.8l0.8-0.2
			c0.1,0.1,0.1,0.3,0.1,0.4c0.1-0.1,0.3-0.2,0.4-0.3c0.2-0.1,0.4-0.2,0.6-0.2c0.4,0,0.7,0.2,0.9,0.5c0,0.1,0.1,0.3,0.1,0.5v2.6H36z"
			/>
		<path d="M40,51.3c0-0.1,0-0.1-0.1-0.2c-0.2,0.2-0.5,0.3-0.8,0.3c-0.9,0-1.5-0.7-1.5-1.8c0-1.1,0.6-1.9,1.5-1.9
			c0.3,0,0.5,0.1,0.6,0.2c0-0.1,0-0.3,0-0.5v-1.2l0.9,0.1V50c0,0.9,0.1,1.2,0.1,1.3H40z M39.8,48.6c-0.2-0.2-0.3-0.2-0.5-0.2
			c-0.4,0-0.6,0.3-0.6,1.1c0,0.8,0.2,1,0.7,1c0.2,0,0.4-0.1,0.5-0.2V48.6z"/>
		<path d="M7.8,58.3c-0.6,0-1.1-0.2-1.5-0.6c-0.4-0.4-0.6-1-0.6-1.9c0-0.9,0.2-1.6,0.7-2c0.3-0.3,0.8-0.5,1.3-0.5
			c0.5,0,1,0.2,1.3,0.5l-0.3,0.4c-0.4-0.3-0.7-0.4-1-0.4c-0.6,0-1,0.3-1.2,0.8c-0.1,0.4-0.2,0.8-0.2,1.2c0,0.6,0.1,1.1,0.3,1.5
			c0.2,0.3,0.7,0.5,1.2,0.5c0.3,0,0.6-0.1,0.8-0.2v-1.5h-1l-0.1-0.5h1.6V58C8.8,58.2,8.3,58.3,7.8,58.3z"/>
		<path d="M11.6,58.4c-1,0-1.5-0.7-1.5-1.9c0-1.1,0.6-1.8,1.5-1.8c0.6,0,1,0.3,1.2,0.6c0.2,0.3,0.3,0.7,0.3,1.3
			C13.1,57.7,12.5,58.4,11.6,58.4z M12.3,55.6c-0.1-0.3-0.5-0.4-0.7-0.4c-0.3,0-0.6,0.1-0.7,0.4c-0.1,0.2-0.2,0.5-0.2,0.9
			c0,0.5,0.1,0.9,0.2,1.1c0.1,0.2,0.4,0.3,0.7,0.3c0.4,0,0.6-0.2,0.8-0.5c0.1-0.2,0.1-0.4,0.1-0.8C12.5,56.1,12.4,55.8,12.3,55.6z"
			/>
		<path d="M15.3,58.3h-0.5l-1.3-3.5l0.6-0.1l0.8,2.4c0.1,0.3,0.2,0.6,0.2,0.6h0c0,0,0.1-0.3,0.2-0.6l0.8-2.3h0.6L15.3,58.3z"/>
		<path d="M17.7,56.6L17.7,56.6c0,0.4,0,0.7,0.2,0.8c0.2,0.3,0.5,0.4,0.9,0.4c0.3,0,0.6-0.1,0.9-0.3l0.2,0.3
			c-0.3,0.3-0.7,0.4-1.2,0.4c-1,0-1.5-0.7-1.5-1.9c0-0.6,0.1-1,0.4-1.3c0.3-0.3,0.6-0.5,1-0.5c0.4,0,0.7,0.1,0.9,0.4
			c0.3,0.3,0.4,0.6,0.4,1.5v0.1H17.7z M19.1,55.4c-0.1-0.2-0.4-0.3-0.6-0.3c-0.5,0-0.8,0.4-0.8,1.1h1.6
			C19.3,55.8,19.2,55.6,19.1,55.4z"/>
		<path d="M22.3,55.3c0,0-0.1,0-0.2,0c-0.2,0-0.4,0.1-0.6,0.3c-0.2,0.2-0.2,0.3-0.2,0.6v2.2h-0.5v-2.7c0-0.5-0.1-0.7-0.1-0.7
			l0.5-0.1c0,0,0.1,0.3,0.1,0.6c0.3-0.4,0.6-0.6,1-0.6c0.1,0,0.2,0,0.2,0L22.3,55.3z"/>
		<path d="M25,58.3v-2.4c0-0.4,0-0.5-0.1-0.6c-0.1-0.1-0.2-0.1-0.4-0.1c-0.3,0-0.7,0.2-1,0.5v2.6H23v-2.7c0-0.5-0.1-0.7-0.1-0.7
			l0.5-0.1c0,0,0.1,0.3,0.1,0.5c0.4-0.4,0.7-0.5,1.1-0.5c0.4,0,0.7,0.2,0.9,0.5c0.1,0.1,0.1,0.3,0.1,0.4v2.6H25z"/>
		<path d="M30.6,58.3v-2.6c0-0.3-0.2-0.5-0.4-0.5c-0.3,0-0.6,0.2-0.9,0.5v2.6h-0.6v-2.5c0-0.2,0-0.3-0.1-0.4
			c-0.1-0.1-0.2-0.1-0.4-0.1c-0.3,0-0.5,0.1-0.9,0.5v2.6h-0.5v-2.7c0-0.5-0.1-0.7-0.1-0.7l0.5-0.1c0,0,0.1,0.3,0.1,0.5
			c0.2-0.3,0.7-0.5,1-0.5c0.3,0,0.7,0.2,0.8,0.6c0.3-0.4,0.8-0.6,1.1-0.6c0.5,0,0.9,0.4,0.9,0.9v2.6H30.6z"/>
		<path d="M32.9,56.6L32.9,56.6c0,0.4,0,0.7,0.2,0.8c0.2,0.3,0.5,0.4,0.9,0.4c0.3,0,0.6-0.1,0.9-0.3l0.2,0.3
			c-0.3,0.3-0.7,0.4-1.2,0.4c-1,0-1.5-0.7-1.5-1.9c0-0.6,0.1-1,0.4-1.3c0.3-0.3,0.6-0.5,1-0.5c0.4,0,0.7,0.1,0.9,0.4
			c0.3,0.3,0.4,0.6,0.4,1.5v0.1H32.9z M34.3,55.4c-0.1-0.2-0.4-0.3-0.6-0.3c-0.5,0-0.8,0.4-0.8,1.1h1.6
			C34.5,55.8,34.4,55.6,34.3,55.4z"/>
		<path d="M38,58.3v-2.4c0-0.4,0-0.5-0.1-0.6c-0.1-0.1-0.2-0.1-0.4-0.1c-0.3,0-0.7,0.2-1,0.5v2.6H36v-2.7c0-0.5-0.1-0.7-0.1-0.7
			l0.5-0.1c0,0,0.1,0.3,0.1,0.5c0.4-0.4,0.7-0.5,1.1-0.5c0.4,0,0.7,0.2,0.9,0.5c0.1,0.1,0.1,0.3,0.1,0.4v2.6H38z"/>
		<path d="M41.1,55.2h-0.7v2.2c0,0.4,0.1,0.5,0.4,0.5c0.2,0,0.2,0,0.3-0.1l0.1,0.3c-0.2,0.1-0.4,0.1-0.6,0.1c-0.2,0-0.3,0-0.5-0.1
			c-0.2-0.1-0.3-0.3-0.3-0.7v-2.4h-0.5v-0.4h0.5c0-0.3,0.1-0.9,0.1-0.9l0.6-0.1c0,0-0.1,0.5-0.1,1h0.9L41.1,55.2z"/>
	</g>
	<path d="M21,15.6c-1,0.1-2,1.4-1.6,2.9c-0.2,0.1-0.6,0-0.7-0.3c-0.1,0.5-1.1,1.1-1.8,1c0.4-0.4,0.7-1.4,1.5-1.9
		c0.8-0.5,1.1-0.9,1.4-1.8c-0.4,0.2-2.3,0.7-2.8,0.1c1.2-0.2,2.7-0.9,3.5-1.3L20,14c-0.8,0.4-1.8,0.8-2.4,1
		c-0.2-1.6,1.3-1.5,1.4-1.1c0.6-0.7,0.2-1.8-0.3-1.9c0.5-1.2,0-2-0.4-2.5c-0.1,1.3-1.6,1.5-1.7,2.6c-0.1-0.8-0.1-3-0.2-4
		c-0.1-2-2.6-2.7-3-2.7c-1.6,0.1-1.8-0.1-1.7-0.9c-0.8,0.9-0.5,1.8,0.2,2.2c-0.1,0.6-1,1-1.6,1.1C11.7,9,13.2,8.3,14,7.6
		c0.1-0.1,0.1-0.1,0.2-0.1c0.3,0.5,0.5,1.3,0.5,1.8c-1.2-0.1-1.5,0.9-1.5,1.2c1.6-0.7,1.7,2.4,2.2,2.8c-0.4,0-1.1-1-2.2-1
		c-1.3-0.1-1.7,0.6-2.2,0.6c0.1,0.9,1.2,1.4,1.9,1.5c-0.4,0.9,0,1.5,0.7,1.8c0-0.8,1.1-1.1,2.2-0.4c1.4,0.8,2.1,0.9,3.1,0.5
		c-0.2,0.4-0.7,0.4-1.3,1c-0.8,0.8-0.9,1.9-1.8,2.3c1.1,0.5,2.8-0.2,3-0.6c0.5,0.3,1.1,0.1,1.2-0.2c-0.7-1.7,0.5-2.6,1-2.6
		C21,16.1,21.2,15.6,21,15.6L21,15.6z M15.2,15c-0.6-0.2-1.4-0.4-1.9,0.3c-0.3-0.4,0.1-1.1,0.4-1.3c-1.2,0-1.9-0.4-2.1-0.7
		c0.5-0.2,1.6-0.7,2.5,0c0.6,0.5,1,0.7,1.7,0.9c0.3-0.3,0.2-0.2,0.3-0.2c-0.6-0.4-0.9-3.7-2.1-3.9c0.2-0.4,0.8-0.4,1.3-0.2
		c0-0.7-0.3-2-0.7-2.7c0.7-0.4,1.2,0,1.4,0.9c0.3,0.9,0,3.3,0.6,5.4l0.4-0.4c-0.2-1.2,1.2-1.7,1.5-2.3c0.1,0.8-0.1,1.2-0.3,1.5
		c0.5,0.1,0.7,0.5,0.6,0.9c-1.2-0.2-1.9,1-1.6,1.9C16.3,15.3,15.7,15.2,15.2,15L15.2,15z M11.9,5.7c0.9,0.5,1.2-0.4,3,0.7
		c-1.2,0.4-2,1.8-3.3,1.4c0.9-0.5,0.8-1.1,1.4-1.5C12.5,6.4,11.9,6.2,11.9,5.7L11.9,5.7z"/>
	<path d="M33,11.1c0-1.8-0.1-3.4-0.1-3.8c0.1,0,0.1,0,0.2,0.1c1.3,0.5,1.6,2.1,4.4,0.2c-1.5,0.2-1.5-1.1-2.2-1.1
		c1-0.6,1.1-1.9,1.1-1.9c-0.9,0.7-2.8,0.7-3.2,1c-0.5,0.3-1.2,0.7-1.6,0.9c-1.1,0.6-0.3,4-0.5,5.2c-0.6-1.8-1.9-1.6-2.5-2.6
		c-0.5,0.9,0,2.4,0.2,2.8c-0.7,0.6-0.5,1.6-0.3,1.9c0.6-0.4,1.5-0.3,1.8,0.4c-0.8,0.5-2.1,0.6-3-0.3L27,14.2
		c0.6,0.8,2.2,1.2,3.4,0.5c0,0.2,0,0.4-0.1,0.7c-0.6,0.3-1.4,0.5-2.3,0.2c0.1,0.9,1.2,1.6,2.2,1.9c-0.3,0.3-0.8,0.4-1.1,0.3
		c0.2,0.5,0.3,1.3-0.1,1.8c-0.5-0.3-0.8-0.7-1-2c-0.2-1.3-1.1-2.6-1.9-2.9c0,0.5,0,0.3,0,0.6c1.9,1.4,0.8,4,2.9,4.9
		c0.7-0.8,0.7-1.1,0.6-1.9c0.7-0.2,1.3-0.8,1.5-1.3c-0.7,0.3-1.8-0.2-2.1-0.7c1.2,0,2.3-0.9,3.4-2.1c1-1.1,2.4-0.9,2.3-0.1
		c0.7-0.1,1-1.1,0.7-1.7c1-0.3,1.8-1.1,1.9-2.3C36.1,10.8,34.3,9.7,33,11.1L33,11.1z M34.7,12.1c0.5,0.5,0.4,1.1,0.2,1.2
		c-0.5-0.8-2-0.5-3.5,1.2c-0.1,0.1-0.2,0.3-0.4,0.4c0.1-2-1.5-2.1-2-1.9c0.1-0.6,0.4-1,0.6-1c-0.5-0.6-0.6-1.3-0.7-1.8
		c0.8,0.4,2,1.3,2.2,2.9l0.5-0.4c-0.2-2.9-0.1-2.9-0.1-4.8c0-0.3,0-0.9,0.9-0.8c0,0.7,0.1,2.6,0.1,5.3h0.3c0.3-0.7,1.3-1.6,2.4-1.5
		c0.8,0.1,1.1,0,1.5-0.2C36.4,11.6,35,12,34.7,12.1L34.7,12.1z M32.4,6.6C33,6.2,33.4,6,33.6,5.9c0.5,0,1.3,0,1.8-0.3
		c-0.5,0.6-0.6,0.9-1.4,1c1.1,0.1,1.6,1.1,2.1,1.2C34.3,8.3,34.1,6.5,32.4,6.6L32.4,6.6z"/>
	<path d="M25.6,17.4c-0.1,0-0.2,0-0.2,0.1c-0.1,0-0.2,0-0.3,0l0-0.6c0.1,0,0.2-0.2,0.2-0.3c0-0.2-0.1-0.3-0.3-0.3
		c-0.2,0-0.3,0.1-0.3,0.3c0,0.1,0.1,0.2,0.2,0.3l0,0.6c-0.1,0-0.2,0-0.3,0c0-0.1-0.1-0.2-0.3-0.2c-0.2,0-0.3,0.1-0.3,0.3
		c0,0.2,0.1,0.3,0.3,0.3c0.1,0,0.2-0.1,0.2-0.1c0.1,0,0.2,0,0.3,0l0,0.9c-0.1,0.1-0.2,0.1-0.2,0.3c0,0.2,0.1,0.3,0.3,0.3
		c0.2,0,0.3-0.1,0.3-0.3c0-0.1-0.1-0.2-0.2-0.3l0-0.8c0.1,0,0.2,0,0.3,0c0,0.1,0.1,0.2,0.3,0.2c0.2,0,0.3-0.1,0.3-0.3
		C25.9,17.5,25.7,17.4,25.6,17.4L25.6,17.4z"/>
	<path d="M23,17.2c-0.1,0-0.2,0.1-0.3,0.2c-0.1,0-0.2,0-0.3,0l0-0.6c0.1-0.1,0.2-0.1,0.2-0.3c0-0.2-0.1-0.3-0.3-0.3
		c-0.2,0-0.3,0.1-0.3,0.3c0,0.1,0.1,0.2,0.2,0.3l0,0.6c-0.1,0-0.2,0-0.3,0c-0.1-0.1-0.1-0.1-0.2-0.1c-0.2,0-0.3,0.1-0.3,0.3
		c0,0.2,0.1,0.3,0.3,0.3c0.1,0,0.2-0.1,0.3-0.2c0.1,0,0.2,0,0.3,0l0,0.8c-0.1,0-0.2,0.2-0.2,0.3c0,0.2,0.1,0.3,0.3,0.3
		c0.2,0,0.3-0.1,0.3-0.3c0-0.1-0.1-0.2-0.2-0.3l0-0.9c0.1,0,0.2,0,0.3,0c0.1,0.1,0.1,0.1,0.2,0.1c0.2,0,0.3-0.1,0.3-0.3
		C23.3,17.3,23.2,17.2,23,17.2L23,17.2z"/>
	<path d="M26.9,19.8c-0.2-1.2-0.6-4.5-0.7-5.7l-0.5,0c0,0.2,0,0.4,0.1,0.7c-0.6-0.2-1.4-0.3-2.2-0.3c-0.8,0-1.6,0.1-2.2,0.3
		c0-0.3,0-0.5,0.1-0.7l-0.5,0c0,1.1-0.5,4.5-0.7,5.7c-0.3,0.1-0.5,0.4-0.5,1c0,0,2.8,0,3.9,0c1.1,0,3.9,0,3.9,0
		C27.4,20.2,27.2,19.9,26.9,19.8L26.9,19.8z M23.6,19.7c-0.4,0.8-1.3,0.8-2,0.3c-0.3-0.2-0.6-0.3-0.9-0.4c0.1-0.8,0.3-2.4,0.5-3.7
		c0.9-0.4,2.1-0.5,2.4,0.5c0.3-1.1,1.4-1,2.4-0.5c0.1,1.3,0.4,2.9,0.5,3.7c-0.3,0-0.6,0.2-0.9,0.4C24.9,20.5,24,20.6,23.6,19.7
		L23.6,19.7z"/>
	<path d="M17.7,21.1c1.6,0.6,3.4,0.9,5.3,0c-0.2,0.9-0.6,1.4-1.1,1.7c0.3,0.7,0.7,1.5,0.9,2.2c0.5,0.3,0.4,0.9,0.3,1.3
		c-0.1,0.4-1.2,0.8-1.6,0.7c-0.4-0.1-0.4-0.3-0.5-0.3c-0.5,0-2.1,1.6-3.6,0.1c0-1.4,0-3.2,0-3.2c0.6-0.3,1.1-0.6,1.4-1
		C18.4,22.3,17.9,21.7,17.7,21.1L17.7,21.1z M19.4,22.5c-0.4,0.6-0.8,1-1.6,1.4c0,0,0,1.7,0,2.6c1,0.9,2.3,0.1,2.8-0.2
		c-0.2-0.2-0.2-0.4-0.3-0.7c-1.3,0.1-1.7-0.5-2-1.4c0,0,0.2-0.2,0.5-0.3c0.4,1.4,1.2,1.2,1.9,1.2c0.4-0.4,1-0.5,1.5-0.5
		c-0.1-0.6-0.5-1.3-0.9-1.9c0.3-0.2,0.8-0.5,1-0.9c-1.7,0.6-2.4,0.4-3.9,0C18.7,22.1,19.1,22.4,19.4,22.5L19.4,22.5z M22.3,25.1
		C22,25,21.1,25.2,21,25.5c-0.1,0.2,0.1,0.6,0.4,0.8c0.2,0.1,1-0.1,1.2-0.3C22.7,25.8,22.6,25.2,22.3,25.1L22.3,25.1z"/>
	<path d="M30,23.2c0-1-0.7-1.9-1.8-1.9c-1,0-2.3,0.5-2.3,1.4c-1.5,0.9-2.2,1.6-2,2.4c-0.5,0.5-0.1,1.5,1.4,0.9
		c-0.4,0.4-0.5,0.9-0.5,1.3c1.4,0,4.6,0,5,0C29.1,24.5,30,25,30,23.2L30,23.2z M28.5,22.9c-0.3-0.1-1.4-0.1-1.7,0.7
		c-0.2,0-0.4-0.1-0.6-0.2c-0.1,0.2-0.4,0.3-0.7,0.4c0.3,0.5,0.8,0.5,1.1,0.2c0,0.1,0,0.1,0,0.2c0,1.3,1.4,1.7,2.3,1.2
		c-0.1,0.4-0.1,1,0,1.3c0,0-3,0-3.4,0c0.1-0.4,0.5-0.8,0.9-1.1l-0.3-0.5c-0.4,0.2-0.7,0.3-1.1,0.4C24,25.9,24,25.2,25,24.9v-0.3
		l-0.6,0c0.2-0.7,1.5-1.5,2-1.7c0-0.7,0.9-1,1.7-1c1,0,1.2,1,1.2,1.3c0,0.4-0.1,1.4-0.6,1.6c-0.8,0.4-1.4-0.2-1.4-0.7
		c0-0.6,0.4-0.9,1.1-0.8C29,23.4,29,23.1,28.5,22.9L28.5,22.9z"/>
	<path d="M28.4,32.6v-1v-0.2h-0.2h-0.3c0-1.2-0.3-2.2-0.9-2.7l-0.2-0.2l-0.2,0.2c-0.6,0.6-0.9,1.5-0.9,2.7h-0.3h-0.2v0.2v0.9
		c-0.7,0.2-1.1,0.6-1.7,1l0,0l0.3,0.4l0,0c0.9-0.7,1.4-1.1,3-1.1c1.6,0,2.3,0.7,2.7,1.4l0.4-0.2C29.5,33.5,29.1,32.9,28.4,32.6
		L28.4,32.6z M26.8,29.2c0.4,0.5,0.6,1.2,0.6,2.2h-1.2C26.2,30.4,26.4,29.7,26.8,29.2L26.8,29.2z M25.6,32.4v-0.5h2.3v0.6
		c-0.3-0.1-0.7-0.1-1.1-0.1C26.3,32.3,26,32.4,25.6,32.4L25.6,32.4z"/>
	<path d="M28,34.8c0.1-0.4,0-0.8-0.2-1c-0.2-0.2-0.6-0.4-1-0.3l0.5,0.5l-0.8,0.7l-0.4-0.4c0,0,0.1-0.1,0.3-0.3
		c-0.3-0.3-0.7-0.6-1.2-0.5c-0.2,0.5,0,1,0.3,1.3c0.2-0.2,0.3-0.3,0.3-0.3l0.3,0.4l-1,0.8l0.3,0.4l0.9-0.8l0.3,0.4
		c0,0-0.2,0.3,0.1,0.6c0.2-0.2,0.6-0.5,0.8-0.7c-0.3-0.3-0.6-0.2-0.6-0.2L26.8,35l0.8-0.7L28,34.8L28,34.8z"/>
	<path d="M21.8,29.2c-0.1-0.7-0.9-0.8-1.3-0.5c-0.3-0.3-1.1-0.2-1.3,0.5c-1.3-0.2-1.1,1-1,1.3c0.1,0.3,0.5,1.1,0.7,1.6
		c0,0-0.1,0-0.1,0c-0.1,0.3-0.1,0.7,0,0.9c0.1,0,0.1,0,0.2,0.1c-0.1,0.4-0.4,1-0.5,1.3c0.2,0.1,0.4,0.2,0.6,0.2c0,0,0,0.2-0.1,0.4
		c0.3,0.1,1,0.2,1.5,0.2c0.4,0,1.1-0.1,1.5-0.2c-0.1-0.2-0.1-0.4-0.1-0.4c0.3-0.1,0.4-0.1,0.6-0.2c-0.1-0.3-0.4-0.9-0.5-1.3
		c0.1,0,0.1,0,0.2-0.1c0-0.3,0-0.7,0-0.9c0,0-0.1,0-0.1,0c0.2-0.5,0.6-1.3,0.7-1.6C22.9,30.2,23.1,29,21.8,29.2L21.8,29.2z
		 M20.5,29.3c0-0.3,1-0.4,0.8,0.3c-0.2,0.7-0.4,1.6-0.6,2.4c-0.1,0-0.2,0-0.2,0c-0.1,0-0.2,0-0.2,0c-0.2-0.7-0.4-1.6-0.6-2.4
		C19.5,28.9,20.5,28.9,20.5,29.3L20.5,29.3z M21.8,32.4c0,0.1,0,0.3,0,0.4c-0.3,0.1-0.8,0.1-1.2,0.1c-0.4,0-0.9,0-1.2-0.1
		c0-0.1,0-0.3,0-0.4c0.2-0.1,1-0.1,1.2-0.1C20.8,32.3,21.6,32.3,21.8,32.4L21.8,32.4z M18.8,30.3c-0.3-0.7,0.4-0.8,0.5-0.5
		c0.2,0.6,0.5,1.5,0.7,2.1c-0.2,0-0.4,0-0.5,0C19.4,31.8,19.1,31,18.8,30.3L18.8,30.3z M22,34.2c-0.2,0.1-0.4,0.1-0.6,0.2
		c0,0.2,0.1,0.3,0.1,0.4c-0.3,0.1-0.7,0.1-1,0.1c-0.3,0-0.7,0-1-0.1c0-0.1,0.1-0.3,0.1-0.4c-0.2,0-0.4-0.1-0.6-0.2
		c0.1-0.3,0.2-0.6,0.3-1c0.4,0.1,0.7,0.1,1.1,0.1c0.4,0,0.8,0,1.1-0.1C21.8,33.6,21.9,33.9,22,34.2L22,34.2z M22.3,30.3
		C22,31,21.7,31.8,21.6,32c-0.2,0-0.3,0-0.5,0c0.2-0.6,0.5-1.5,0.7-2.1C21.9,29.5,22.6,29.6,22.3,30.3L22.3,30.3z"/>
	<path d="M19.5,23.3c0.4,0.1,0.6,0,0.9,0c0.1,0,0.4,0.1,0.4,0.5c0,0.2,0,0.3,0.1,0.4c-0.3,0-0.6,0.1-0.8,0
		C19.7,24,19.7,23.5,19.5,23.3L19.5,23.3z"/>
	<path d="M47.2,17.8c-0.2,0-0.5,0.1-0.7,0.2c0.4-0.4,0.7-1,0.7-1.4c-0.2,0.1-0.6,0.2-0.9,0.3c0.7-0.6,1.1-1.3,0.9-2.2
		c-0.2,0.1-0.5,0.3-0.8,0.4c0.6-0.9,0.6-1.7,0.3-2.2c-0.3,0.3-0.6,0.5-0.9,0.8c0.2-1.1,0.2-1.8-0.2-2.2c-0.5,0.9-0.9,1.5-1.5,2.3
		c0-0.7,0-1.6-0.5-2.1c0,0-0.1,1-0.5,1.3c-0.1-1-0.4-1.5-0.8-2c0,0,0,1-0.3,1.6c-0.2-0.8-0.7-1.5-1.2-2.1c0,1.9-0.5,5.4-2,7.7
		c-0.2,1.4-0.3,3.5-2.6,4.7c-0.3-0.2-0.9-0.5-1.7-0.5c-0.2-1.1,1.2-2,2.4-2.8c1.2-0.8,1.7-1.4,1.7-2.5c0-1.1-0.8-1.6-1.6-1.6
		c-1.1,0-2,1-2.2,1.4c-0.3,0.2-1.3,0.4-1.7,0.6c-0.4,0.1-0.9,0.3-1.2,0.6c0.2,0.1,0.7,0.2,0.9,0.1c0.4-0.1,1.6-0.3,2.8-0.4
		c0.4,0.2,1.1,0.6,0.4,1.1c-1,0.6-1.4,0.8-2.8,1.5c-2.2,1.2-1.5,4-0.9,4.3c0,1,0.9,2.7,1.5,3.4c0.3,1.2-0.1,3.1-0.5,3.8
		c-0.3-0.7-0.8-2.5-1.2-3.5c0.4-1.9-0.2-2.7-0.6-3.1c-0.4-0.3-1-0.2-1.4,0.4c0.6-0.1,0.8,0.7,0.8,1.6c0,1-0.3,1.8-1,1.8
		c0.1,0.9,1,1.1,1.4,0.7c0.1,0.2,0.4,1.3,0.8,2.3c0.2,0.6,0.4,1.1,0.5,1.4c0.1,0.3,1.2,0.4,1.3,0c0.2-0.5,0.3-0.9,0.6-1.4l0,0
		c0.2-0.4,0.5-1,0.9-1.8c0.3,0.5,0.7,1.3,0.9,1.8c0.1,0.2,0.2,0.4,0.2,0.5c0.1,0.8,0,3.7-0.2,5.5c-2.4-0.7-3.1,0.5-2.9,1.4
		c0.3-0.4,0.8-0.3,1.1-0.1c-0.1,0.6,0.1,1.1,0.8,1.3c0.7-1.8,3.2-1.4,3.4-1.3c0-0.4,0.3-1.2-0.9-1.4c0-1.6,0.2-3.5,0.3-3.9
		c0.1-0.4,0.1-0.7-0.1-1.3c-0.1-0.2-0.1-0.4-0.2-0.7l0,0c-0.2-0.6-0.3-1.5-0.3-2.4c0.2,0.2,0.7,0.4,1.1,0.3c0.3,1.2,0.7,0.8,0.9,1.3
		c0.1,0.3,0.1,0.5,0.2,0.7c0,0.2,0.1,0.4,0.2,0.5c0.9,0,1.6-0.2,2.1-0.5c0.2-0.1,0.3-0.2,0.4-0.4c-0.2-1.3-0.6-1.9-1.2-2.7
		c-0.2-1-0.7-2-1.3-2.8c0.8-0.3,1.7-1,2.1-1.4c0.4,0,0.9-0.4,0.9-1c0.2,0,0.4,0,0.6-0.1c0-0.2-0.1-0.5-0.1-0.6c0.3,0,0.6,0,0.9,0
		c-0.1-0.2-0.2-0.5-0.3-0.7c0.3,0,0.7,0,1,0c-0.2-0.3-0.3-0.6-0.4-0.8c0.4,0,0.9-0.1,1.4-0.2c-0.1-0.2-0.3-0.3-0.6-0.5
		c1.2-0.3,1.7-1.2,1.7-1.5c-0.2,0-0.5,0.1-0.7,0.1C46.7,18.9,47.1,18.4,47.2,17.8z M41.1,12.5c0.3,0.5,0.5,1.3,0.5,2.1
		c0.4-0.4,0.6-1,0.7-1.4c0.2,0.3,0.1,1.2,0.1,1.6c0.4-0.3,0.7-0.8,0.9-1.3c0,0.4,0.1,0.7,0,1c-0.9,0.9-2.3,2.2-3.9,3.5
		C40.4,16.2,40.9,14.8,41.1,12.5z M33.7,32.1L33.7,32.1c-0.1,0.3-0.2,0.6-0.3,1c-0.1,0.3-0.8,0.2-0.9,0c-0.1-0.2-0.2-0.5-0.4-1l0,0
		c-0.4-1-0.9-2.5-1.1-3.2c-0.3,0.5-0.6,0.7-0.9,0.4c1.1-0.5,0.7-3.6,0.3-3.7c0.5-0.5,1.2,1.4,0.8,2.8c0.3,1,1,2.9,1.3,3.7l0,0
		c0.1,0.2,0.1,0.3,0.1,0.3c0.1,0.2,0.4,0.2,0.5,0c0-0.1,0.1-0.2,0.1-0.3l0,0c0.3-0.9,0.8-2.7,0.7-3.8c0.5,0.1,0.7,0.6,0.9,1.2
		C34.5,30.6,34,31.3,33.7,32.1z M45.7,19.8c-0.3,0.3-1.2,0.7-2.2,0.7c0.2,0.2,0.6,0.4,0.8,0.5c-0.3,0.1-0.7,0.1-1.1,0.1
		c0.2,0.3,0.4,0.7,0.5,0.8c-0.3,0-0.6,0-0.9,0c0.2,0.3,0.2,0.5,0.4,0.7c-0.2,0-0.7,0-0.9,0c0.1,0.2,0.2,0.5,0.3,0.7
		c-0.1,0-0.4,0-0.5,0c-1,1.4-2.4,2.9-5.1,2.8c0.1,0.2,0.1,0.5,0.2,0.5c0.4,0,1.2-0.1,1.8-0.1c0.4,0.5,1.1,1.5,1.5,3.2
		c0.3,0.2,0.8,1,1,2c-0.5,0.3-0.9,0.4-1.5,0.5c-0.2-1.3-0.9-1.4-1.2-2.5c-0.5,0.1-1.1-0.3-1.3-0.9h-0.6c-0.1,1.3,0.2,2.4,0.4,3.4
		c0.1,0.5,0.2,0.9,0.2,1.3c0.1,0.8-0.2,3.7-0.2,5c0.6,0,1,0.1,1,0.6c-0.9-0.3-2.4-0.1-3.2,1.1c-0.2-0.1-0.3-0.6,0-0.7
		c-0.3-0.4-0.6-0.6-1.3-0.5c0.3-0.4,0.9-0.7,2.8-0.3c0.2-0.7,0.4-4.8,0.3-5.7c0-0.2-0.1-0.4-0.2-0.8l0,0c-0.5-1.2-1.5-3.1-1.7-4.5
		c-0.3,0-0.8,0.1-1-0.1c-0.4-0.4-1.3-1.7-1.5-3c-0.3-0.5-0.8-2.5,0.7-3.6c1.1-0.8,3.5-1.7,3.5-2.6c0-0.5-0.9-0.9-1.2-1.2
		c-0.3-0.2-0.2-0.3,0.1-0.6c1.4-1.4,3.1,0,2.1,1.7c-0.7,1.3-4.5,2.4-3.6,4.7c0.8,0.1,1.2,0.4,1.5,0.8c0.7-0.3,3.6-1.5,3.9-5.2
		c0.7-0.5,1.5-0.9,2.2-1.5c0.1,0.9,0,6.8-5.3,8.2c0.1,0.5,1.3,0.6,2-0.3c0.7,0.2,1.4-0.4,1.5-0.9c0.6,0,1.2-0.6,1.1-1.2
		c0.7-0.2,1.1-1.2,0.8-1.9c0.6-0.3,0.8-1,0.6-1.7c0.5-0.3,0.7-1.2,0.2-1.7c0.2-0.5,0.2-0.8,0-1.2c1-0.9,2.2-2,3-3.4
		c0.1,0.9-0.4,1.7-1,2.6c1-0.7,1.2-0.8,1.9-1.3c-0.2,1.1-1.4,2.1-1.9,2.6c0.6-0.2,1.5-0.7,2.2-1c-0.6,1.2-1.6,1.9-2.2,2.2
		c0.8-0.2,1.4-0.3,2-0.5c-0.5,0.5-1.4,1.2-2.4,1.5c0.8,0,1.5-0.1,2.2-0.3c-0.5,0.6-1.3,1.1-2.2,1.2C44.7,19.8,44.9,19.9,45.7,19.8z"
		/>
	<path d="M39.9,19.4c-0.1,1.2-1,2.9-2,3.8l0.7,0c0.7-0.7,1.9-1.9,2.1-4.2C40.6,18.9,40.1,19.2,39.9,19.4L39.9,19.4z"/>
	<path d="M36,16.9c0.1-0.1,0.1-0.4,0.4-0.5c0.3-0.1,0.3,0.1,0.4,0.2c0.2,0,0.1,0,0,0.2c-0.1,0.1-0.1,0.4-0.4,0.4
		c-0.3,0-0.3-0.1-0.5-0.1C35.8,17,35.9,17,36,16.9L36,16.9z"/>
	<path d="M39.5,30.2c0.3,0,0.6,0,0.8-0.1c0.2,0.3,0.4,0.5,0.4,0.6c-0.4,0.1-0.7,0.1-1,0.1C39.7,30.8,39.7,30.6,39.5,30.2L39.5,30.2z
		"/>
	<path d="M39.2,40.9C38.9,41,38.5,41,37.9,41h-0.7c-2.5,0-5.1-0.8-6.6-2.4c2.2-2.2-0.4-4-1.8-2.1c-0.4,0.6-0.8,1-1.1,1.6
		c-0.2,0.5-0.1,0.9,0.5,1.6c0.3,0.4,1,1,1.6,1.4H17.3c0.6-0.4,1.3-1,1.6-1.4c0.5-0.7,0.7-1.2,0.5-1.6c-0.3-0.6-0.6-1-1.1-1.6
		c-1.4-1.9-3.9-0.1-1.8,2.1C15,40.3,12.5,41,10,41H9.3c-0.6,0-1-0.1-1.3-0.2c-0.5-0.1-0.6,0.1-0.4,1c0.2,0.6,0.3,1.6,0.4,2.2h31.1
		c0.1-0.7,0.2-1.6,0.4-2.2C39.8,41,39.7,40.8,39.2,40.9L39.2,40.9z M29.5,36.6c0.4-0.5,1-0.4,1.2,0.1c0.3,0.5-0.1,1.1-0.6,1.6
		C29.4,37.4,29.3,36.8,29.5,36.6L29.5,36.6z M28.4,39.1c-0.3-0.4-0.3-0.6-0.2-0.9c0.1-0.3,0.4-0.6,0.7-1c0.4,1.7,3,3.3,4.9,3.8h-3
		C30,40.6,29,39.9,28.4,39.1L28.4,39.1z M16.4,36.6c0.2-0.5,0.8-0.6,1.2-0.1c0.2,0.2,0.1,0.8-0.6,1.6C16.6,37.7,16.2,37.1,16.4,36.6
		L16.4,36.6z M18.3,37.2c0.3,0.4,0.5,0.7,0.7,1c0.1,0.3,0,0.5-0.2,0.9c-0.6,0.8-1.6,1.5-2.3,1.9h-3C15.3,40.5,17.8,38.9,18.3,37.2
		L18.3,37.2z M38.6,43.6h-30c-0.1-1-0.3-1.6-0.5-2.1h31C38.9,42.1,38.7,42.7,38.6,43.6L38.6,43.6z"/>
	<path d="M12.7,42.9C12.7,42.9,12.7,42.9,12.7,42.9l0.1,0.2c0,0,0,0,0,0c0,0,0,0,0,0s0,0,0.1,0c0.1,0,0.3,0,0.3,0c0.1,0,0.1,0,0.1,0
		c0,0,0,0,0,0c0,0,0,0-0.1,0c0,0-0.1,0-0.2-0.2c-0.1-0.3-0.4-1-0.4-1.1c0,0,0-0.1,0-0.1c0,0,0,0,0,0.1L12,43c0,0.1-0.1,0.1-0.2,0.2
		c0,0,0,0-0.1,0c0,0,0,0,0,0c0,0,0,0,0,0c0.1,0,0.2,0,0.2,0c0.1,0,0.1,0,0.2,0c0,0,0,0,0,0c0,0,0,0,0,0h0c-0.1,0-0.1,0-0.1-0.1
		c0,0,0-0.1,0-0.1l0-0.1c0,0,0,0,0,0H12.7L12.7,42.9z M12.2,42.8C12.2,42.8,12.2,42.8,12.2,42.8l0.2-0.6c0,0,0,0,0,0c0,0,0,0,0,0
		l0.2,0.6c0,0,0,0,0,0H12.2L12.2,42.8z"/>
	<path d="M13.5,42.7c0,0.3,0.1,0.4,0.2,0.5c0.1,0.1,0.3,0.1,0.4,0.1c0.1,0,0.2,0,0.4-0.1c0.1-0.1,0.2-0.3,0.2-0.5v-0.2
		c0-0.3,0-0.3,0-0.4c0-0.1,0-0.1,0.1-0.1c0,0,0,0,0.1,0c0,0,0,0,0,0c0,0,0,0,0,0c-0.1,0-0.2,0-0.2,0c0,0-0.1,0-0.2,0c0,0,0,0,0,0
		c0,0,0,0,0,0c0,0,0.1,0,0.1,0c0.1,0,0.1,0,0.1,0.1c0,0.1,0,0.1,0,0.4v0.2c0,0.2,0,0.3-0.1,0.4c-0.1,0.1-0.2,0.1-0.2,0.1
		c-0.1,0-0.1,0-0.2-0.1c-0.1-0.1-0.1-0.2-0.1-0.4v-0.2c0-0.3,0-0.3,0-0.4c0-0.1,0-0.1,0.1-0.1c0,0,0,0,0.1,0c0,0,0,0,0,0
		c0,0,0,0,0,0c-0.1,0-0.2,0-0.2,0c-0.1,0-0.2,0-0.3,0c0,0,0,0,0,0c0,0,0,0,0,0c0,0,0.1,0,0.1,0c0.1,0,0.1,0,0.1,0.1
		c0,0.1,0,0.1,0,0.4V42.7L13.5,42.7z"/>
	<path d="M15.4,42.7c0,0.2,0,0.3,0,0.4c0,0,0,0.1-0.1,0.1c0,0,0,0-0.1,0c0,0,0,0,0,0c0,0,0,0,0,0c0.1,0,0.2,0,0.2,0
		c0.1,0,0.2,0,0.4,0c0.3,0,0.5-0.1,0.6-0.2c0.1-0.1,0.2-0.3,0.2-0.5c0-0.2-0.1-0.4-0.2-0.4c-0.2-0.2-0.5-0.2-0.7-0.2
		c-0.1,0-0.2,0-0.3,0c-0.1,0-0.2,0-0.3,0c0,0,0,0,0,0c0,0,0,0,0,0c0,0,0.1,0,0.1,0c0.1,0,0.1,0,0.1,0.1c0,0.1,0,0.1,0,0.4V42.7
		L15.4,42.7z M15.6,42.4c0-0.1,0-0.3,0-0.4c0,0,0,0,0,0c0,0,0.1,0,0.1,0c0.1,0,0.3,0,0.5,0.2c0.1,0.1,0.2,0.2,0.2,0.4
		c0,0.2,0,0.3-0.1,0.4c-0.1,0.1-0.2,0.1-0.4,0.1c-0.1,0-0.2,0-0.2-0.1c0,0,0-0.1,0-0.1c0,0,0-0.2,0-0.4V42.4L15.6,42.4z"/>
	<path d="M17.8,42.9C17.8,42.9,17.8,42.9,17.8,42.9l0.1,0.2c0,0,0,0,0,0c0,0,0,0,0,0s0,0,0.1,0c0.1,0,0.3,0,0.3,0c0.1,0,0.1,0,0.1,0
		c0,0,0,0,0,0c0,0,0,0-0.1,0c0,0-0.1,0-0.2-0.2c-0.1-0.3-0.4-1-0.4-1.1c0,0,0-0.1,0-0.1c0,0,0,0,0,0.1L17.1,43
		c0,0.1-0.1,0.1-0.2,0.2c0,0,0,0-0.1,0c0,0,0,0,0,0c0,0,0,0,0,0c0.1,0,0.2,0,0.2,0c0.1,0,0.1,0,0.2,0c0,0,0,0,0,0c0,0,0,0,0,0h0
		c-0.1,0-0.1,0-0.1-0.1c0,0,0-0.1,0-0.1l0-0.1c0,0,0,0,0,0H17.8L17.8,42.9z M17.4,42.8C17.3,42.8,17.3,42.8,17.4,42.8l0.2-0.6
		c0,0,0,0,0,0s0,0,0,0l0.2,0.6c0,0,0,0,0,0H17.4L17.4,42.8z"/>
	<path d="M19.6,42.1c0.1-0.1,0.1-0.1,0.1-0.1c0,0,0,0,0.1,0c0,0,0,0,0,0c0,0,0,0,0,0c-0.1,0-0.1,0-0.2,0c0,0-0.1,0-0.2,0
		c0,0,0,0,0,0c0,0,0,0,0,0c0,0,0,0,0.1,0c0,0,0,0,0,0c0,0,0,0,0,0.1c0,0-0.2,0.3-0.2,0.4c-0.1-0.1-0.1-0.3-0.2-0.4c0,0,0,0,0-0.1
		c0,0,0,0,0,0c0,0,0,0,0,0c0,0,0,0,0,0c0,0,0,0,0,0c-0.1,0-0.2,0-0.2,0c-0.1,0-0.2,0-0.3,0c0,0,0,0,0,0c0,0,0,0,0,0c0,0,0,0,0.1,0
		c0.1,0,0.1,0.1,0.1,0.1l0.3,0.5l-0.3,0.5c-0.1,0.1-0.1,0.1-0.1,0.1c0,0-0.1,0-0.1,0c0,0,0,0,0,0c0,0,0,0,0,0h0c0,0,0.1,0,0.1,0
		c0,0,0.2,0,0.2,0h0c0,0,0,0,0,0c0,0,0,0,0,0c0,0,0,0,0,0c0,0,0,0,0,0c0,0,0,0,0-0.1l0.3-0.4c0.1,0.1,0.2,0.3,0.3,0.5c0,0,0,0,0,0
		c0,0,0,0,0,0c0,0,0,0,0.1,0c0.1,0,0.3,0,0.3,0h0.1c0,0,0,0,0,0s0,0,0,0c0,0,0,0-0.1,0c0,0-0.1,0-0.1-0.1c0-0.1-0.3-0.5-0.4-0.6
		L19.6,42.1L19.6,42.1z"/>
	<path d="M22.5,42.9C22.5,42.9,22.5,42.9,22.5,42.9l0.1,0.2c0,0,0,0,0,0c0,0,0,0,0,0s0,0,0.1,0c0.1,0,0.3,0,0.3,0c0.1,0,0.1,0,0.1,0
		c0,0,0,0,0,0c0,0,0,0-0.1,0c0,0-0.1,0-0.2-0.2c-0.1-0.3-0.4-1-0.4-1.1c0,0,0-0.1,0-0.1c0,0,0,0,0,0.1L21.8,43
		c0,0.1-0.1,0.1-0.2,0.2c0,0,0,0-0.1,0c0,0,0,0,0,0c0,0,0,0,0,0c0.1,0,0.2,0,0.2,0c0.1,0,0.1,0,0.2,0c0,0,0,0,0,0c0,0,0,0,0,0h0
		c-0.1,0-0.1,0-0.1-0.1c0,0,0-0.1,0-0.1l0-0.1c0,0,0,0,0,0H22.5L22.5,42.9z M22,42.8C22,42.8,22,42.8,22,42.8l0.2-0.6c0,0,0,0,0,0
		c0,0,0,0,0,0l0.2,0.6c0,0,0,0,0,0L22,42.8L22,42.8z"/>
	<path d="M23.6,42.7c0,0.2,0,0.3,0,0.4c0,0,0,0.1-0.1,0.1c0,0,0,0-0.1,0c0,0,0,0,0,0c0,0,0,0,0,0c0.1,0,0.2,0,0.2,0c0,0,0.2,0,0.3,0
		c0,0,0,0,0,0c0,0,0,0,0,0c0,0-0.1,0-0.1,0c-0.1,0-0.1,0-0.1-0.1c0-0.1,0-0.2,0-0.4V42l0.2,0c0.2,0,0.2,0.1,0.2,0.1l0,0c0,0,0,0,0,0
		c0,0,0,0,0,0c0,0,0-0.2,0-0.2c0,0,0,0,0,0c0,0-0.1,0-0.2,0h-0.7c-0.1,0-0.1,0-0.2,0c0,0-0.1,0-0.1,0c0,0,0,0,0,0c0,0,0,0.2,0,0.2
		c0,0,0,0,0,0c0,0,0,0,0,0c0,0,0,0,0-0.1c0,0,0.1,0,0.2-0.1l0.3,0V42.7L23.6,42.7z"/>
	<path d="M26.7,42.6C26.7,42.6,26.7,42.6,26.7,42.6c0,0,0.2,0,0.3,0c0.1,0,0.1,0,0.1,0.1c0,0,0,0,0,0.1c0,0,0,0,0,0c0,0,0,0,0,0
		c0,0,0-0.1,0-0.1c0-0.1,0-0.1,0-0.1c0,0,0,0,0,0c0,0,0,0,0,0c0,0,0,0-0.1,0c0,0,0,0-0.1,0l-0.2,0c0,0,0,0,0,0V42c0,0,0,0,0,0l0.3,0
		c0.1,0,0.1,0,0.1,0.1c0,0,0,0.1,0,0.1c0,0,0,0,0,0c0,0,0,0,0,0c0,0,0-0.1,0-0.1c0,0,0-0.1,0-0.1c0,0,0,0,0,0c0,0,0,0,0,0
		c0,0,0,0-0.1,0c0,0-0.4,0-0.5,0c0,0-0.2,0-0.3,0c0,0,0,0,0,0c0,0,0,0,0,0c0,0,0.1,0,0.1,0c0.1,0,0.1,0,0.1,0.1c0,0.1,0,0.1,0,0.4
		v0.3c0,0.2,0,0.3,0,0.4c0,0,0,0.1,0,0.1c0,0,0,0-0.1,0c0,0,0,0,0,0c0,0,0,0,0,0c0.1,0,0.2,0,0.2,0c0,0,0.2,0,0.3,0c0,0,0,0,0,0
		c0,0,0,0,0,0c0,0-0.1,0-0.1,0c-0.1,0-0.1,0-0.1-0.1c0-0.1,0-0.2,0-0.4V42.6L26.7,42.6z"/>
	<path d="M27.8,42.7c0,0.2,0,0.3,0,0.4c0,0.1,0,0.1-0.1,0.1c0,0,0,0-0.1,0c0,0,0,0,0,0c0,0,0,0,0,0c0.1,0,0.2,0,0.2,0
		c0,0,0.2,0,0.3,0c0,0,0,0,0,0c0,0,0,0,0,0c0,0-0.1,0-0.1,0c-0.1,0-0.1,0-0.1-0.1c0-0.1,0-0.2,0-0.4v-0.3c0-0.3,0-0.3,0-0.4
		c0-0.1,0-0.1,0.1-0.1c0,0,0,0,0.1,0c0,0,0,0,0,0c0,0,0,0,0,0c-0.1,0-0.2,0-0.2,0c-0.1,0-0.2,0-0.2,0c0,0,0,0,0,0c0,0,0,0,0,0
		c0,0,0,0,0.1,0c0,0,0.1,0,0.1,0.1c0,0.1,0,0.1,0,0.4V42.7L27.8,42.7z"/>
	<path d="M28.9,42.7c0,0.2,0,0.3,0,0.4c0,0,0,0.1-0.1,0.1c0,0,0,0-0.1,0c0,0,0,0,0,0c0,0,0,0,0,0c0.1,0,0.2,0,0.2,0
		c0.1,0,0.2,0,0.4,0c0.3,0,0.5-0.1,0.6-0.2c0.1-0.1,0.2-0.3,0.2-0.5c0-0.2-0.1-0.4-0.2-0.4c-0.2-0.2-0.5-0.2-0.7-0.2
		c-0.1,0-0.2,0-0.3,0c0,0-0.2,0-0.3,0c0,0,0,0,0,0c0,0,0,0,0,0c0,0,0.1,0,0.1,0c0.1,0,0.1,0,0.1,0.1c0,0.1,0,0.1,0,0.4V42.7
		L28.9,42.7z M29.1,42.4c0-0.1,0-0.3,0-0.4c0,0,0,0,0,0c0,0,0.1,0,0.1,0c0.1,0,0.3,0,0.5,0.2c0.1,0.1,0.2,0.2,0.2,0.4
		c0,0.2,0,0.3-0.1,0.4c-0.1,0.1-0.2,0.1-0.4,0.1c-0.1,0-0.2,0-0.2-0.1c0,0,0-0.1,0-0.1c0,0,0-0.2,0-0.4V42.4L29.1,42.4z"/>
	<path d="M30.8,42.7c0,0.2,0,0.3,0,0.4c0,0,0,0.1-0.1,0.1c0,0,0,0-0.1,0c0,0,0,0,0,0c0,0,0,0,0,0c0.1,0,0.2,0,0.2,0
		c0.1,0,0.2,0,0.5,0c0.1,0,0.1,0,0.1,0c0,0,0-0.2,0-0.2c0,0,0,0,0,0c0,0,0,0,0,0c0,0.1,0,0.1-0.1,0.1c0,0-0.1,0-0.2,0
		c-0.2,0-0.2,0-0.2-0.1c0-0.1,0-0.2,0-0.3v-0.1c0,0,0,0,0,0c0,0,0.2,0,0.3,0c0.1,0,0.1,0,0.1,0.1c0,0,0,0,0,0.1c0,0,0,0,0,0
		c0,0,0,0,0,0c0,0,0-0.1,0-0.1c0-0.1,0-0.1,0-0.1c0,0,0,0,0,0c0,0,0,0,0,0c0,0,0,0-0.1,0c0,0-0.2,0-0.3,0c0,0,0,0,0,0V42
		c0,0,0,0,0,0c0,0,0.2,0,0.3,0c0.1,0,0.1,0,0.1,0.1c0,0,0,0.1,0,0.1c0,0,0,0,0,0c0,0,0,0,0,0c0,0,0-0.1,0-0.1c0-0.1,0-0.1,0-0.1
		c0,0,0,0,0,0c0,0,0,0,0,0c0,0,0,0-0.1,0c0,0-0.4,0-0.4,0c0,0-0.2,0-0.3,0c0,0,0,0,0,0c0,0,0,0,0,0c0,0,0.1,0,0.1,0
		c0.1,0,0.1,0,0.1,0.1c0,0.1,0,0.1,0,0.4V42.7L30.8,42.7z"/>
	<path d="M32.4,42.4c0-0.3,0-0.3,0-0.4c0-0.1,0-0.1,0.1-0.1c0,0,0.1,0,0.1,0c0,0,0,0,0,0c0,0,0,0,0,0c-0.1,0-0.2,0-0.2,0
		c0,0-0.2,0-0.2,0c0,0,0,0,0,0c0,0,0,0,0,0c0,0,0,0,0.1,0c0.1,0,0.1,0,0.1,0.1c0,0.1,0,0.1,0,0.4v0.3c0,0.2,0,0.3,0,0.4
		c0,0,0,0.1-0.1,0.1c0,0,0,0-0.1,0c0,0,0,0,0,0c0,0,0,0,0,0c0.1,0,0.2,0,0.2,0c0.1,0,0.3,0,0.5,0c0.1,0,0.1,0,0.1,0
		c0-0.1,0-0.2,0-0.2c0,0,0,0,0,0c0,0,0,0,0,0c0,0,0,0.1,0,0.1c0,0-0.1,0.1-0.2,0.1c-0.1,0-0.2,0-0.2,0c0,0,0-0.2,0-0.4V42.4
		L32.4,42.4z"/>
	<path d="M33.5,42.7c0,0.2,0,0.3,0,0.4c0,0.1,0,0.1-0.1,0.1c0,0,0,0-0.1,0c0,0,0,0,0,0c0,0,0,0,0,0c0.1,0,0.2,0,0.2,0
		c0,0,0.2,0,0.3,0c0,0,0,0,0,0c0,0,0,0,0,0c0,0-0.1,0-0.1,0c-0.1,0-0.1,0-0.1-0.1c0-0.1,0-0.2,0-0.4v-0.3c0-0.3,0-0.3,0-0.4
		c0-0.1,0-0.1,0.1-0.1c0,0,0,0,0.1,0c0,0,0,0,0,0c0,0,0,0,0,0c-0.1,0-0.2,0-0.2,0c-0.1,0-0.2,0-0.2,0c0,0,0,0,0,0c0,0,0,0,0,0
		c0,0,0,0,0.1,0c0,0,0.1,0,0.1,0.1c0,0.1,0,0.1,0,0.4V42.7L33.5,42.7z"/>
	<path d="M34.7,43.3c0.1,0,0.2,0,0.3-0.1c0.1-0.1,0.2-0.2,0.2-0.3c0-0.2-0.1-0.3-0.3-0.5l0,0c-0.1-0.1-0.2-0.2-0.2-0.3
		c0-0.1,0.1-0.2,0.2-0.2C34.9,42,35,42,35,42c0,0,0,0.1,0,0.1c0,0,0,0,0,0c0,0,0,0,0-0.1c0-0.1,0-0.2,0-0.2c0,0,0,0,0,0
		c0,0-0.1,0-0.2,0c-0.2,0-0.4,0.1-0.4,0.3c0,0.1,0.1,0.3,0.3,0.4l0.1,0.1c0.1,0.1,0.2,0.2,0.2,0.3C35,43.1,34.9,43.2,34.7,43.3
		c-0.1-0.1-0.2-0.1-0.2-0.3c0,0,0-0.1,0-0.1c0,0,0,0,0,0c0,0,0,0,0,0c0,0,0,0.1,0,0.2c0,0,0,0,0,0.1C34.5,43.3,34.6,43.3,34.7,43.3
		L34.7,43.3z"/>
	<path d="M29.4,6.7c0-0.3-0.5-0.5-0.6-0.5c-0.2,0-0.5,0.4-0.7,0.7c-0.2-1.3-0.1-1.8,0-2.4c0.5,1,1.3,1.2,1.6,1.1c-1.3-1-1.1-2-1.5-2
		c-0.2,0-0.4,0-0.5,0c-0.5,0-0.5,0.9-0.6,1.3c-0.3-0.5-0.6-1-1.1-1.6c-0.5-1.2-1.1-0.9-1.7-1.5c0.5,0.7,0.1,1.1,1.2,1.6
		c0.3,0.3,0.6,0.7,0.8,1c-0.2,0.2-0.3,0.4-0.5,0.5c-0.1,0.2-0.2,1-0.6,1.5c0.6-0.3,0.9-0.6,1.1-1c1.9,1.5,0.4,5.2-0.1,6
		c-0.4-0.3-1-0.4-1.5-0.5l-0.1-0.2l-0.5-1.5h0.2c0.2,0,0.3-0.2,0.3-0.3l1.3,0.4l0.6,0.2l-0.4-0.5l-0.6-0.9l0.6-0.9L26.7,7l-0.6,0.2
		l-1.2,0.4c-0.1-0.3-0.3-0.4-0.6-0.4l0.4-1.4l0.2-0.6l-0.5,0.4l-0.9,0.6l-0.9-0.6l-0.5-0.4l0.2,0.6l0.4,1.4c-0.2,0-0.5,0.2-0.6,0.4
		l-1.2-0.4L20.5,7l0.4,0.5l0.6,0.9l-0.6,0.9l-0.4,0.5l0.6-0.2l1.3-0.4c0,0.1,0,0.3,0.3,0.3h0.2l-0.5,1.5L22.4,11
		c-0.5,0.1-1.1,0.3-1.5,0.6c-1.3-2.5-0.9-5.1,0.2-5.9c0,0.5,0.5,1.3,0.7,1.4c-0.1-0.6,0.1-1.5-0.2-1.8C21.3,5.1,21,5,20.7,5
		c0.2-0.4,0.5-0.8,1-1.5c0.8-0.4,1-1.3,1.2-1.7c-0.8,0.3-1.4,0.7-1.6,1.4c-0.3,0.4-0.6,0.9-1,1.4c0-0.7-0.3-0.9-0.8-0.9
		C18.1,4,18.2,5,17,5.7c0.8,0.3,2.1-1.5,2.6-1.3c0.1,1.1-0.2,2-0.2,2.6c-0.2-0.2-0.3-0.4-0.5-0.4c-0.2,0-0.6,0-1,0.4
		c-0.1,0.6-0.1,1.6-0.6,2.9c0.8-0.7,1.2-2.1,1.3-2.5c0.2,0.3,0.4,0.9,0.5,1.4c0.1,1,0.7,2.7,1.2,3.5c-0.1,0.3-0.2,0.6-0.1,0.9
		c-0.4,0.3-0.5,0.7-0.3,1c0.2,0.3,0.6,0.5,1,0.3l0.1-0.1c0.5-0.2,1.4-0.6,2.6-0.6c1.1,0,2.1,0.4,2.6,0.6l0.1,0.1
		c0.5,0.2,0.9,0,1-0.3c0.1-0.3,0.1-0.7-0.3-1c0.1-0.4,0-0.7-0.2-1l0,0c1-1.4,1-4,1.8-4.7c0.1,0.9,0.6,1.7,1,1.8
		C29.3,8.6,29.3,7.3,29.4,6.7L29.4,6.7z M24.9,8l0.7-0.2l-0.3,0.5l-0.1,0.1l0.1,0.1l0.3,0.5l-0.9-0.3C24.8,8.5,24.9,8.3,24.9,8
		L24.9,8z M21.5,8.9l0.3-0.5L22,8.3l-0.1-0.1l-0.3-0.5L22.2,8c0,0.3,0.1,0.5,0.2,0.7L21.5,8.9L21.5,8.9z M24.4,8.7h-0.6l0.1-1
		C24.7,7.3,24.6,8.1,24.4,8.7L24.4,8.7z M24.2,10.4L23.7,10L23.6,10L23.5,10L23,10.4l0.3-1h0.6L24.2,10.4L24.2,10.4z M23.5,6.5
		l0.1,0.1l0.1-0.1l0.5-0.4l-0.3,0.9c0,0,0,0,0,0c-0.1-0.1-0.2-0.2-0.3-0.2S23.3,7,23.3,7.1c0,0,0,0,0,0L23,6.2L23.5,6.5L23.5,6.5z
		 M22.8,8.7c-0.3-0.6-0.4-1.4,0.5-1l0.1,1H22.8L22.8,8.7z M23.6,10.5l0.7,0.5c-0.3,0-0.5,0-0.7,0s-0.4,0-0.7,0L23.6,10.5L23.6,10.5z
		 M20.8,14L20.7,14c-0.2,0.1-0.3,0-0.4-0.1c-0.1-0.1,0-0.3,0.2-0.4c0,0,0.1,0,0.1-0.1l0.5,0.4C21,13.9,20.9,13.9,20.8,14L20.8,14z
		 M22.4,13.4L22,13c0.4-0.1,0.8-0.2,1.3-0.2l0.3,0.6C23.1,13.3,22.8,13.4,22.4,13.4L22.4,13.4z M25.2,13.6l-0.3-0.7
		c0.4,0.1,0.9,0.2,1.2,0.4l0.2,0.7C26,13.8,25.6,13.7,25.2,13.6L25.2,13.6z M23.6,12.2c-0.9,0-2,0.2-2.8,0.6c0-0.2,0.1-0.3,0.2-0.5
		c0.5-0.6,1.7-0.8,2.6-0.8c0.9,0,2.1,0.2,2.6,0.8c0.1,0.1,0.2,0.3,0.2,0.5C25.6,12.5,24.5,12.2,23.6,12.2L23.6,12.2z"/>
	<path d="M17,27c0.1-1.1,0-1.2-0.4-1.4c-0.3-0.2-0.7-0.3-1.1-0.6c-0.3-0.2-0.4-0.5-0.8-1c0.1-1.1,1.3-2.5,1.7-2.3l0-0.5
		c-0.5-0.2-1.4,0.3-2.2,2.2c-0.1-0.1-0.2-0.1-0.2-0.2c0.1-0.4-0.1-0.8-0.4-1.1c0.3-0.2,1.1-0.6,1.5-0.9c0.5-0.4,0.6-0.5,1.2-0.4
		c0,0,0.1-0.1,0.2-0.3c-0.5-0.6-1.1-0.4-1.6,0.1c-0.4,0.3-1.2,0.8-1.8,1c-0.8-0.7-2-1.2-2.9-2.1c0,0,1.2,0,1.7-0.2
		c0.1-0.1,0.5-0.7,0.4-1.2c-0.2-0.1-0.4-0.2-0.7-0.3c-0.3-0.2-0.6-0.4-0.8-0.5c-0.5-0.4-0.7-0.7-1.6-0.9c0.1-0.4,0.1-0.3,0.5-0.6
		c0.5-0.3,0.8-0.7,1-1.1c0.2-0.3,0-0.9-0.4-0.1c-0.1,0.3-0.5,0.7-0.9,0.8c0-0.2,0-0.4,0-0.5c1.3-0.9,1.2-1.7,1.1-2.4
		c-0.1-0.4-0.5-0.6-0.5-0.2c0,0.3,0.3,1.1-0.6,1.6c0-0.4-0.1-0.5-0.2-0.7c0.8-1,0.5-2,0.1-2.5c-0.2-0.3-0.7-0.4-0.5,0.1
		c0.2,0.4,0.5,1.4-0.1,1.8c-0.2-0.2-0.4-0.3-0.5-0.7c0.1-1.1,0-1.8-0.2-2.2C8,9.3,7.6,9,7.7,9.6c0,0.6,0.1,1.4,0,1.4
		c-0.1,0-0.9-0.7-1.2-1c-0.3-0.2-0.7-0.1-0.3,0.3c0.3,0.4,1.4,1.2,1.3,1.4c-0.1,0.2-0.8-0.5-1.2-0.6c-0.4-0.1-0.5,0.1-0.2,0.3
		c0.5,0.4,0.9,0.7,1.8,1c0.9,0.3,1.3,1.5,1,3.3c0,0.1-0.2,0.1-0.2,0c0-0.7-0.2-1.5-0.3-1.8c-0.2-0.5-0.6-0.5-0.5,0.2
		c0.1,0.5,0.2,1,0.1,1.7c-0.7-0.1-1-0.3-1.3-0.5c0-0.3,0.1-0.9,0.2-1.4c0-0.5-0.3-0.8-0.4-0.2c-0.2,0.6-0.3,0.9-0.4,1.3
		c-0.2-0.1-0.4-0.2-0.5-0.3c0-0.1,0-0.7-0.1-1.2c-0.1-0.5-0.3-0.5-0.4,0c-0.1,0.2-0.1,0.5-0.2,0.9c-0.3-0.2-0.4-0.4-0.5-0.7
		c0-0.6,0.1-1.2,0.2-1.5c0-0.3-0.1-0.8-0.3-0.2C4,12.6,4,13,3.9,13.3c-0.2,0-0.4-1.1-0.6-1.8c-0.1-0.3-0.3-0.7-0.4,0
		c-0.1,0.8,0.1,1.5,0.3,1.9c-0.4,0-0.7-0.7-1-1.1C2.1,12,2,12.4,2,12.5c0.2,1.4,1.3,1.9,1.8,2C4.6,15.6,6,16,7.3,16.6
		c-1.6,0-2,0.6-2.8,0.2c0,0.6,0.3,0.9,0.6,1c0.2,0.1,0.4,0.1,0.5,0.1c0.1,0.7,0.8,0.7,1.4,0.7c-0.2,1.4,0,3.3,1.3,4.8
		c0,0.7-0.1,1.7-0.1,2.3c-1,1-2,3-2.3,4.1c-0.3,0.8-0.7,1.5-1.3,1.8c0.5,0.5,1.3,0.3,1.7,0c0,0.5,0.1,0.8,0.2,1.1
		c-0.3,0.4-0.5,0.7-0.5,1.3c-0.3,0.1-0.6,0.3-0.7,0.5c-0.1,0.1,0,0.8,0.1,1.1c0.4,0.9,0.1,3,0,3.6c0.2,0,0.5,0,0.6-0.2
		c0.1,0.1,0.4,0.3,0.5,0.7c0,0.2-0.1,0.8,0.2,0.9c0.3,0.1,1.4,0,1.6-0.2C8.2,40.3,8,40,7.9,39.7c0-0.3,0-0.7-0.1-0.9
		c-0.1-0.2-0.5-0.8-0.7-1c0-0.4-0.1-2.1,0.1-2.7c0.3-0.2,2.3-1.7,2.8-3.2c0.4,0.1,0.3,1.1,0.3,2.4c0,0.4,0.4,0.5,0.7,0.6
		c0.6,0.1,1.3,0.6,2.2,1.9c0.2-0.2,0.4-0.4,0.4-0.4c0.1,0.2,0.2,0.5,0.3,0.8c0.1,0.2,0.8,0.3,1.4,0.1c0.2-0.1,0.3-0.1,0.4-0.3
		c-0.7-1.2-1.1-2-2-2.7c-0.4-0.3-1-0.5-1.4-0.8c0.3-0.6,1.2-3.3,0.6-4.3c-0.2-0.3-0.8-0.7-1.6-0.5c0.7-0.8,2-2.3,2.2-2.8
		c0.2,0.2,0.9,0.1,1.5,0.3c0.2,0.1,0.8,0.9,0.8,1.1c0.1,0.5,0.1,1-0.3,2.4c0.2,0,0.2,0,0.4-0.1c0,0.4-0.1,0.6-0.4,1.2
		c0.1,0.5,0.3,1.2,0.5,1.3c0.3-0.9,1.4-2.1,1.4-2.9C17.4,28.3,16.9,27.4,17,27L17,27z M6.3,17.8c-0.2-0.2-0.2-0.4-0.3-0.5
		c0.6-0.4,1.4-0.1,1.8-0.5c0.3,0.2,0.7,0,0.9,0c0.6-0.1,1.4,0.6,2,1c0.2,0.2,0.5,0.3,0.6,0.3c-0.2,0.5-0.1,0.6,0.3,0.7
		c0,0.1-0.1,0.2-0.6,0.2c-0.5-0.1-1.1,0-1.3,0c-1.5,0.8-1.9-0.4-1.9-1.2c0,0,0,0,0,0c0,0,0,0,0,0C7,18.3,6.6,18.1,6.3,17.8L6.3,17.8
		z M12.2,29.7c0.5,0.6-0.2,3.3-0.5,3.8c-0.2,0.4,0.2,0.7,0.4,0.8c1.1,0.3,2.1,1.3,2.5,2.1l-0.4,0.2c-0.8-1.1-1-0.7-1.2-0.5
		c-0.2-0.4-1.2-1.4-1.8-1.5c-0.6-0.1-0.6-0.4-0.5-0.7c0.1-0.6,0-1.4,0-1.9c-0.1-0.4-0.4-0.8-0.6-0.8c0.1-0.3,0-1.2,0.7-1.6
		C11.4,29.2,12.1,29.5,12.2,29.7L12.2,29.7z M16.5,30.3c-0.1,0-0.2,0-0.2-0.1c0.2-0.6,0.2-0.9,0.2-1.1c-0.1,0-0.2,0-0.3,0
		c0.2-1,0.1-1.6,0-2c-0.1-0.4-0.7-1-0.8-1.1c-0.3-0.2-0.5-0.3-1.1-0.4c-1.2-1-1.5-0.4-2.4-0.5c-0.1-0.2-0.3-0.4-0.3-0.4L11,25
		c0,0,0.4,0.5,0.4,0.8c0,0,0.8-0.1,1.4,0c-0.2,0.8-1.3,1.8-2.3,2.9c-1.1,1.2-1.1,1.5-1.1,2.4c0,1.1-1.5,2.8-2.7,3.6
		c-0.1,0.3-0.2,2.8-0.1,3.2c0.1,0.1,0.4,0.5,0.6,0.9c0.1,0.1,0.1,0.5,0.1,0.8c-0.2,0-0.3,0-0.4-0.1c-0.1-0.4-0.4-0.8-0.9-1.2
		c0.1-1.4,0.3-2.1-0.2-3.5c0-0.1,0.6-0.5,0.6-0.5s0.2-1,0.8-1.5c-0.4-1.1-0.5-2.6-0.5-2.6s-0.3,0.3-0.7,0.6c1.1-3.5,1.3-2.5,2.6-5.1
		c0.9-4.1-1.5-4.9-1.1-6.4c0.8,0.8,1.3,0.5,1.9,0.3c0.6,0.5,1.5,1.7,2.3,2c1.3,0.5,1.3,1.7,1.1,2.3c0.6,0,1,0.2,1.2,0.5
		c0.9,1.5,1.6,1,2.1,1.6c0.2,0.3,0,1.1,0.3,1.8c0.2,0.5,0.3,1.1,0.3,1.2C16.9,29.5,16.6,29.9,16.5,30.3L16.5,30.3z"/>
	<path d="M9.4,18.1c0.3,0,0.4-0.2,0.7-0.1c0-0.1-0.2-0.1-0.2-0.2c0,0,0-0.1,0-0.1c0-0.3-0.1-0.5-0.5-0.5c-0.1,0.2-0.5,0.4-0.7,0.5
		c0.1,0,0.1,0,0.2,0C9,17.9,9,18.1,9.4,18.1L9.4,18.1z"/>
	<path d="M30.8,20.5h-7.2h-7.2h-0.3v0.3v5.2c0.1,0.1,0.2,0.1,0.3,0.2c0.2,0.3,0,1.1,0.3,1.8c0,0,0,0.1,0,0.1h6.7v10.7
		c-0.8-0.3-2.4-1.1-3.9-2.5c-1.8-1.8-2.8-3.9-2.9-6.4c-0.1,0.1-0.1,0.2-0.1,0.3c-0.1,0-0.2,0-0.2-0.1c0.2-0.6,0.2-0.9,0.2-1.1
		c-0.1,0-0.2,0-0.3,0c0.2-1,0.1-1.6,0-2c0,0,0-0.1-0.1-0.1v2.5c0,2.8,1,5.2,3.1,7.2c1.8,1.7,3.8,2.5,4.4,2.7l0.1,0l0.1,0
		c0.6-0.2,2.6-1,4.4-2.7c2-2,3.1-4.4,3.1-7.2V29c-0.2,0.3-0.4,0.5-0.5,0.5c0,2.7-1,4.9-2.9,6.8c-1.5,1.4-3.1,2.2-3.9,2.5V28.1h6.8v1
		c0.7-0.9,0.4-3.2,0-3.4v2h-14V21h7h7v4.6c0.2-0.1,0.4,0,0.5,0.3v-5.2v-0.3H30.8z"/>
</g>
</svg>
